{
.appVersion = "3109";
classes = (
{
code = "dotaboveSogd twodotsaboveSogd curveaboveSogd hookaboveSogd dotaboveSogd.rho twodotsaboveSogd.rho";
name = markFilteringSet1;
},
{
code = "NunFin NunMed YodhFin YodhMed ZayinFin ZayinMed";
name = class2;
},
{
code = "KaphIni KaphIni.cut1 KaphIni.cut2 KaphIni.cut3 KaphIni.short KaphMed KaphMed.cut1 KaphMed.cut2 KaphMed.cut3 KaphMed.pe KaphMed.pecut2 KaphMed.pecut3 KaphMed.peshort KaphMed.short PeIni PeIni.cut1 PeIni.cut2 PeIni.cut3 PeIni.short PeMed PeMed.cut1 PeMed.cut2 PeMed.cut3 PeMed.pe PeMed.pecut2 PeMed.pecut3 PeMed.peshort PeMed.short";
name = class21;
},
{
code = "hookaboveSogd hookaboveSogd.alt";
name = markFilteringSet5;
},
{
code = "LamedhFin LamedhFin.hook LamedhFin.pehook LamedhIni LamedhIni.hook LamedhIni.hookwide LamedhIni.wide LamedhMed LamedhMed.hook LamedhMed.hookwide LamedhMed.pehook LamedhMed.pewide LamedhMed.wide LamedhSep LamedhSep.hook";
name = class68;
},
{
code = strokebelowSogd;
name = markFilteringSet7;
},
{
code = "GimelFin.pe GimelMed.pe HethFin.pe HethMed.pe LamedhMed.pe LamedhMed.pehook ReshMed.pe SadheMed.pe SadheMed.pe2 YodhFin.pe YodhMed.pe hundredSogdFin hundredSogdSep";
name = class69;
},
{
code = "ReshFin ReshFin.pe ReshSep SadheFin.alt08 SamekhFin SamekhFin.pe SamekhIni SamekhMed SamekhMed.pe SamekhSep ShinFin ShinIni ShinMed ShinMed.DDCx ShinMed.DDDx ShinMed.DDEx ShinMed.DDFx ShinSep WawFin.liga";
name = class70;
},
{
code = "SadheFin SadheFin.alt07 SadheFin.alt09 SadheFin.alt09R2 SadheFin.alt09R3 SadheFin.alt09R4 SadheFin.alt11 SadheFin.alt11R2 SadheFin.alt11R3 SadheFin.alt11R4 SadheFin.pe SadheIni SadheMed SadheSep oneSogdFin oneSogdMed";
name = class71;
},
{
code = "KaphFin.alt04 ReshIni ReshMed TawFin.alt13 TawFin.alt14 TawFin.alt15";
name = class72;
},
{
code = "LeshFin LeshFin.pe LeshIni LeshMed LeshMed.pe LeshSep oneSogdIni oneSogdSep";
name = class73;
},
{
code = "NunFin.pe NunMed.pe WawFin WawFin.DD WawSep ZayinFin.pe ZayinMed.pe";
name = class74;
},
{

glyphs = (
{
glyphname = .notdef;
lastChange = "2019-10-31 19:51:10 +0000";
layers = (
{
layerId = UUID0;
paths = (
{
closed = 1;
nodes = (
"94 0 LINE",
"505 0 LINE",
"505 714 LINE",
"94 714 LINE"
);
},
{
closed = 1;
nodes = (
"145 51 LINE",
"145 663 LINE",
"454 663 LINE",
"454 51 LINE"
);
}
);
width = 600;
}
);
},
{
glyphname = tatweel;
production = tatweel;
lastChange = "2019-10-31 19:51:10 +0000";
layers = (
{
layerId = UUID0;
paths = (
{
closed = 1;
nodes = (
"436 76 LINE",
"0 76 LINE SMOOTH",
"-34 76 OFFCURVE",
"-43 57 OFFCURVE",
"-43 38 CURVE SMOOTH",
"-43 19 OFFCURVE",
"-34 0 OFFCURVE",
"0 0 CURVE SMOOTH",
"436 0 LINE"
);
}
);
width = 436;
}
);
unicode = 0640;
script = arabic;
category = Letter;
subCategory = Other;
},
{
glyphname = uni25CC;
lastChange = "2019-10-31 19:51:10 +0000";
layers = (
{
anchors = (
{
name = Anchor2;
position = "{300, -60}";
},
{
name = Anchor4;
position = "{282, -60}";
},
{
name = Anchor6;
position = "{300, 645}";
}
);
layerId = UUID0;
paths = (
{
closed = 1;
nodes = (
"199 522 OFFCURVE",
"187 510 OFFCURVE",
"187 496 CURVE SMOOTH",
"187 482 OFFCURVE",
"199 470 OFFCURVE",
"213 470 CURVE SMOOTH",
"227 470 OFFCURVE",
"239 482 OFFCURVE",
"239 496 CURVE SMOOTH",
"239 510 OFFCURVE",
"227 522 OFFCURVE",
"213 522 CURVE SMOOTH"
);
},
{
closed = 1;
nodes = (
"367 522 OFFCURVE",
"355 510 OFFCURVE",
"355 496 CURVE SMOOTH",
"355 482 OFFCURVE",
"367 470 OFFCURVE",
"381 470 CURVE SMOOTH",
"395 470 OFFCURVE",
"407 482 OFFCURVE",
"407 496 CURVE SMOOTH",
"407 510 OFFCURVE",
"395 522 OFFCURVE",
"381 522 CURVE SMOOTH"
);
},
{
closed = 1;
nodes = (
"199 112 OFFCURVE",
"187 100 OFFCURVE",
"187 86 CURVE SMOOTH",
"187 72 OFFCURVE",
"199 60 OFFCURVE",
"213 60 CURVE SMOOTH",
"227 60 OFFCURVE",
"239 72 OFFCURVE",
"239 86 CURVE SMOOTH",
"239 100 OFFCURVE",
"227 112 OFFCURVE",
"213 112 CURVE SMOOTH"
);
},
{
closed = 1;
nodes = (
"367 112 OFFCURVE",
"355 100 OFFCURVE",
"355 86 CURVE SMOOTH",
"355 72 OFFCURVE",
"367 60 OFFCURVE",
"381 60 CURVE SMOOTH",
"395 60 OFFCURVE",
"407 72 OFFCURVE",
"407 86 CURVE SMOOTH",
"407 100 OFFCURVE",
"395 112 OFFCURVE",
"381 112 CURVE SMOOTH"
);
},
{
closed = 1;
nodes = (
"283 540 OFFCURVE",
"271 528 OFFCURVE",
"271 514 CURVE SMOOTH",
"271 500 OFFCURVE",
"283 488 OFFCURVE",
"297 488 CURVE SMOOTH",
"311 488 OFFCURVE",
"323 500 OFFCURVE",
"323 514 CURVE SMOOTH",
"323 528 OFFCURVE",
"311 540 OFFCURVE",
"297 540 CURVE SMOOTH"
);
},
{
closed = 1;
nodes = (
"283 94 OFFCURVE",
"271 82 OFFCURVE",
"271 68 CURVE SMOOTH",
"271 54 OFFCURVE",
"283 42 OFFCURVE",
"297 42 CURVE SMOOTH",
"311 42 OFFCURVE",
"323 54 OFFCURVE",
"323 68 CURVE SMOOTH",
"323 82 OFFCURVE",
"311 94 OFFCURVE",
"297 94 CURVE SMOOTH"
);
},
{
closed = 1;
nodes = (
"48 277 OFFCURVE",
"60 265 OFFCURVE",
"74 265 CURVE SMOOTH",
"88 265 OFFCURVE",
"100 277 OFFCURVE",
"100 291 CURVE SMOOTH",
"100 305 OFFCURVE",
"88 317 OFFCURVE",
"74 317 CURVE SMOOTH",
"60 317 OFFCURVE",
"48 305 OFFCURVE",
"48 291 CURVE SMOOTH"
);
},
{
closed = 1;
nodes = (
"494 277 OFFCURVE",
"506 265 OFFCURVE",
"520 265 CURVE SMOOTH",
"534 265 OFFCURVE",
"546 277 OFFCURVE",
"546 291 CURVE SMOOTH",
"546 305 OFFCURVE",
"534 317 OFFCURVE",
"520 317 CURVE SMOOTH",
"506 317 OFFCURVE",
"494 305 OFFCURVE",
"494 291 CURVE SMOOTH"
);
},
{
closed = 1;
nodes = (
"113 119 OFFCURVE",
"125 107 OFFCURVE",
"139 107 CURVE SMOOTH",
"153 107 OFFCURVE",
"165 119 OFFCURVE",
"165 133 CURVE SMOOTH",
"165 147 OFFCURVE",
"153 159 OFFCURVE",
"139 159 CURVE SMOOTH",
"125 159 OFFCURVE",
"113 147 OFFCURVE",
"113 133 CURVE SMOOTH"
);
},
{
closed = 1;
nodes = (
"113 435 OFFCURVE",
"125 423 OFFCURVE",
"139 423 CURVE SMOOTH",
"153 423 OFFCURVE",
"165 435 OFFCURVE",
"165 449 CURVE SMOOTH",
"165 463 OFFCURVE",
"153 475 OFFCURVE",
"139 475 CURVE SMOOTH",
"125 475 OFFCURVE",
"113 463 OFFCURVE",
"113 449 CURVE SMOOTH"
);
},
{
closed = 1;
nodes = (
"429 119 OFFCURVE",
"441 107 OFFCURVE",
"455 107 CURVE SMOOTH",
"469 107 OFFCURVE",
"481 119 OFFCURVE",
"481 133 CURVE SMOOTH",
"481 147 OFFCURVE",
"469 159 OFFCURVE",
"455 159 CURVE SMOOTH",
"441 159 OFFCURVE",
"429 147 OFFCURVE",
"429 133 CURVE SMOOTH"
);
},
{
closed = 1;
nodes = (
"429 435 OFFCURVE",
"441 423 OFFCURVE",
"455 423 CURVE SMOOTH",
"469 423 OFFCURVE",
"481 435 OFFCURVE",
"481 449 CURVE SMOOTH",
"481 463 OFFCURVE",
"469 475 OFFCURVE",
"455 475 CURVE SMOOTH",
"441 475 OFFCURVE",
"429 463 OFFCURVE",
"429 449 CURVE SMOOTH"
);
},
{
closed = 1;
nodes = (
"66 193 OFFCURVE",
"78 181 OFFCURVE",
"92 181 CURVE SMOOTH",
"106 181 OFFCURVE",
"118 193 OFFCURVE",
"118 207 CURVE SMOOTH",
"118 221 OFFCURVE",
"106 233 OFFCURVE",
"92 233 CURVE SMOOTH",
"78 233 OFFCURVE",
"66 221 OFFCURVE",
"66 207 CURVE SMOOTH"
);
},
{
closed = 1;
nodes = (
"66 361 OFFCURVE",
"78 349 OFFCURVE",
"92 349 CURVE SMOOTH",
"106 349 OFFCURVE",
"118 361 OFFCURVE",
"118 375 CURVE SMOOTH",
"118 389 OFFCURVE",
"106 401 OFFCURVE",
"92 401 CURVE SMOOTH",
"78 401 OFFCURVE",
"66 389 OFFCURVE",
"66 375 CURVE SMOOTH"
);
},
{
closed = 1;
nodes = (
"476 193 OFFCURVE",
"488 181 OFFCURVE",
"502 181 CURVE SMOOTH",
"516 181 OFFCURVE",
"528 193 OFFCURVE",
"528 207 CURVE SMOOTH",
"528 221 OFFCURVE",
"516 233 OFFCURVE",
"502 233 CURVE SMOOTH",
"488 233 OFFCURVE",
"476 221 OFFCURVE",
"476 207 CURVE SMOOTH"
);
},
{
closed = 1;
nodes = (
"476 361 OFFCURVE",
"488 349 OFFCURVE",
"502 349 CURVE SMOOTH",
"516 349 OFFCURVE",
"528 361 OFFCURVE",
"528 375 CURVE SMOOTH",
"528 389 OFFCURVE",
"516 401 OFFCURVE",
"502 401 CURVE SMOOTH",
"488 401 OFFCURVE",
"476 389 OFFCURVE",
"476 375 CURVE SMOOTH"
);
}
);
width = 594;
}
);
unicode = 25CC;
},
{
glyphname = AlephSep;
lastChange = "2019-10-31 19:51:10 +0000";
layers = (
{
anchors = (
{
name = Anchor2;
position = "{377, -60}";
},
{
name = Anchor4;
position = "{347, -60}";
},
{
name = Anchor6;
position = "{515, 441}";
}
);
layerId = UUID0;
paths = (
{
closed = 1;
nodes = (
"669 394 LINE",
"618 366 OFFCURVE",
"553 313 OFFCURVE",
"497 259 CURVE",
"463 297 OFFCURVE",
"429 348 OFFCURVE",
"405 391 CURVE",
"338 351 LINE",
"379 275 OFFCURVE",
"486 128 OFFCURVE",
"576 76 CURVE",
"576 72 LINE",
"545 74 OFFCURVE",
"455 76 OFFCURVE",
"438 76 CURVE SMOOTH",
"50 76 LINE",
"50 0 LINE",
"708 0 LINE",
"708 65 LINE",
"671 82 OFFCURVE",
"600 149 OFFCURVE",
"545 209 CURVE",
"599 258 OFFCURVE",
"662 308 OFFCURVE",
"710 336 CURVE"
);
}
);
width = 788;
}
);
unicode = 10F30;
category = Letter;
subCategory = Other;
},
{
glyphname = BethSep;
lastChange = "2019-10-31 19:51:10 +0000";
layers = (
{
anchors = (
{
name = Anchor2;
position = "{357, -60}";
},
{
name = Anchor4;
position = "{317, -60}";
},
{
name = Anchor6;
position = "{459, 442}";
}
);
layerId = UUID0;
paths = (
{
closed = 1;
nodes = (
"497 222 OFFCURVE",
"543 235 OFFCURVE",
"571 268 CURVE",
"575 248 OFFCURVE",
"579 201 OFFCURVE",
"579 186 CURVE SMOOTH",
"579 113 OFFCURVE",
"568 76 OFFCURVE",
"486 76 CURVE SMOOTH",
"50 76 LINE",
"50 0 LINE",
"483 0 LINE SMOOTH",
"610 0 OFFCURVE",
"658 59 OFFCURVE",
"658 168 CURVE SMOOTH",
"658 225 OFFCURVE",
"644 308 OFFCURVE",
"627 382 CURVE",
"565 382 LINE",
"558 315 OFFCURVE",
"512 293 OFFCURVE",
"451 293 CURVE SMOOTH",
"390 293 OFFCURVE",
"357 324 OFFCURVE",
"346 390 CURVE",
"276 375 LINE",
"281 252 OFFCURVE",
"369 222 OFFCURVE",
"440 222 CURVE SMOOTH"
);
}
);
width = 734;
}
);
unicode = 10F31;
category = Letter;
},
{
glyphname = GimelSep;
lastChange = "2019-10-31 19:51:10 +0000";
layers = (
{
anchors = (
{
name = Anchor2;
position = "{385, -70}";
},
{
name = Anchor4;
position = "{359, -60}";
},
{
name = Anchor6;
position = "{391, 442}";
}
);
layerId = UUID0;
paths = (
{
closed = 1;
nodes = (
"81 65 LINE",
"90 65 LINE",
"217 255 LINE",
"224 187 OFFCURVE",
"237 122 OFFCURVE",
"255 81 CURVE SMOOTH",
"275 35 OFFCURVE",
"303 -10 OFFCURVE",
"383 -10 CURVE SMOOTH",
"471 -10 OFFCURVE",
"524 49 OFFCURVE",
"542 118 CURVE SMOOTH",
"556 172 OFFCURVE",
"563 240 OFFCURVE",
"563 307 CURVE SMOOTH",
"563 333 OFFCURVE",
"562 358 OFFCURVE",
"561 382 CURVE",
"495 382 LINE",
"480 271 LINE SMOOTH",
"462 135 OFFCURVE",
"446 65 OFFCURVE",
"392 65 CURVE SMOOTH",
"338 65 OFFCURVE",
"318 136 OFFCURVE",
"290 289 CURVE SMOOTH",
"273 382 LINE",
"215 382 LINE",
"45 129 LINE"
);
}
);
width = 638;
}
);
unicode = 10F32;
category = Letter;
},
{
glyphname = HeSep;
lastChange = "2019-10-31 19:51:10 +0000";
layers = (
{
anchors = (
{
name = Anchor2;
position = "{482, -59}";
},
{
name = Anchor4;
position = "{467, -60}";
},
{
name = Anchor6;
position = "{517, 442}";
}
);
layerId = UUID0;
paths = (
{
closed = 1;
nodes = (
"878 0 LINE",
"878 76 LINE",
"163 76 LINE",
"160 78 OFFCURVE",
"158 82 OFFCURVE",
"158 87 CURVE SMOOTH",
"158 97 OFFCURVE",
"164 111 OFFCURVE",
"174 131 CURVE SMOOTH",
"185 154 LINE SMOOTH",
"234 257 OFFCURVE",
"264 304 OFFCURVE",
"372 305 CURVE SMOOTH",
"767 309 LINE",
"772 382 LINE",
"383 382 LINE SMOOTH",
"231 382 OFFCURVE",
"178 312 OFFCURVE",
"119 200 CURVE SMOOTH",
"96 156 OFFCURVE",
"72 106 OFFCURVE",
"72 71 CURVE SMOOTH",
"72 36 OFFCURVE",
"89 0 OFFCURVE",
"161 0 CURVE SMOOTH"
);
}
);
width = 948;
}
);
unicode = 10F33;
category = Letter;
},
{
glyphname = WawSep;
lastChange = "2019-10-31 19:51:10 +0000";
layers = (
{
anchors = (
{
name = Anchor2;
position = "{202, -299}";
},
{
name = Anchor4;
position = "{202, -48}";
},
{
name = Anchor6;
position = "{280, 472}";
}
);
layerId = UUID0;
paths = (
{
closed = 1;
nodes = (
"256 -242 LINE",
"335 -130 OFFCURVE",
"383 -51 OFFCURVE",
"419 54 CURVE SMOOTH",
"438 111 OFFCURVE",
"449 158 OFFCURVE",
"449 199 CURVE SMOOTH",
"449 331 OFFCURVE",
"391 410 OFFCURVE",
"274 410 CURVE SMOOTH",
"163 410 OFFCURVE",
"55 298 OFFCURVE",
"55 170 CURVE SMOOTH",
"55 48 OFFCURVE",
"152 2 OFFCURVE",
"308 0 CURVE",
"271 -78 OFFCURVE",
"220 -162 OFFCURVE",
"162 -242 CURVE"
);
},
{
closed = 1;
nodes = (
"136 251 OFFCURVE",
"196 331 OFFCURVE",
"270 331 CURVE SMOOTH",
"350 331 OFFCURVE",
"366 274 OFFCURVE",
"366 208 CURVE SMOOTH",
"366 169 OFFCURVE",
"356 124 OFFCURVE",
"339 76 CURVE",
"240 77 OFFCURVE",
"136 91 OFFCURVE",
"136 182 CURVE SMOOTH"
);
}
);
width = 514;
}
);
unicode = 10F34;
category = Letter;
},
{
glyphname = ZayinSep;
lastChange = "2019-10-31 19:51:10 +0000";
layers = (
{
anchors = (
{
name = Anchor2;
position = "{191, -60}";
},
{
name = Anchor4;
position = "{173, -60}";
},
{
name = Anchor6;
position = "{203, 442}";
}
);
layerId = UUID0;
paths = (
{
closed = 1;
nodes = (
"45 60 OFFCURVE",
"49 0 OFFCURVE",
"162 0 CURVE SMOOTH",
"341 0 LINE",
"357 66 LINE",
"302 143 OFFCURVE",
"246 295 OFFCURVE",
"224 382 CURVE",
"174 382 LINE",
"145 320 OFFCURVE",
"123 273 OFFCURVE",
"90 212 CURVE SMOOTH",
"54 146 OFFCURVE",
"45 112 OFFCURVE",
"45 86 CURVE SMOOTH"
);
},
{
closed = 1;
nodes = (
"126 121 OFFCURVE",
"136 149 OFFCURVE",
"153 181 CURVE SMOOTH",
"164 201 OFFCURVE",
"174 220 OFFCURVE",
"186 245 CURVE",
"190 245 LINE",
"206 179 OFFCURVE",
"243 102 OFFCURVE",
"262 74 CURVE",
"262 69 LINE",
"170 69 LINE SMOOTH",
"132 69 OFFCURVE",
"126 93 OFFCURVE",
"126 107 CURVE SMOOTH"
);
}
);
width = 415;
}
);
unicode = 10F35;
category = Letter;
},
{
glyphname = HethSep;
lastChange = "2019-10-31 19:51:10 +0000";
layers = (
{
anchors = (
{
name = Anchor2;
position = "{514, -70}";
},
{
name = Anchor4;
position = "{489, -60}";
},
{
name = Anchor6;
position = "{518, 442}";
}
);
layerId = UUID0;
paths = (
{
closed = 1;
nodes = (
"365 138 LINE",
"383 57 OFFCURVE",
"421 -10 OFFCURVE",
"511 -10 CURVE SMOOTH",
"599 -10 OFFCURVE",
"652 49 OFFCURVE",
"670 118 CURVE SMOOTH",
"684 172 OFFCURVE",
"691 240 OFFCURVE",
"691 307 CURVE SMOOTH",
"691 333 OFFCURVE",
"690 358 OFFCURVE",
"689 382 CURVE",
"623 382 LINE",
"608 271 LINE SMOOTH",
"590 135 OFFCURVE",
"574 65 OFFCURVE",
"520 65 CURVE SMOOTH",
"466 65 OFFCURVE",
"441 136 OFFCURVE",
"413 289 CURVE SMOOTH",
"396 382 LINE",
"338 382 LINE",
"315 194 OFFCURVE",
"296 76 OFFCURVE",
"230 76 CURVE SMOOTH",
"172 76 OFFCURVE",
"169 139 OFFCURVE",
"164 262 CURVE SMOOTH",
"162 309 OFFCURVE",
"162 529 OFFCURVE",
"162 674 CURVE",
"89 674 LINE",
"85 564 OFFCURVE",
"80 373 OFFCURVE",
"80 246 CURVE SMOOTH",
"80 74 OFFCURVE",
"114 0 OFFCURVE",
"217 0 CURVE SMOOTH",
"277 0 OFFCURVE",
"340 35 OFFCURVE",
"361 138 CURVE"
);
}
);
width = 766;
}
);
unicode = 10F36;
category = Letter;
},
{
glyphname = YodhSep;
lastChange = "2019-10-31 19:51:10 +0000";
layers = (
{
anchors = (
{
name = Anchor2;
position = "{214, -60}";
},
{
name = Anchor4;
position = "{169, -60}";
},
{
name = Anchor6;
position = "{259, 497}";
}
);
layerId = UUID0;
paths = (
{
closed = 1;
nodes = (
"136 0 LINE SMOOTH",
"248 0 OFFCURVE",
"291 24 OFFCURVE",
"321 52 CURVE SMOOTH",
"346 76 OFFCURVE",
"358 111 OFFCURVE",
"358 141 CURVE SMOOTH",
"358 163 OFFCURVE",
"357 179 OFFCURVE",
"348 203 CURVE SMOOTH",
"323 266 OFFCURVE",
"297 301 OFFCURVE",
"253 357 CURVE",
"269 373 OFFCURVE",
"292 394 OFFCURVE",
"308 407 CURVE",
"262 459 LINE",
"232 435 OFFCURVE",
"187 399 OFFCURVE",
"169 382 CURVE",
"167 334 LINE",
"216 282 OFFCURVE",
"273 199 OFFCURVE",
"273 153 CURVE SMOOTH",
"273 83 OFFCURVE",
"214 76 OFFCURVE",
"141 76 CURVE SMOOTH",
"70 76 LINE",
"70 0 LINE"
);
}
);
width = 418;
}
);
unicode = 10F37;
category = Letter;
},
{
glyphname = KaphSep;
lastChange = "2019-10-31 19:51:10 +0000";
layers = (
{
anchors = (
{
name = Anchor2;
position = "{329, -167}";
},
{
name = Anchor4;
position = "{296, -167}";
},
{
name = Anchor6;
position = "{475, 442}";
}
);
layerId = UUID0;
paths = (
{
closed = 1;
nodes = (
"243 -24 OFFCURVE",
"168 11 OFFCURVE",
"164 235 CURVE SMOOTH",
"163 282 OFFCURVE",
"162 529 OFFCURVE",
"162 674 CURVE",
"89 674 LINE",
"85 564 OFFCURVE",
"80 349 OFFCURVE",
"80 222 CURVE SMOOTH",
"80 -69 OFFCURVE",
"210 -107 OFFCURVE",
"330 -107 CURVE SMOOTH",
"479 -107 OFFCURVE",
"557 11 OFFCURVE",
"608 136 CURVE SMOOTH",
"646 229 OFFCURVE",
"658 326 OFFCURVE",
"662 382 CURVE",
"586 382 LINE",
"579 324 OFFCURVE",
"566 258 OFFCURVE",
"544 195 CURVE",
"417 229 OFFCURVE",
"368 306 OFFCURVE",
"353 389 CURVE",
"285 377 LINE",
"284 370 OFFCURVE",
"284 368 OFFCURVE",
"284 361 CURVE SMOOTH",
"284 304 OFFCURVE",
"310 249 OFFCURVE",
"352 209 CURVE SMOOTH",
"388 174 OFFCURVE",
"435 142 OFFCURVE",
"513 120 CURVE",
"474 39 OFFCURVE",
"418 -24 OFFCURVE",
"333 -24 CURVE SMOOTH"
);
}
);
width = 712;
}
);
unicode = 10F38;
category = Letter;
},
{
glyphname = LamedhSep;
lastChange = "2019-10-31 19:51:10 +0000";
layers = (
{
anchors = (
{
name = Anchor2;
position = "{230, -60}";
},
{
name = Anchor4;
position = "{207, -60}";
},
{
name = Anchor6;
position = "{150, 754}";
}
);
layerId = UUID0;
paths = (
{
closed = 1;
nodes = (
"246 0 LINE SMOOTH",
"346 0 OFFCURVE",
"468 8 OFFCURVE",
"468 123 CURVE SMOOTH",
"468 145 OFFCURVE",
"460 172 OFFCURVE",
"444 204 CURVE SMOOTH",
"377 334 OFFCURVE",
"255 566 OFFCURVE",
"180 715 CURVE",
"107 679 LINE",
"165 564 OFFCURVE",
"296 305 OFFCURVE",
"363 174 CURVE SMOOTH",
"369 162 OFFCURVE",
"378 140 OFFCURVE",
"378 121 CURVE SMOOTH",
"378 101 OFFCURVE",
"366 76 OFFCURVE",
"274 76 CURVE SMOOTH",
"50 76 LINE",
"50 0 LINE"
);
}
);
width = 518;
}
);
unicode = 10F39;
category = Letter;
},
{
glyphname = MemSep;
lastChange = "2019-10-31 19:51:10 +0000";
layers = (
{
anchors = (
{
name = Anchor2;
position = "{257, -89}";
},
{
name = Anchor4;
position = "{235, -89}";
},
{
name = Anchor6;
position = "{268, 465}";
}
);
layerId = UUID0;
paths = (
{
closed = 1;
nodes = (
"234 401 LINE",
"279 311 LINE",
"85 245 LINE",
"85 172 LINE",
"309 250 LINE",
"363 140 OFFCURVE",
"370 123 OFFCURVE",
"370 90 CURVE SMOOTH",
"370 52 OFFCURVE",
"333 47 OFFCURVE",
"275 47 CURVE SMOOTH",
"237 47 LINE SMOOTH",
"194 47 OFFCURVE",
"150 49 OFFCURVE",
"150 87 CURVE SMOOTH",
"150 92 LINE",
"82 92 LINE",
"81 86 OFFCURVE",
"81 80 OFFCURVE",
"81 75 CURVE SMOOTH",
"81 -24 OFFCURVE",
"190 -26 OFFCURVE",
"246 -26 CURVE SMOOTH",
"308 -26 OFFCURVE",
"369 -23 OFFCURVE",
"407 2 CURVE SMOOTH",
"433 19 OFFCURVE",
"452 49 OFFCURVE",
"452 86 CURVE SMOOTH",
"452 136 OFFCURVE",
"431 183 OFFCURVE",
"404 238 CURVE SMOOTH",
"385 276 LINE",
"499 316 LINE",
"476 379 LINE",
"354 337 LINE",
"338 368 OFFCURVE",
"320 400 OFFCURVE",
"305 426 CURVE"
);
}
);
width = 563;
}
);
unicode = 10F3A;
category = Letter;
},
{
glyphname = NunSep;
lastChange = "2019-10-31 19:51:10 +0000";
layers = (
{
anchors = (
{
name = Anchor2;
position = "{383, -60}";
},
{
name = Anchor4;
position = "{362, -60}";
},
{
name = Anchor6;
position = "{406, 442}";
}
);
layerId = UUID0;
paths = (
{
closed = 1;
nodes = (
"380 163 OFFCURVE",
"393 192 OFFCURVE",
"405 229 CURVE",
"409 229 LINE SMOOTH",
"417 208 OFFCURVE",
"426 188 OFFCURVE",
"434 171 CURVE SMOOTH",
"448 141 OFFCURVE",
"457 118 OFFCURVE",
"457 105 CURVE SMOOTH",
"457 90 OFFCURVE",
"449 76 OFFCURVE",
"412 76 CURVE SMOOTH",
"381 76 LINE",
"367 0 LINE",
"414 0 LINE SMOOTH",
"478 0 OFFCURVE",
"535 29 OFFCURVE",
"535 96 CURVE SMOOTH",
"535 124 OFFCURVE",
"530 142 OFFCURVE",
"501 204 CURVE SMOOTH",
"473 264 OFFCURVE",
"450 322 OFFCURVE",
"428 382 CURVE",
"376 382 LINE",
"352 294 OFFCURVE",
"325 209 OFFCURVE",
"287 140 CURVE SMOOTH",
"262 94 OFFCURVE",
"248 76 OFFCURVE",
"221 76 CURVE SMOOTH",
"178 76 OFFCURVE",
"169 107 OFFCURVE",
"164 192 CURVE SMOOTH",
"161 239 OFFCURVE",
"162 529 OFFCURVE",
"162 674 CURVE",
"89 674 LINE",
"85 564 OFFCURVE",
"80 323 OFFCURVE",
"80 196 CURVE SMOOTH",
"80 74 OFFCURVE",
"100 0 OFFCURVE",
"203 0 CURVE SMOOTH",
"292 0 OFFCURVE",
"329 59 OFFCURVE",
"363 129 CURVE SMOOTH"
);
}
);
width = 585;
}
);
unicode = 10F3B;
category = Letter;
},
{
glyphname = SamekhSep;
lastChange = "2019-10-31 19:51:10 +0000";
layers = (
{
anchors = (
{
name = Anchor2;
position = "{397, -236}";
},
{
name = Anchor4;
position = "{235, -203}";
},
{
name = Anchor6;
position = "{389, 443}";
}
);
layerId = UUID0;
paths = (
{
closed = 1;
nodes = (
"76 65 LINE",
"85 65 LINE",
"212 255 LINE",
"219 188 OFFCURVE",
"230 125 OFFCURVE",
"250 83 CURVE SMOOTH",
"272 37 OFFCURVE",
"302 -10 OFFCURVE",
"383 -10 CURVE SMOOTH",
"454 -10 OFFCURVE",
"494 38 OFFCURVE",
"512 93 CURVE",
"515 93 LINE",
"516 81 OFFCURVE",
"516 72 OFFCURVE",
"516 62 CURVE SMOOTH",
"516 -58 OFFCURVE",
"470 -101 OFFCURVE",
"338 -101 CURVE SMOOTH",
"303 -101 OFFCURVE",
"266 -97 OFFCURVE",
"215 -88 CURVE",
"215 -163 LINE",
"259 -176 OFFCURVE",
"300 -177 OFFCURVE",
"339 -177 CURVE SMOOTH",
"443 -177 OFFCURVE",
"521 -154 OFFCURVE",
"561 -92 CURVE SMOOTH",
"583 -58 OFFCURVE",
"590 -13 OFFCURVE",
"590 42 CURVE SMOOTH",
"590 109 OFFCURVE",
"570 274 OFFCURVE",
"556 382 CURVE",
"495 382 LINE",
"485 271 LINE SMOOTH",
"473 135 OFFCURVE",
"446 65 OFFCURVE",
"392 65 CURVE SMOOTH",
"338 65 OFFCURVE",
"311 136 OFFCURVE",
"285 289 CURVE SMOOTH",
"269 382 LINE",
"210 382 LINE",
"40 129 LINE"
);
}
);
width = 665;
}
);
unicode = 10F3C;
category = Letter;
},
{
glyphname = AyinSep;
lastChange = "2019-10-31 19:51:10 +0000";
layers = (
{
anchors = (
{
name = Anchor2;
position = "{428, -205}";
},
{
name = Anchor4;
position = "{399, -206}";
},
{
name = Anchor6;
position = "{463, 622}";
}
);
layerId = UUID0;
paths = (
{
closed = 1;
nodes = (
"1005 240 LINE",
"1061 240 OFFCURVE",
"1100 212 OFFCURVE",
"1100 162 CURVE SMOOTH",
"1100 124 OFFCURVE",
"1079 73 OFFCURVE",
"1018 73 CURVE SMOOTH",
"950 73 OFFCURVE",
"928 132 OFFCURVE",
"900 207 CURVE SMOOTH",
"809 449 OFFCURVE",
"686 561 OFFCURVE",
"463 561 CURVE SMOOTH",
"225 561 OFFCURVE",
"80 375 OFFCURVE",
"80 188 CURVE SMOOTH",
"80 -11 OFFCURVE",
"193 -144 OFFCURVE",
"429 -144 CURVE SMOOTH",
"658 -144 OFFCURVE",
"753 27 OFFCURVE",
"753 149 CURVE SMOOTH",
"753 321 OFFCURVE",
"612 421 OFFCURVE",
"461 421 CURVE SMOOTH",
"309 421 OFFCURVE",
"219 294 OFFCURVE",
"219 188 CURVE SMOOTH",
"219 81 OFFCURVE",
"275 -7 OFFCURVE",
"432 -7 CURVE SMOOTH",
"562 -7 OFFCURVE",
"614 85 OFFCURVE",
"614 150 CURVE SMOOTH",
"614 233 OFFCURVE",
"553 282 OFFCURVE",
"465 282 CURVE SMOOTH",
"430 282 OFFCURVE",
"350 248 OFFCURVE",
"348 170 CURVE",
"419 170 LINE",
"419 198 OFFCURVE",
"452 215 OFFCURVE",
"472 215 CURVE SMOOTH",
"520 215 OFFCURVE",
"544 194 OFFCURVE",
"544 150 CURVE SMOOTH",
"544 117 OFFCURVE",
"517 62 OFFCURVE",
"441 62 CURVE SMOOTH",
"328 62 OFFCURVE",
"291 119 OFFCURVE",
"291 188 CURVE SMOOTH",
"291 258 OFFCURVE",
"353 347 OFFCURVE",
"461 347 CURVE SMOOTH",
"576 347 OFFCURVE",
"679 275 OFFCURVE",
"679 149 CURVE SMOOTH",
"679 48 OFFCURVE",
"604 -70 OFFCURVE",
"429 -70 CURVE SMOOTH",
"235 -70 OFFCURVE",
"155 37 OFFCURVE",
"155 188 CURVE SMOOTH",
"155 337 OFFCURVE",
"269 487 OFFCURVE",
"463 487 CURVE SMOOTH",
"658 487 OFFCURVE",
"763 385 OFFCURVE",
"833 167 CURVE SMOOTH",
"864 71 OFFCURVE",
"906 0 OFFCURVE",
"1019 0 CURVE SMOOTH",
"1141 0 OFFCURVE",
"1178 103 OFFCURVE",
"1178 165 CURVE SMOOTH",
"1178 260 OFFCURVE",
"1101 313 OFFCURVE",
"1005 313 CURVE"
);
}
);
width = 1218;
}
);
unicode = 10F3D;
category = Letter;
},
{
glyphname = PeSep;
lastChange = "2019-10-31 19:51:10 +0000";
layers = (
{
anchors = (
{
name = Anchor2;
position = "{351, -238}";
},
{
name = Anchor4;
position = "{325, -237}";
},
{
name = Anchor6;
position = "{521, 473}";
}
);
layerId = UUID0;
paths = (
{
closed = 1;
nodes = (
"679 108 OFFCURVE",
"687 156 OFFCURVE",
"687 197 CURVE SMOOTH",
"687 331 OFFCURVE",
"634 410 OFFCURVE",
"522 410 CURVE SMOOTH",
"415 410 OFFCURVE",
"313 302 OFFCURVE",
"313 192 CURVE SMOOTH",
"313 101 OFFCURVE",
"356 52 OFFCURVE",
"440 25 CURVE SMOOTH",
"469 16 OFFCURVE",
"506 8 OFFCURVE",
"547 4 CURVE",
"508 -51 OFFCURVE",
"449 -91 OFFCURVE",
"367 -91 CURVE SMOOTH",
"251 -91 OFFCURVE",
"170 -40 OFFCURVE",
"164 231 CURVE SMOOTH",
"163 278 OFFCURVE",
"162 529 OFFCURVE",
"162 674 CURVE",
"89 674 LINE",
"85 564 OFFCURVE",
"80 343 OFFCURVE",
"80 216 CURVE SMOOTH",
"80 -88 OFFCURVE",
"187 -177 OFFCURVE",
"351 -177 CURVE SMOOTH",
"513 -177 OFFCURVE",
"612 -69 OFFCURVE",
"658 53 CURVE SMOOTH"
);
},
{
closed = 1;
nodes = (
"394 264 OFFCURVE",
"455 330 OFFCURVE",
"518 330 CURVE SMOOTH",
"595 330 OFFCURVE",
"608 272 OFFCURVE",
"608 206 CURVE SMOOTH",
"608 166 OFFCURVE",
"600 120 OFFCURVE",
"584 76 CURVE",
"472 84 OFFCURVE",
"394 106 OFFCURVE",
"394 202 CURVE SMOOTH"
);
}
);
width = 742;
}
);
unicode = 10F3E;
category = Letter;
},
{
glyphname = SadheSep;
lastChange = "2019-10-31 19:51:10 +0000";
layers = (
{
anchors = (
{
name = Anchor2;
position = "{405, -60}";
},
{
name = Anchor4;
position = "{281, -60}";
},
{
name = Anchor6;
position = "{482, 442}";
}
);
layerId = UUID0;
paths = (
{
closed = 1;
nodes = (
"538 304 OFFCURVE",
"606 308 OFFCURVE",
"651 320 CURVE",
"642 390 LINE",
"637 390 LINE",
"598 380 OFFCURVE",
"547 376 OFFCURVE",
"490 376 CURVE SMOOTH",
"429 376 OFFCURVE",
"384 382 OFFCURVE",
"347 382 CURVE SMOOTH",
"324 382 OFFCURVE",
"308 367 OFFCURVE",
"308 344 CURVE SMOOTH",
"308 337 OFFCURVE",
"308 330 OFFCURVE",
"309 316 CURVE SMOOTH",
"312 262 OFFCURVE",
"317 229 OFFCURVE",
"317 177 CURVE SMOOTH",
"317 112 OFFCURVE",
"297 76 OFFCURVE",
"245 76 CURVE SMOOTH",
"208 76 OFFCURVE",
"166 91 OFFCURVE",
"164 182 CURVE SMOOTH",
"163 229 OFFCURVE",
"162 529 OFFCURVE",
"162 674 CURVE",
"89 674 LINE",
"85 564 OFFCURVE",
"80 316 OFFCURVE",
"80 189 CURVE SMOOTH",
"80 35 OFFCURVE",
"156 0 OFFCURVE",
"269 0 CURVE SMOOTH",
"675 0 LINE",
"675 76 LINE",
"372 76 LINE",
"390 99 OFFCURVE",
"397 134 OFFCURVE",
"397 180 CURVE SMOOTH",
"397 209 OFFCURVE",
"392 259 OFFCURVE",
"385 308 CURVE",
"417 305 OFFCURVE",
"453 304 OFFCURVE",
"475 304 CURVE SMOOTH"
);
}
);
width = 745;
}
);
unicode = 10F3F;
category = Letter;
},
{
glyphname = ReshSep;
lastChange = "2019-10-31 19:51:10 +0000";
layers = (
{
anchors = (
{
name = Anchor2;
position = "{246, -116}";
},
{
name = Anchor4;
position = "{80, -126}";
},
{
name = Anchor6;
position = "{252, 444}";
}
);
layerId = UUID0;
paths = (
{
closed = 1;
nodes = (
"60 -93 LINE",
"209 -43 OFFCURVE",
"337 42 OFFCURVE",
"396 199 CURVE SMOOTH",
"413 245 OFFCURVE",
"430 305 OFFCURVE",
"430 382 CURVE",
"354 382 LINE",
"348 316 OFFCURVE",
"338 267 OFFCURVE",
"320 223 CURVE",
"201 253 OFFCURVE",
"153 324 OFFCURVE",
"138 390 CURVE",
"136 390 LINE",
"74 369 LINE",
"74 359 LINE SMOOTH",
"74 299 OFFCURVE",
"105 255 OFFCURVE",
"137 228 CURVE SMOOTH",
"164 205 OFFCURVE",
"212 172 OFFCURVE",
"283 150 CURVE",
"239 87 OFFCURVE",
"166 31 OFFCURVE",
"60 -11 CURVE"
);
}
);
width = 480;
}
);
unicode = 10F40;
category = Letter;
},
{
glyphname = ShinSep;
lastChange = "2019-10-31 19:51:10 +0000";
layers = (
{
anchors = (
{
name = Anchor2;
position = "{428, -50}";
},
{
name = Anchor4;
position = "{202, -86}";
},
{
name = Anchor6;
position = "{496, 402}";
}
);
layerId = UUID0;
paths = (
{
closed = 1;
nodes = (
"229 363 OFFCURVE",
"178 323 OFFCURVE",
"100 260 CURVE SMOOTH",
"40 211 LINE",
"52 137 LINE",
"54 137 LINE",
"172 224 LINE SMOOTH",
"234 270 OFFCURVE",
"256 284 OFFCURVE",
"283 284 CURVE SMOOTH",
"312 284 OFFCURVE",
"333 254 OFFCURVE",
"333 213 CURVE SMOOTH",
"333 165 OFFCURVE",
"313 129 OFFCURVE",
"272 88 CURVE",
"242 69 OFFCURVE",
"212 50 OFFCURVE",
"182 29 CURVE",
"221 -30 LINE",
"416 99 OFFCURVE",
"564 175 OFFCURVE",
"762 264 CURVE",
"752 284 OFFCURVE",
"738 312 OFFCURVE",
"726 331 CURVE",
"621 287 OFFCURVE",
"513 233 OFFCURVE",
"397 166 CURVE",
"406 190 OFFCURVE",
"409 211 OFFCURVE",
"409 233 CURVE SMOOTH",
"409 312 OFFCURVE",
"351 363 OFFCURVE",
"294 363 CURVE SMOOTH"
);
}
);
width = 802;
}
);
unicode = 10F41;
category = Letter;
},
{
glyphname = TawSep;
lastChange = "2019-10-31 19:51:10 +0000";
layers = (
{
anchors = (
{
name = Anchor2;
position = "{474, -269}";
},
{
name = Anchor4;
position = "{444, -269}";
},
{
name = Anchor6;
position = "{508, 360}";
}
);
layerId = UUID0;
paths = (
{
closed = 1;
nodes = (
"721 122 OFFCURVE",
"656 153 OFFCURVE",
"591 153 CURVE SMOOTH",
"536 153 OFFCURVE",
"462 118 OFFCURVE",
"384 97 CURVE",
"384 304 LINE",
"313 304 LINE",
"309 233 OFFCURVE",
"304 109 OFFCURVE",
"304 81 CURVE",
"282 77 OFFCURVE",
"264 76 OFFCURVE",
"252 76 CURVE SMOOTH",
"179 76 OFFCURVE",
"168 121 OFFCURVE",
"164 211 CURVE SMOOTH",
"162 258 OFFCURVE",
"162 529 OFFCURVE",
"162 674 CURVE",
"89 674 LINE",
"85 564 OFFCURVE",
"80 370 OFFCURVE",
"80 243 CURVE SMOOTH",
"80 141 OFFCURVE",
"90 96 OFFCURVE",
"110 63 CURVE SMOOTH",
"136 21 OFFCURVE",
"177 0 OFFCURVE",
"235 0 CURVE SMOOTH",
"254 0 OFFCURVE",
"276 2 OFFCURVE",
"301 7 CURVE",
"301 -28 LINE SMOOTH",
"301 -195 OFFCURVE",
"407 -209 OFFCURVE",
"473 -209 CURVE SMOOTH",
"605 -209 OFFCURVE",
"721 -91 OFFCURVE",
"721 39 CURVE SMOOTH"
);
},
{
closed = 1;
nodes = (
"615 79 OFFCURVE",
"640 60 OFFCURVE",
"640 31 CURVE SMOOTH",
"640 -46 OFFCURVE",
"561 -134 OFFCURVE",
"473 -134 CURVE SMOOTH",
"430 -134 OFFCURVE",
"381 -122 OFFCURVE",
"381 -21 CURVE SMOOTH",
"381 22 LINE",
"465 44 OFFCURVE",
"542 79 OFFCURVE",
"582 79 CURVE SMOOTH"
);
}
);
width = 762;
}
);
unicode = 10F42;
category = Letter;
},
{
glyphname = FethSep;
lastChange = "2019-10-31 19:51:10 +0000";
layers = (
{
anchors = (
{
name = Anchor2;
position = "{417, -60}";
},
{
name = Anchor4;
position = "{407, -60}";
},
{
name = Anchor6;
position = "{549, 443}";
}
);
layerId = UUID0;
paths = (
{
closed = 1;
nodes = (
"450 222 OFFCURVE",
"499 229 OFFCURVE",
"538 301 CURVE",
"573 228 OFFCURVE",
"622 222 OFFCURVE",
"654 222 CURVE SMOOTH",
"686 222 OFFCURVE",
"718 237 OFFCURVE",
"736 275 CURVE",
"741 254 OFFCURVE",
"746 202 OFFCURVE",
"746 186 CURVE SMOOTH",
"746 113 OFFCURVE",
"735 76 OFFCURVE",
"653 76 CURVE SMOOTH",
"50 76 LINE",
"50 0 LINE",
"650 0 LINE SMOOTH",
"777 0 OFFCURVE",
"825 59 OFFCURVE",
"825 168 CURVE SMOOTH",
"825 225 OFFCURVE",
"811 308 OFFCURVE",
"794 382 CURVE",
"732 382 LINE",
"719 313 OFFCURVE",
"691 293 OFFCURVE",
"660 293 CURVE SMOOTH",
"625 293 OFFCURVE",
"593 320 OFFCURVE",
"575 382 CURVE",
"513 382 LINE",
"492 329 OFFCURVE",
"463 293 OFFCURVE",
"428 293 CURVE SMOOTH",
"397 293 OFFCURVE",
"370 317 OFFCURVE",
"355 390 CURVE",
"286 376 LINE",
"299 249 OFFCURVE",
"365 222 OFFCURVE",
"418 222 CURVE SMOOTH"
);
}
);
width = 901;
}
);
unicode = 10F43;
category = Letter;
},
{
glyphname = LeshSep;
lastChange = "2019-10-31 19:51:10 +0000";
layers = (
{
anchors = (
{
name = Anchor2;
position = "{213, -188}";
},
{
name = Anchor4;
position = "{355, -180}";
},
{
name = Anchor6;
position = "{243, 442}";
}
);
layerId = UUID0;
paths = (
{
closed = 1;
nodes = (
"376 -152 LINE",
"384 -69 LINE",
"198 -20 LINE",
"281 31 OFFCURVE",
"346 97 OFFCURVE",
"386 199 CURVE SMOOTH",
"404 245 OFFCURVE",
"420 305 OFFCURVE",
"420 382 CURVE",
"344 382 LINE",
"338 316 OFFCURVE",
"328 267 OFFCURVE",
"310 223 CURVE",
"191 253 OFFCURVE",
"143 324 OFFCURVE",
"128 390 CURVE",
"126 390 LINE",
"64 363 LINE",
"63 360 OFFCURVE",
"63 351 OFFCURVE",
"63 350 CURVE SMOOTH",
"63 313 OFFCURVE",
"96 256 OFFCURVE",
"127 228 CURVE SMOOTH",
"154 204 OFFCURVE",
"202 171 OFFCURVE",
"273 150 CURVE",
"231 87 OFFCURVE",
"163 33 OFFCURVE",
"60 -11 CURVE",
"60 -76 LINE"
);
}
);
width = 470;
}
);
unicode = 10F44;
category = Letter;
},
{
glyphname = IndShin;
lastChange = "2019-10-31 19:51:10 +0000";
layers = (
{
anchors = (
{
name = Anchor2;
position = "{697, -59}";
},
{
name = Anchor4;
position = "{431, -119}";
},
{
name = Anchor6;
position = "{714, 416}";
}
);
layerId = UUID0;
paths = (
{
closed = 1;
nodes = (
"336 48 OFFCURVE",
"364 79 OFFCURVE",
"401 126 CURVE SMOOTH",
"427 160 OFFCURVE",
"449 188 OFFCURVE",
"468 211 CURVE SMOOTH",
"508 260 OFFCURVE",
"535 284 OFFCURVE",
"564 284 CURVE SMOOTH",
"593 284 OFFCURVE",
"614 257 OFFCURVE",
"614 223 CURVE SMOOTH",
"614 174 OFFCURVE",
"593 132 OFFCURVE",
"549 86 CURVE",
"502 57 OFFCURVE",
"456 27 OFFCURVE",
"411 -4 CURVE",
"450 -63 LINE",
"645 66 OFFCURVE",
"845 175 OFFCURVE",
"1043 264 CURVE",
"1033 284 OFFCURVE",
"1019 312 OFFCURVE",
"1007 331 CURVE",
"911 290 OFFCURVE",
"794 231 OFFCURVE",
"674 161 CURVE",
"687 191 OFFCURVE",
"690 218 OFFCURVE",
"690 243 CURVE SMOOTH",
"690 320 OFFCURVE",
"629 363 OFFCURVE",
"575 363 CURVE SMOOTH",
"508 363 OFFCURVE",
"454 317 OFFCURVE",
"396 240 CURVE SMOOTH",
"378 216 OFFCURVE",
"358 190 OFFCURVE",
"336 163 CURVE SMOOTH",
"266 80 OFFCURVE",
"254 76 OFFCURVE",
"226 76 CURVE SMOOTH",
"159 76 OFFCURVE",
"168 167 OFFCURVE",
"164 276 CURVE SMOOTH",
"162 323 OFFCURVE",
"162 529 OFFCURVE",
"162 674 CURVE",
"88 674 LINE",
"85 564 OFFCURVE",
"80 291 OFFCURVE",
"80 230 CURVE SMOOTH",
"80 89 OFFCURVE",
"101 0 OFFCURVE",
"218 0 CURVE SMOOTH",
"257 0 OFFCURVE",
"286 11 OFFCURVE",
"310 29 CURVE SMOOTH"
);
}
);
width = 1083;
}
);
unicode = 10F45;
category = Letter;
},
{
glyphname = dotbelowSogd;
lastChange = "2019-10-31 19:51:10 +0000";
layers = (
{
anchors = (
{
name = _Anchor2;
position = "{0, 0}";
}
);
layerId = UUID0;
paths = (
{
closed = 1;
nodes = (
"-43 -90 OFFCURVE",
"-26 -103 OFFCURVE",
"0 -103 CURVE SMOOTH",
"28 -103 OFFCURVE",
"44 -86 OFFCURVE",
"44 -55 CURVE SMOOTH",
"44 -24 OFFCURVE",
"28 -8 OFFCURVE",
"0 -8 CURVE SMOOTH",
"-27 -8 OFFCURVE",
"-43 -24 OFFCURVE",
"-43 -55 CURVE SMOOTH"
);
}
);
width = 0;
}
);
unicode = 10F46;
category = Mark;
subCategory = Nonspacing;
},
{
glyphname = twodotsbelowSogd;
lastChange = "2019-10-31 19:51:10 +0000";
layers = (
{
anchors = (
{
name = _Anchor2;
position = "{0, 0}";
}
);
layerId = UUID0;
paths = (
{
closed = 1;
nodes = (
"-114 -90 OFFCURVE",
"-97 -103 OFFCURVE",
"-71 -103 CURVE SMOOTH",
"-43 -103 OFFCURVE",
"-27 -86 OFFCURVE",
"-27 -55 CURVE SMOOTH",
"-27 -24 OFFCURVE",
"-43 -8 OFFCURVE",
"-71 -8 CURVE SMOOTH",
"-98 -8 OFFCURVE",
"-114 -24 OFFCURVE",
"-114 -55 CURVE SMOOTH"
);
},
{
closed = 1;
nodes = (
"25 -90 OFFCURVE",
"42 -103 OFFCURVE",
"67 -103 CURVE SMOOTH",
"96 -103 OFFCURVE",
"112 -86 OFFCURVE",
"112 -55 CURVE SMOOTH",
"112 -24 OFFCURVE",
"96 -8 OFFCURVE",
"67 -8 CURVE SMOOTH",
"41 -8 OFFCURVE",
"25 -24 OFFCURVE",
"25 -55 CURVE SMOOTH"
);
}
);
width = 0;
}
);
unicode = 10F47;
category = Mark;
subCategory = Nonspacing;
},
{
glyphname = dotaboveSogd;
lastChange = "2019-10-31 19:51:10 +0000";
layers = (
{
anchors = (
{
name = _Anchor6;
position = "{0, 542}";
}
);
layerId = UUID0;
paths = (
{
closed = 1;
nodes = (
"44 632 OFFCURVE",
"27 645 OFFCURVE",
"2 645 CURVE SMOOTH",
"-27 645 OFFCURVE",
"-43 628 OFFCURVE",
"-43 597 CURVE SMOOTH",
"-43 566 OFFCURVE",
"-27 550 OFFCURVE",
"2 550 CURVE SMOOTH",
"28 550 OFFCURVE",
"44 566 OFFCURVE",
"44 597 CURVE SMOOTH"
);
}
);
width = 0;
}
);
unicode = 10F48;
category = Mark;
subCategory = Nonspacing;
},
{
glyphname = twodotsaboveSogd;
lastChange = "2019-10-31 19:51:10 +0000";
layers = (
{
anchors = (
{
name = _Anchor6;
position = "{0, 542}";
}
);
layerId = UUID0;
paths = (
{
closed = 1;
nodes = (
"112 632 OFFCURVE",
"95 645 OFFCURVE",
"69 645 CURVE SMOOTH",
"41 645 OFFCURVE",
"25 628 OFFCURVE",
"25 597 CURVE SMOOTH",
"25 566 OFFCURVE",
"41 550 OFFCURVE",
"69 550 CURVE SMOOTH",
"96 550 OFFCURVE",
"112 566 OFFCURVE",
"112 597 CURVE SMOOTH"
);
},
{
closed = 1;
nodes = (
"-27 632 OFFCURVE",
"-44 645 OFFCURVE",
"-69 645 CURVE SMOOTH",
"-98 645 OFFCURVE",
"-114 628 OFFCURVE",
"-114 597 CURVE SMOOTH",
"-114 566 OFFCURVE",
"-98 550 OFFCURVE",
"-69 550 CURVE SMOOTH",
"-43 550 OFFCURVE",
"-27 566 OFFCURVE",
"-27 597 CURVE SMOOTH"
);
}
);
width = 0;
}
);
unicode = 10F49;
category = Mark;
subCategory = Nonspacing;
},
{
glyphname = curveaboveSogd;
lastChange = "2019-10-31 19:51:10 +0000";
layers = (
{
anchors = (
{
name = _Anchor6;
position = "{0, 542}";
}
);
layerId = UUID0;
paths = (
{
closed = 1;
nodes = (
"149 559 LINE",
"130 614 OFFCURVE",
"82 653 OFFCURVE",
"10 653 CURVE SMOOTH",
"-63 653 OFFCURVE",
"-121 615 OFFCURVE",
"-146 556 CURVE",
"-106 543 LINE",
"-83 580 OFFCURVE",
"-47 602 OFFCURVE",
"6 602 CURVE SMOOTH",
"65 602 OFFCURVE",
"86 571 OFFCURVE",
"103 539 CURVE"
);
}
);
width = 0;
}
);
unicode = 10F4A;
category = Mark;
subCategory = Nonspacing;
},
{
glyphname = curvebelowSogd;
lastChange = "2019-10-31 19:51:10 +0000";
layers = (
{
anchors = (
{
name = _Anchor2;
position = "{0, 0}";
}
);
layerId = UUID0;
paths = (
{
closed = 1;
nodes = (
"-128 -25 LINE",
"-111 -74 OFFCURVE",
"-68 -109 OFFCURVE",
"-3 -109 CURVE SMOOTH",
"63 -109 OFFCURVE",
"115 -75 OFFCURVE",
"137 -22 CURVE",
"101 -5 LINE",
"81 -39 OFFCURVE",
"48 -58 OFFCURVE",
"0 -58 CURVE SMOOTH",
"-53 -58 OFFCURVE",
"-72 -31 OFFCURVE",
"-87 -2 CURVE"
);
}
);
width = 0;
}
);
unicode = 10F4B;
category = Mark;
subCategory = Nonspacing;
},
{
glyphname = hookaboveSogd;
lastChange = "2019-10-31 19:51:10 +0000";
layers = (
{
anchors = (
{
name = _Anchor6;
position = "{0, 542}";
}
);
layerId = UUID0;
paths = (
{
closed = 1;
nodes = (
"-80 557 LINE",
"53 605 LINE",
"57 532 LINE",
"100 532 LINE",
"100 660 LINE",
"66 660 LINE",
"-95 599 LINE"
);
}
);
width = 0;
}
);
unicode = 10F4C;
category = Mark;
subCategory = Nonspacing;
},
{
glyphname = hookbelowSogd;
lastChange = "2019-10-31 19:51:10 +0000";
layers = (
{
anchors = (
{
name = _Anchor2;
position = "{0, 0}";
}
);
layerId = UUID0;
paths = (
{
closed = 1;
nodes = (
"-74 0 LINE",
"-98 -123 LINE",
"-98 -128 LINE",
"70 -128 LINE",
"70 -82 LINE",
"-48 -82 LINE",
"-34 0 LINE"
);
}
);
width = 0;
}
);
unicode = 10F4D;
category = Mark;
subCategory = Nonspacing;
},
{
glyphname = longhookbelowSogd;
lastChange = "2019-10-31 19:51:10 +0000";
layers = (
{
anchors = (
{
name = _Anchor2;
position = "{0, 0}";
}
);
layerId = UUID0;
paths = (
{
closed = 1;
nodes = (
"-102 0 LINE",
"-126 -123 LINE",
"-126 -128 LINE",
"117 -128 LINE",
"117 -82 LINE",
"-76 -82 LINE",
"-62 0 LINE"
);
}
);
width = 0;
}
);
unicode = 10F4E;
category = Mark;
subCategory = Nonspacing;
},
{
glyphname = reshbelowSogd;
lastChange = "2019-10-31 19:51:10 +0000";
layers = (
{
anchors = (
{
name = _Anchor2;
position = "{0, 0}";
}
);
layerId = UUID0;
paths = (
{
closed = 1;
nodes = (
"-76 -187 LINE",
"-16 -167 OFFCURVE",
"34 -134 OFFCURVE",
"55 -77 CURVE SMOOTH",
"61 -61 OFFCURVE",
"67 -38 OFFCURVE",
"67 -4 CURVE",
"32 -4 LINE",
"30 -29 OFFCURVE",
"26 -48 OFFCURVE",
"20 -62 CURVE",
"-24 -51 OFFCURVE",
"-41 -24 OFFCURVE",
"-47 0 CURVE",
"-79 -10 LINE",
"-79 -18 LINE SMOOTH",
"-79 -41 OFFCURVE",
"-67 -58 OFFCURVE",
"-54 -69 CURVE SMOOTH",
"-44 -77 OFFCURVE",
"-27 -89 OFFCURVE",
"1 -97 CURVE",
"-15 -117 OFFCURVE",
"-40 -135 OFFCURVE",
"-76 -149 CURVE"
);
}
);
width = 0;
}
);
unicode = 10F4F;
category = Mark;
subCategory = Nonspacing;
},
{
glyphname = strokebelowSogd;
lastChange = "2019-10-31 19:51:10 +0000";
layers = (
{
anchors = (
{
name = _Anchor4;
position = "{0, 0}";
}
);
layerId = UUID0;
paths = (
{
closed = 1;
nodes = (
"12 95 LINE",
"-19 -57 LINE",
"-19 -62 LINE",
"16 -62 LINE",
"65 95 LINE"
);
}
);
width = 0;
}
);
unicode = 10F50;
category = Mark;
subCategory = Nonspacing;
},
{
glyphname = oneSogdSep;
lastChange = "2019-10-31 19:51:10 +0000";
layers = (
{
anchors = (
{
name = Anchor2;
position = "{179, -60}";
},
{
name = Anchor4;
position = "{230, -65}";
},
{
name = Anchor6;
position = "{188, 411}";
}
);
layerId = UUID0;
paths = (
{
closed = 1;
nodes = (
"296 0 LINE",
"291 86 OFFCURVE",
"236 299 OFFCURVE",
"215 351 CURVE",
"155 351 LINE",
"128 183 OFFCURVE",
"104 76 OFFCURVE",
"20 76 CURVE",
"20 0 LINE",
"119 0 OFFCURVE",
"170 80 OFFCURVE",
"184 182 CURVE",
"188 182 LINE",
"199 124 OFFCURVE",
"209 51 OFFCURVE",
"214 0 CURVE"
);
}
);
width = 356;
}
);
unicode = 10F51;
category = Number;
},
{
glyphname = tenSogdSep;
lastChange = "2019-10-31 19:51:10 +0000";
layers = (
{
anchors = (
{
name = Anchor2;
position = "{329, -60}";
},
{
name = Anchor4;
position = "{314, -59}";
},
{
name = Anchor6;
position = "{216, 600}";
}
);
layerId = UUID0;
paths = (
{
closed = 1;
nodes = (
"394 0 LINE SMOOTH",
"504 0 OFFCURVE",
"631 4 OFFCURVE",
"631 132 CURVE SMOOTH",
"631 183 OFFCURVE",
"594 219 OFFCURVE",
"540 268 CURVE SMOOTH",
"208 569 LINE",
"149 507 LINE",
"504 191 LINE SMOOTH",
"528 169 OFFCURVE",
"547 147 OFFCURVE",
"547 126 CURVE SMOOTH",
"547 96 OFFCURVE",
"533 76 OFFCURVE",
"458 76 CURVE SMOOTH",
"60 76 LINE",
"60 0 LINE"
);
}
);
width = 696;
}
);
unicode = 10F52;
category = Number;
},
{
glyphname = twentySogdSep;
lastChange = "2019-10-31 19:51:10 +0000";
layers = (
{
anchors = (
{
name = Anchor2;
position = "{329, -60}";
},
{
name = Anchor4;
position = "{314, -60}";
},
{
name = Anchor6;
position = "{309, 699}";
}
);
layerId = UUID0;
paths = (
{
closed = 1;
nodes = (
"439 584 OFFCURVE",
"392 648 OFFCURVE",
"306 648 CURVE SMOOTH",
"199 648 OFFCURVE",
"155 572 OFFCURVE",
"155 513 CURVE SMOOTH",
"155 462 OFFCURVE",
"184 423 OFFCURVE",
"234 387 CURVE SMOOTH",
"503 194 LINE SMOOTH",
"531 174 OFFCURVE",
"547 150 OFFCURVE",
"547 130 CURVE SMOOTH",
"547 102 OFFCURVE",
"533 76 OFFCURVE",
"458 76 CURVE SMOOTH",
"60 76 LINE",
"60 0 LINE",
"394 0 LINE SMOOTH",
"504 0 OFFCURVE",
"631 6 OFFCURVE",
"631 135 CURVE SMOOTH",
"631 198 OFFCURVE",
"574 244 OFFCURVE",
"540 268 CURVE SMOOTH",
"355 399 LINE",
"404 421 OFFCURVE",
"439 461 OFFCURVE",
"439 528 CURVE SMOOTH"
);
},
{
closed = 1;
nodes = (
"224 556 OFFCURVE",
"256 589 OFFCURVE",
"300 589 CURVE SMOOTH",
"345 589 OFFCURVE",
"372 561 OFFCURVE",
"372 521 CURVE SMOOTH",
"372 475 OFFCURVE",
"343 439 OFFCURVE",
"297 429 CURVE",
"258 448 OFFCURVE",
"224 470 OFFCURVE",
"224 517 CURVE SMOOTH"
);
}
);
width = 696;
}
);
unicode = 10F53;
category = Number;
},
{
glyphname = hundredSogdSep;
lastChange = "2019-10-31 19:51:10 +0000";
layers = (
{
anchors = (
{
name = Anchor2;
position = "{868, -90}";
},
{
name = Anchor4;
position = "{842, -80}";
},
{
name = Anchor6;
position = "{874, 441}";
}
);
layerId = UUID0;
paths = (
{
closed = 1;
nodes = (
"429 14 LINE",
"461 2 OFFCURVE",
"518 -2 OFFCURVE",
"543 -2 CURVE SMOOTH",
"618 -2 OFFCURVE",
"687 21 OFFCURVE",
"733 74 CURVE",
"763 0 OFFCURVE",
"800 -30 OFFCURVE",
"866 -30 CURVE SMOOTH",
"944 -30 OFFCURVE",
"988 16 OFFCURVE",
"1010 75 CURVE",
"1033 28 OFFCURVE",
"1090 0 OFFCURVE",
"1198 0 CURVE SMOOTH",
"1548 0 LINE",
"1548 65 LINE",
"1510 82 OFFCURVE",
"1435 154 OFFCURVE",
"1384 209 CURVE",
"1439 257 OFFCURVE",
"1502 306 OFFCURVE",
"1550 334 CURVE",
"1509 394 LINE",
"1458 366 OFFCURVE",
"1392 316 OFFCURVE",
"1336 262 CURVE",
"1299 307 OFFCURVE",
"1268 353 OFFCURVE",
"1245 391 CURVE",
"1174 353 LINE",
"1207 280 OFFCURVE",
"1324 130 OFFCURVE",
"1414 78 CURVE",
"1414 72 LINE",
"1383 74 OFFCURVE",
"1291 76 OFFCURVE",
"1274 76 CURVE SMOOTH",
"1189 76 LINE SMOOTH",
"1114 76 OFFCURVE",
"1041 105 OFFCURVE",
"1038 217 CURVE",
"1043 275 OFFCURVE",
"1043 328 OFFCURVE",
"1043 382 CURVE",
"977 382 LINE",
"961 254 LINE SMOOTH",
"944 118 OFFCURVE",
"929 45 OFFCURVE",
"875 45 CURVE SMOOTH",
"821 45 OFFCURVE",
"800 116 OFFCURVE",
"772 269 CURVE SMOOTH",
"751 382 LINE",
"687 382 LINE",
"688 318 OFFCURVE",
"694 258 OFFCURVE",
"703 199 CURVE",
"700 118 OFFCURVE",
"639 76 OFFCURVE",
"557 76 CURVE SMOOTH",
"519 76 LINE",
"539 117 OFFCURVE",
"545 146 OFFCURVE",
"545 181 CURVE SMOOTH",
"545 305 OFFCURVE",
"463 389 OFFCURVE",
"333 389 CURVE SMOOTH",
"180 389 OFFCURVE",
"65 263 OFFCURVE",
"65 86 CURVE SMOOTH",
"65 -124 OFFCURVE",
"217 -302 OFFCURVE",
"522 -302 CURVE SMOOTH",
"557 -302 OFFCURVE",
"594 -300 OFFCURVE",
"633 -294 CURVE",
"633 -220 LINE",
"602 -224 OFFCURVE",
"568 -225 OFFCURVE",
"538 -225 CURVE SMOOTH",
"314 -225 OFFCURVE",
"152 -111 OFFCURVE",
"152 92 CURVE SMOOTH",
"152 223 OFFCURVE",
"228 306 OFFCURVE",
"329 306 CURVE SMOOTH",
"426 306 OFFCURVE",
"472 242 OFFCURVE",
"472 169 CURVE SMOOTH",
"472 134 OFFCURVE",
"464 94 OFFCURVE",
"436 61 CURVE"
);
}
);
width = 1618;
}
);
unicode = 10F54;
category = Number;
},
{
glyphname = u10F55;
lastChange = "2019-10-31 19:51:10 +0000";
layers = (
{
layerId = UUID0;
paths = (
{
closed = 1;
nodes = (
"80 0 LINE",
"160 0 LINE",
"160 382 LINE",
"80 372 LINE"
);
},
{
closed = 1;
nodes = (
"254 0 LINE",
"334 0 LINE",
"334 392 LINE",
"254 382 LINE"
);
}
);
width = 414;
}
);
unicode = 10F55;
category = Punctuation;
},
{
glyphname = u10F56;
lastChange = "2019-10-31 19:51:10 +0000";
layers = (
{
layerId = UUID0;
paths = (
{
closed = 1;
nodes = (
"254 0 LINE",
"334 0 LINE",
"334 392 LINE",
"254 382 LINE"
);
},
{
closed = 1;
nodes = (
"80 0 LINE",
"160 0 LINE",
"160 382 LINE",
"80 372 LINE"
);
},
{
closed = 1;
nodes = (
"160 425 OFFCURVE",
"179 410 OFFCURVE",
"207 410 CURVE SMOOTH",
"237 410 OFFCURVE",
"255 429 OFFCURVE",
"255 464 CURVE SMOOTH",
"255 499 OFFCURVE",
"238 517 OFFCURVE",
"207 517 CURVE SMOOTH",
"177 517 OFFCURVE",
"160 499 OFFCURVE",
"160 464 CURVE SMOOTH"
);
},
{
closed = 1;
nodes = (
"160 -122 OFFCURVE",
"179 -137 OFFCURVE",
"207 -137 CURVE SMOOTH",
"237 -137 OFFCURVE",
"255 -118 OFFCURVE",
"255 -83 CURVE SMOOTH",
"255 -48 OFFCURVE",
"238 -30 OFFCURVE",
"207 -30 CURVE SMOOTH",
"177 -30 OFFCURVE",
"160 -48 OFFCURVE",
"160 -83 CURVE SMOOTH"
);
}
);
width = 414;
}
);
unicode = 10F56;
category = Punctuation;
},
{
glyphname = u10F57;
lastChange = "2019-10-31 19:51:10 +0000";
layers = (
{
layerId = UUID0;
paths = (
{
closed = 1;
nodes = (
"70 99 OFFCURVE",
"137 26 OFFCURVE",
"251 26 CURVE SMOOTH",
"369 26 OFFCURVE",
"438 117 OFFCURVE",
"438 218 CURVE SMOOTH",
"438 317 OFFCURVE",
"372 390 OFFCURVE",
"257 390 CURVE SMOOTH",
"139 390 OFFCURVE",
"70 299 OFFCURVE",
"70 198 CURVE SMOOTH"
);
},
{
closed = 1;
nodes = (
"133 271 OFFCURVE",
"179 329 OFFCURVE",
"254 329 CURVE SMOOTH",
"329 329 OFFCURVE",
"375 282 OFFCURVE",
"375 210 CURVE SMOOTH",
"375 145 OFFCURVE",
"329 87 OFFCURVE",
"254 87 CURVE SMOOTH",
"179 87 OFFCURVE",
"133 134 OFFCURVE",
"133 206 CURVE"
);
},
{
closed = 1;
nodes = (
"209 170 OFFCURVE",
"227 156 OFFCURVE",
"254 156 CURVE SMOOTH",
"283 156 OFFCURVE",
"300 174 OFFCURVE",
"300 208 CURVE SMOOTH",
"300 242 OFFCURVE",
"284 259 OFFCURVE",
"254 259 CURVE SMOOTH",
"225 259 OFFCURVE",
"209 242 OFFCURVE",
"209 208 CURVE SMOOTH"
);
}
);
width = 508;
}
);
unicode = 10F57;
category = Punctuation;
},
{
glyphname = u10F58;
lastChange = "2019-10-31 19:51:10 +0000";
layers = (
{
layerId = UUID0;
paths = (
{
closed = 1;
nodes = (
"70 99 OFFCURVE",
"135 26 OFFCURVE",
"249 26 CURVE SMOOTH",
"322 26 OFFCURVE",
"373 60 OFFCURVE",
"401 110 CURVE",
"427 58 OFFCURVE",
"479 26 OFFCURVE",
"557 26 CURVE SMOOTH",
"674 26 OFFCURVE",
"742 117 OFFCURVE",
"742 217 CURVE SMOOTH",
"742 317 OFFCURVE",
"677 390 OFFCURVE",
"562 390 CURVE SMOOTH",
"489 390 OFFCURVE",
"439 353 OFFCURVE",
"410 304 CURVE",
"385 356 OFFCURVE",
"334 390 OFFCURVE",
"255 390 CURVE SMOOTH",
"138 390 OFFCURVE",
"70 299 OFFCURVE",
"70 199 CURVE SMOOTH"
);
},
{
closed = 1;
nodes = (
"133 271 OFFCURVE",
"177 329 OFFCURVE",
"252 329 CURVE SMOOTH",
"327 329 OFFCURVE",
"376 283 OFFCURVE",
"376 210 CURVE SMOOTH",
"376 145 OFFCURVE",
"327 87 OFFCURVE",
"252 87 CURVE SMOOTH",
"177 87 OFFCURVE",
"133 133 OFFCURVE",
"133 206 CURVE SMOOTH"
);
},
{
closed = 1;
nodes = (
"436 271 OFFCURVE",
"485 329 OFFCURVE",
"560 329 CURVE SMOOTH",
"634 329 OFFCURVE",
"678 283 OFFCURVE",
"678 210 CURVE SMOOTH",
"678 145 OFFCURVE",
"634 87 OFFCURVE",
"560 87 CURVE SMOOTH",
"485 87 OFFCURVE",
"436 133 OFFCURVE",
"436 206 CURVE SMOOTH"
);
},
{
closed = 1;
nodes = (
"209 170 OFFCURVE",
"227 156 OFFCURVE",
"254 156 CURVE SMOOTH",
"283 156 OFFCURVE",
"301 174 OFFCURVE",
"301 208 CURVE SMOOTH",
"301 242 OFFCURVE",
"284 259 OFFCURVE",
"254 259 CURVE SMOOTH",
"225 259 OFFCURVE",
"209 242 OFFCURVE",
"209 208 CURVE SMOOTH"
);
},
{
closed = 1;
nodes = (
"513 170 OFFCURVE",
"531 156 OFFCURVE",
"558 156 CURVE SMOOTH",
"587 156 OFFCURVE",
"604 174 OFFCURVE",
"604 208 CURVE SMOOTH",
"604 242 OFFCURVE",
"588 259 OFFCURVE",
"558 259 CURVE SMOOTH",
"529 259 OFFCURVE",
"513 242 OFFCURVE",
"513 208 CURVE SMOOTH"
);
}
);
width = 812;
}
);
unicode = 10F58;
category = Punctuation;
},
{
glyphname = u10F59;
lastChange = "2019-10-31 19:51:10 +0000";
layers = (
{
layerId = UUID0;
paths = (
{
closed = 1;
nodes = (
"650 14 LINE",
"348 14 OFFCURVE",
"147 43 OFFCURVE",
"147 189 CURVE SMOOTH",
"147 324 OFFCURVE",
"348 372 OFFCURVE",
"650 372 CURVE",
"647 442 LINE",
"260 442 OFFCURVE",
"70 354 OFFCURVE",
"70 174 CURVE SMOOTH",
"70 5 OFFCURVE",
"261 -56 OFFCURVE",
"647 -56 CURVE"
);
},
{
closed = 1;
nodes = (
"237 145 OFFCURVE",
"266 128 OFFCURVE",
"300 128 CURVE SMOOTH",
"337 128 OFFCURVE",
"365 151 OFFCURVE",
"365 193 CURVE SMOOTH",
"365 235 OFFCURVE",
"338 257 OFFCURVE",
"300 257 CURVE SMOOTH",
"263 257 OFFCURVE",
"237 235 OFFCURVE",
"237 193 CURVE SMOOTH"
);
}
);
width = 740;
}
);
unicode = 10F59;
category = Punctuation;
},
{
glyphname = u10F55.altA;
lastChange = "2019-10-31 19:51:10 +0000";
layers = (
{
layerId = UUID0;
paths = (
{
closed = 1;
nodes = (
"80 0 LINE",
"160 0 LINE",
"160 208 LINE",
"80 198 LINE"
);
},
{
closed = 1;
nodes = (
"254 0 LINE",
"334 0 LINE",
"334 218 LINE",
"254 208 LINE"
);
}
);
width = 414;
}
);
category = Punctuation;
},
{
glyphname = u10F55.dot;
lastChange = "2019-10-31 19:51:10 +0000";
layers = (
{
layerId = UUID0;
paths = (
{
closed = 1;
nodes = (
"85 162 OFFCURVE",
"104 147 OFFCURVE",
"132 147 CURVE SMOOTH",
"162 147 OFFCURVE",
"180 166 OFFCURVE",
"180 201 CURVE SMOOTH",
"180 236 OFFCURVE",
"163 254 OFFCURVE",
"132 254 CURVE SMOOTH",
"102 254 OFFCURVE",
"85 236 OFFCURVE",
"85 201 CURVE SMOOTH"
);
},
{
closed = 1;
nodes = (
"234 162 OFFCURVE",
"253 147 OFFCURVE",
"280 147 CURVE SMOOTH",
"311 147 OFFCURVE",
"329 166 OFFCURVE",
"329 201 CURVE SMOOTH",
"329 236 OFFCURVE",
"311 254 OFFCURVE",
"280 254 CURVE SMOOTH",
"251 254 OFFCURVE",
"234 236 OFFCURVE",
"234 201 CURVE SMOOTH"
);
}
);
width = 414;
}
);
category = Punctuation;
},
{
glyphname = u10F55.rho;
lastChange = "2019-10-31 19:51:10 +0000";
layers = (
{
layerId = UUID0;
paths = (
{
closed = 1;
nodes = (
"126 145 LINE",
"184 203 LINE",
"126 261 LINE",
"68 203 LINE"
);
},
{
closed = 1;
nodes = (
"288 145 LINE",
"346 203 LINE",
"288 261 LINE",
"230 203 LINE"
);
}
);
width = 414;
}
);
category = Punctuation;
},
{
glyphname = u10F56.rho;
lastChange = "2019-10-31 19:51:10 +0000";
layers = (
{
layerId = UUID0;
paths = (
{
closed = 1;
nodes = (
"254 0 LINE",
"334 0 LINE",
"334 392 LINE",
"254 382 LINE"
);
},
{
closed = 1;
nodes = (
"80 0 LINE",
"160 0 LINE",
"160 382 LINE",
"80 372 LINE"
);
},
{
closed = 1;
nodes = (
"207 406 LINE",
"265 464 LINE",
"207 522 LINE",
"149 464 LINE"
);
},
{
closed = 1;
nodes = (
"207 -141 LINE",
"265 -83 LINE",
"207 -25 LINE",
"149 -83 LINE"
);
}
);
width = 414;
}
);
category = Punctuation;
},
{
glyphname = AlephFin;
lastChange = "2019-10-31 19:51:10 +0000";
layers = (
{
anchors = (
{
name = Anchor2;
position = "{377, -60}";
},
{
name = Anchor4;
position = "{347, -60}";
},
{
name = Anchor6;
position = "{515, 441}";
}
);
layerId = UUID0;
paths = (
{
closed = 1;
nodes = (
"50 76 LINE",
"50 0 LINE",
"735 0 LINE",
"735 76 LINE",
"669 76 OFFCURVE",
"642 104 OFFCURVE",
"544 209 CURVE",
"599 257 OFFCURVE",
"662 308 OFFCURVE",
"710 336 CURVE",
"669 394 LINE",
"618 366 OFFCURVE",
"553 313 OFFCURVE",
"497 259 CURVE",
"460 304 OFFCURVE",
"428 353 OFFCURVE",
"405 391 CURVE",
"339 353 LINE",
"372 280 OFFCURVE",
"487 130 OFFCURVE",
"572 76 CURVE",
"572 72 LINE",
"541 74 OFFCURVE",
"451 76 OFFCURVE",
"434 76 CURVE SMOOTH"
);
}
);
width = 735;
}
);
category = Letter;
subCategory = Other;
},
{
glyphname = BethFin;
lastChange = "2019-10-31 19:51:10 +0000";
layers = (
{
anchors = (
{
name = Anchor2;
position = "{357, -60}";
},
{
name = Anchor4;
position = "{317, -60}";
},
{
name = Anchor6;
position = "{459, 442}";
}
);
layerId = UUID0;
paths = (
{
closed = 1;
nodes = (
"497 222 OFFCURVE",
"543 235 OFFCURVE",
"571 268 CURVE",
"575 248 OFFCURVE",
"579 201 OFFCURVE",
"579 186 CURVE SMOOTH",
"579 113 OFFCURVE",
"568 76 OFFCURVE",
"486 76 CURVE SMOOTH",
"50 76 LINE",
"50 0 LINE",
"474 0 LINE SMOOTH",
"536 0 OFFCURVE",
"587 13 OFFCURVE",
"618 49 CURVE",
"633 23 OFFCURVE",
"667 0 OFFCURVE",
"734 0 CURVE",
"734 76 LINE",
"672 76 OFFCURVE",
"660 111 OFFCURVE",
"657 142 CURVE",
"658 150 OFFCURVE",
"658 159 OFFCURVE",
"658 168 CURVE SMOOTH",
"658 225 OFFCURVE",
"644 308 OFFCURVE",
"627 382 CURVE",
"565 382 LINE",
"558 315 OFFCURVE",
"512 293 OFFCURVE",
"451 293 CURVE SMOOTH",
"390 293 OFFCURVE",
"357 324 OFFCURVE",
"346 390 CURVE",
"276 375 LINE",
"281 252 OFFCURVE",
"369 222 OFFCURVE",
"440 222 CURVE SMOOTH"
);
}
);
width = 734;
}
);
category = Letter;
subCategory = Other;
},
{
glyphname = SadheIni;
lastChange = "2019-10-31 19:51:10 +0000";
layers = (
{
anchors = (
{
name = Anchor2;
position = "{244, -60}";
},
{
name = Anchor4;
position = "{78, -60}";
},
{
name = Anchor6;
position = "{264, 443}";
}
);
layerId = UUID0;
paths = (
{
closed = 1;
nodes = (
"320 304 OFFCURVE",
"388 308 OFFCURVE",
"433 320 CURVE",
"424 390 LINE",
"419 390 LINE",
"380 380 OFFCURVE",
"329 376 OFFCURVE",
"272 376 CURVE SMOOTH",
"211 376 OFFCURVE",
"166 382 OFFCURVE",
"129 382 CURVE SMOOTH",
"106 382 OFFCURVE",
"90 367 OFFCURVE",
"90 344 CURVE SMOOTH",
"90 337 OFFCURVE",
"90 330 OFFCURVE",
"91 316 CURVE SMOOTH",
"97 225 OFFCURVE",
"102 190 OFFCURVE",
"102 159 CURVE SMOOTH",
"102 106 OFFCURVE",
"80 76 OFFCURVE",
"16 76 CURVE SMOOTH",
"0 76 LINE SMOOTH",
"-34 76 OFFCURVE",
"-43 57 OFFCURVE",
"-43 38 CURVE SMOOTH",
"-43 19 OFFCURVE",
"-34 0 OFFCURVE",
"0 0 CURVE SMOOTH",
"140 0 OFFCURVE",
"184 64 OFFCURVE",
"184 153 CURVE SMOOTH",
"184 184 OFFCURVE",
"180 222 OFFCURVE",
"169 308 CURVE",
"200 305 OFFCURVE",
"235 304 OFFCURVE",
"257 304 CURVE SMOOTH"
);
}
);
width = 483;
}
);
category = Letter;
subCategory = Other;
},
{
glyphname = SadheMed;
lastChange = "2019-10-31 19:51:10 +0000";
layers = (
{
anchors = (
{
name = Anchor2;
position = "{256, -60}";
},
{
name = Anchor4;
position = "{63, -60}";
},
{
name = Anchor6;
position = "{264, 443}";
}
);
layerId = UUID0;
paths = (
{
closed = 1;
nodes = (
"486 0 LINE",
"486 76 LINE",
"156 76 LINE",
"172 103 OFFCURVE",
"179 138 OFFCURVE",
"179 178 CURVE SMOOTH",
"179 207 OFFCURVE",
"174 258 OFFCURVE",
"167 308 CURVE",
"199 305 OFFCURVE",
"235 304 OFFCURVE",
"257 304 CURVE SMOOTH",
"320 304 OFFCURVE",
"388 308 OFFCURVE",
"433 320 CURVE",
"424 390 LINE",
"419 390 LINE",
"380 380 OFFCURVE",
"329 376 OFFCURVE",
"272 376 CURVE SMOOTH",
"211 376 OFFCURVE",
"166 382 OFFCURVE",
"129 382 CURVE SMOOTH",
"106 382 OFFCURVE",
"90 367 OFFCURVE",
"90 344 CURVE SMOOTH",
"90 337 OFFCURVE",
"90 330 OFFCURVE",
"91 316 CURVE SMOOTH",
"94 269 OFFCURVE",
"99 233 OFFCURVE",
"99 187 CURVE SMOOTH",
"99 131 OFFCURVE",
"94 78 OFFCURVE",
"46 76 CURVE",
"0 76 LINE SMOOTH",
"-34 76 OFFCURVE",
"-43 57 OFFCURVE",
"-43 38 CURVE SMOOTH",
"-43 19 OFFCURVE",
"-34 0 OFFCURVE",
"0 0 CURVE SMOOTH"
);
}
);
width = 486;
}
);
category = Letter;
subCategory = Other;
},
{
glyphname = AlephMed;
lastChange = "2019-10-31 19:51:10 +0000";
layers = (
{
anchors = (
{
name = Anchor2;
position = "{200, -61}";
},
{
name = Anchor4;
position = "{157, -60}";
},
{
name = Anchor6;
position = "{210, 441}";
}
);
layerId = UUID0;
paths = (
{
closed = 1;
nodes = (
"426 0 LINE",
"426 76 LINE",
"360 76 OFFCURVE",
"333 104 OFFCURVE",
"235 209 CURVE",
"290 257 OFFCURVE",
"353 308 OFFCURVE",
"401 336 CURVE",
"360 394 LINE",
"309 366 OFFCURVE",
"244 313 OFFCURVE",
"188 259 CURVE",
"151 304 OFFCURVE",
"119 353 OFFCURVE",
"96 391 CURVE",
"30 353 LINE",
"63 280 OFFCURVE",
"178 130 OFFCURVE",
"263 76 CURVE",
"263 72 LINE",
"232 74 OFFCURVE",
"142 76 OFFCURVE",
"125 76 CURVE SMOOTH",
"0 76 LINE SMOOTH",
"-34 76 OFFCURVE",
"-43 57 OFFCURVE",
"-43 38 CURVE SMOOTH",
"-43 19 OFFCURVE",
"-34 0 OFFCURVE",
"0 0 CURVE SMOOTH"
);
}
);
width = 426;
}
);
category = Letter;
subCategory = Other;
},
{
glyphname = AlephIni;
lastChange = "2019-10-31 19:51:10 +0000";
layers = (
{
anchors = (
{
name = Anchor2;
position = "{198, -60}";
},
{
name = Anchor4;
position = "{157, -60}";
},
{
name = Anchor6;
position = "{210, 441}";
}
);
layerId = UUID0;
paths = (
{
closed = 1;
nodes = (
"399 0 LINE",
"399 65 LINE",
"362 82 OFFCURVE",
"291 149 OFFCURVE",
"236 209 CURVE",
"290 258 OFFCURVE",
"353 308 OFFCURVE",
"401 336 CURVE",
"360 394 LINE",
"309 366 OFFCURVE",
"245 313 OFFCURVE",
"189 259 CURVE",
"155 297 OFFCURVE",
"120 348 OFFCURVE",
"96 391 CURVE",
"29 351 LINE",
"70 275 OFFCURVE",
"177 128 OFFCURVE",
"267 76 CURVE",
"267 72 LINE",
"236 74 OFFCURVE",
"146 76 OFFCURVE",
"129 76 CURVE SMOOTH",
"0 76 LINE SMOOTH",
"-34 76 OFFCURVE",
"-43 57 OFFCURVE",
"-43 38 CURVE SMOOTH",
"-43 19 OFFCURVE",
"-34 0 OFFCURVE",
"0 0 CURVE SMOOTH"
);
}
);
width = 469;
}
);
category = Letter;
subCategory = Other;
},
{
glyphname = BethMed;
lastChange = "2019-10-31 19:51:10 +0000";
layers = (
{
anchors = (
{
name = Anchor2;
position = "{208, -61}";
},
{
name = Anchor4;
position = "{165, -60}";
},
{
name = Anchor6;
position = "{224, 442}";
}
);
layerId = UUID0;
paths = (
{
closed = 1;
nodes = (
"262 222 OFFCURVE",
"308 235 OFFCURVE",
"336 268 CURVE",
"340 248 OFFCURVE",
"344 201 OFFCURVE",
"344 186 CURVE SMOOTH",
"344 113 OFFCURVE",
"333 76 OFFCURVE",
"251 76 CURVE SMOOTH",
"0 76 LINE SMOOTH",
"-34 76 OFFCURVE",
"-43 57 OFFCURVE",
"-43 38 CURVE SMOOTH",
"-43 19 OFFCURVE",
"-34 0 OFFCURVE",
"0 0 CURVE SMOOTH",
"239 0 LINE SMOOTH",
"301 0 OFFCURVE",
"352 13 OFFCURVE",
"383 49 CURVE",
"398 23 OFFCURVE",
"432 0 OFFCURVE",
"499 0 CURVE",
"499 76 LINE",
"437 76 OFFCURVE",
"425 111 OFFCURVE",
"422 142 CURVE",
"423 151 OFFCURVE",
"423 159 OFFCURVE",
"423 168 CURVE SMOOTH",
"423 225 OFFCURVE",
"409 308 OFFCURVE",
"392 382 CURVE",
"330 382 LINE",
"323 315 OFFCURVE",
"277 293 OFFCURVE",
"216 293 CURVE SMOOTH",
"155 293 OFFCURVE",
"122 324 OFFCURVE",
"111 390 CURVE",
"41 375 LINE",
"46 252 OFFCURVE",
"134 222 OFFCURVE",
"205 222 CURVE SMOOTH"
);
}
);
width = 499;
}
);
category = Letter;
subCategory = Other;
},
{
glyphname = BethIni;
lastChange = "2019-10-31 19:51:10 +0000";
layers = (
{
anchors = (
{
name = Anchor2;
position = "{207, -60}";
},
{
name = Anchor4;
position = "{166, -60}";
},
{
name = Anchor6;
position = "{225, 442}";
}
);
layerId = UUID0;
paths = (
{
closed = 1;
nodes = (
"262 222 OFFCURVE",
"308 235 OFFCURVE",
"336 268 CURVE",
"340 248 OFFCURVE",
"344 201 OFFCURVE",
"344 186 CURVE SMOOTH",
"344 113 OFFCURVE",
"333 76 OFFCURVE",
"251 76 CURVE SMOOTH",
"0 76 LINE SMOOTH",
"-34 76 OFFCURVE",
"-43 57 OFFCURVE",
"-43 38 CURVE SMOOTH",
"-43 19 OFFCURVE",
"-34 0 OFFCURVE",
"0 0 CURVE SMOOTH",
"248 0 LINE SMOOTH",
"375 0 OFFCURVE",
"423 59 OFFCURVE",
"423 168 CURVE SMOOTH",
"423 225 OFFCURVE",
"409 308 OFFCURVE",
"392 382 CURVE",
"330 382 LINE",
"323 315 OFFCURVE",
"277 293 OFFCURVE",
"216 293 CURVE SMOOTH",
"155 293 OFFCURVE",
"122 324 OFFCURVE",
"111 390 CURVE",
"41 375 LINE",
"46 252 OFFCURVE",
"134 222 OFFCURVE",
"205 222 CURVE SMOOTH"
);
}
);
width = 499;
}
);
category = Letter;
subCategory = Other;
},
{
glyphname = GimelFin;
lastChange = "2019-10-31 19:51:10 +0000";
layers = (
{
anchors = (
{
name = Anchor2;
position = "{387, -91}";
},
{
name = Anchor4;
position = "{359, -80}";
},
{
name = Anchor6;
position = "{391, 443}";
}
);
layerId = UUID0;
paths = (
{
closed = 1;
nodes = (
"458 -30 OFFCURVE",
"502 13 OFFCURVE",
"525 69 CURVE",
"546 26 OFFCURVE",
"590 0 OFFCURVE",
"655 0 CURVE",
"655 76 LINE",
"625 76 OFFCURVE",
"558 105 OFFCURVE",
"555 217 CURVE",
"557 240 OFFCURVE",
"558 263 OFFCURVE",
"559 287 CURVE SMOOTH",
"560 313 OFFCURVE",
"560 358 OFFCURVE",
"560 382 CURVE",
"494 382 LINE",
"478 254 LINE SMOOTH",
"461 118 OFFCURVE",
"446 45 OFFCURVE",
"392 45 CURVE SMOOTH",
"338 45 OFFCURVE",
"317 116 OFFCURVE",
"289 269 CURVE SMOOTH",
"268 382 LINE",
"215 382 LINE",
"45 129 LINE",
"81 65 LINE",
"90 65 LINE",
"213 249 LINE",
"221 178 OFFCURVE",
"236 104 OFFCURVE",
"255 63 CURVE SMOOTH",
"277 17 OFFCURVE",
"302 -30 OFFCURVE",
"383 -30 CURVE SMOOTH"
);
}
);
width = 655;
}
);
category = Letter;
subCategory = Other;
},
{
glyphname = GimelMed;
lastChange = "2019-10-31 19:51:10 +0000";
layers = (
{
anchors = (
{
name = Anchor2;
position = "{274, -91}";
},
{
name = Anchor4;
position = "{247, -80}";
},
{
name = Anchor6;
position = "{280, 442}";
}
);
layerId = UUID0;
paths = (
{
closed = 1;
nodes = (
"346 -30 OFFCURVE",
"390 13 OFFCURVE",
"413 69 CURVE",
"434 26 OFFCURVE",
"478 0 OFFCURVE",
"543 0 CURVE",
"543 76 LINE",
"513 76 OFFCURVE",
"446 105 OFFCURVE",
"443 217 CURVE",
"445 240 OFFCURVE",
"446 263 OFFCURVE",
"447 287 CURVE SMOOTH",
"448 313 OFFCURVE",
"448 358 OFFCURVE",
"448 382 CURVE",
"382 382 LINE",
"366 254 LINE SMOOTH",
"349 118 OFFCURVE",
"334 45 OFFCURVE",
"280 45 CURVE SMOOTH",
"226 45 OFFCURVE",
"205 116 OFFCURVE",
"177 269 CURVE SMOOTH",
"156 382 LINE",
"92 382 LINE",
"94 320 OFFCURVE",
"98 262 OFFCURVE",
"107 206 CURVE",
"107 200 LINE SMOOTH",
"107 116 OFFCURVE",
"63 76 OFFCURVE",
"0 76 CURVE SMOOTH",
"-34 76 OFFCURVE",
"-43 57 OFFCURVE",
"-43 38 CURVE SMOOTH",
"-43 19 OFFCURVE",
"-34 0 OFFCURVE",
"0 0 CURVE SMOOTH",
"40 0 OFFCURVE",
"102 13 OFFCURVE",
"143 65 CURVE",
"171 -4 OFFCURVE",
"211 -30 OFFCURVE",
"271 -30 CURVE SMOOTH"
);
}
);
width = 543;
}
);
category = Letter;
subCategory = Other;
},
{
glyphname = GimelIni;
lastChange = "2019-10-31 19:51:10 +0000";
layers = (
{
anchors = (
{
name = Anchor2;
position = "{273, -90}";
},
{
name = Anchor4;
position = "{247, -80}";
},
{
name = Anchor6;
position = "{278, 442}";
}
);
layerId = UUID0;
paths = (
{
closed = 1;
nodes = (
"359 -30 OFFCURVE",
"404 29 OFFCURVE",
"423 98 CURVE SMOOTH",
"438 152 OFFCURVE",
"445 220 OFFCURVE",
"447 287 CURVE SMOOTH",
"448 313 OFFCURVE",
"448 358 OFFCURVE",
"448 382 CURVE",
"382 382 LINE",
"366 254 LINE SMOOTH",
"349 118 OFFCURVE",
"334 45 OFFCURVE",
"280 45 CURVE SMOOTH",
"226 45 OFFCURVE",
"205 116 OFFCURVE",
"177 269 CURVE SMOOTH",
"156 382 LINE",
"92 382 LINE",
"94 320 OFFCURVE",
"99 262 OFFCURVE",
"107 206 CURVE",
"107 200 LINE SMOOTH",
"107 116 OFFCURVE",
"63 76 OFFCURVE",
"0 76 CURVE SMOOTH",
"-34 76 OFFCURVE",
"-43 57 OFFCURVE",
"-43 38 CURVE SMOOTH",
"-43 19 OFFCURVE",
"-34 0 OFFCURVE",
"0 0 CURVE SMOOTH",
"40 0 OFFCURVE",
"101 12 OFFCURVE",
"142 64 CURVE",
"173 -6 OFFCURVE",
"211 -30 OFFCURVE",
"271 -30 CURVE SMOOTH"
);
}
);
width = 523;
}
);
category = Letter;
subCategory = Other;
},
{
glyphname = HeFin;
lastChange = "2019-10-31 19:51:10 +0000";
layers = (
{
anchors = (
{
name = Anchor2;
position = "{483, -60}";
},
{
name = Anchor4;
position = "{467, -60}";
},
{
name = Anchor6;
position = "{517, 443}";
}
);
layerId = UUID0;
paths = (
{
closed = 1;
nodes = (
"713 0 LINE SMOOTH",
"792 0 OFFCURVE",
"841 24 OFFCURVE",
"875 63 CURVE",
"896 33 OFFCURVE",
"936 0 OFFCURVE",
"1018 0 CURVE",
"1018 76 LINE",
"968 76 OFFCURVE",
"925 102 OFFCURVE",
"913 154 CURVE",
"913 182 OFFCURVE",
"911 222 OFFCURVE",
"904 244 CURVE",
"847 244 LINE",
"834 190 LINE SMOOTH",
"819 128 OFFCURVE",
"795 76 OFFCURVE",
"713 76 CURVE SMOOTH",
"163 76 LINE SMOOTH",
"159 76 OFFCURVE",
"158 82 OFFCURVE",
"158 87 CURVE SMOOTH",
"158 97 OFFCURVE",
"164 111 OFFCURVE",
"174 131 CURVE SMOOTH",
"185 154 LINE SMOOTH",
"234 257 OFFCURVE",
"263 304 OFFCURVE",
"371 305 CURVE SMOOTH",
"767 309 LINE",
"772 382 LINE",
"383 382 LINE SMOOTH",
"231 382 OFFCURVE",
"178 312 OFFCURVE",
"119 200 CURVE SMOOTH",
"96 156 OFFCURVE",
"72 106 OFFCURVE",
"72 71 CURVE SMOOTH",
"72 36 OFFCURVE",
"89 0 OFFCURVE",
"161 0 CURVE SMOOTH"
);
}
);
width = 1018;
}
);
category = Letter;
subCategory = Other;
},
{
glyphname = WawFin;
lastChange = "2019-10-31 19:51:10 +0000";
layers = (
{
anchors = (
{
name = Anchor2;
position = "{202, -299}";
},
{
name = Anchor4;
position = "{202, -48}";
},
{
name = Anchor6;
position = "{279, 472}";
}
);
layerId = UUID0;
paths = (
{
closed = 1;
nodes = (
"519 76 LINE",
"426 76 LINE",
"440 123 OFFCURVE",
"449 163 OFFCURVE",
"449 199 CURVE SMOOTH",
"449 331 OFFCURVE",
"391 410 OFFCURVE",
"274 410 CURVE SMOOTH",
"163 410 OFFCURVE",
"55 299 OFFCURVE",
"55 171 CURVE SMOOTH",
"55 49 OFFCURVE",
"152 2 OFFCURVE",
"308 0 CURVE",
"271 -78 OFFCURVE",
"220 -162 OFFCURVE",
"162 -242 CURVE",
"256 -242 LINE",
"321 -150 OFFCURVE",
"365 -80 OFFCURVE",
"398 0 CURVE",
"519 0 LINE"
);
},
{
closed = 1;
nodes = (
"136 252 OFFCURVE",
"196 331 OFFCURVE",
"270 331 CURVE SMOOTH",
"350 331 OFFCURVE",
"366 274 OFFCURVE",
"366 208 CURVE SMOOTH",
"366 169 OFFCURVE",
"356 124 OFFCURVE",
"339 76 CURVE",
"240 78 OFFCURVE",
"136 92 OFFCURVE",
"136 183 CURVE SMOOTH"
);
}
);
width = 519;
}
);
category = Letter;
subCategory = Other;
},
{
glyphname = WawMed;
lastChange = "2019-10-31 19:51:10 +0000";
layers = (
{
anchors = (
{
name = Anchor2;
position = "{251, -60}";
},
{
name = Anchor4;
position = "{214, -60}";
},
{
name = Anchor6;
position = "{280, 472}";
}
);
layerId = UUID0;
paths = (
{
closed = 1;
nodes = (
"368 4 OFFCURVE",
"476 0 OFFCURVE",
"520 0 CURVE",
"520 76 LINE",
"501 76 OFFCURVE",
"431 76 OFFCURVE",
"399 80 CURVE",
"399 83 LINE",
"430 104 OFFCURVE",
"460 156 OFFCURVE",
"460 215 CURVE SMOOTH",
"460 321 OFFCURVE",
"409 410 OFFCURVE",
"277 410 CURVE SMOOTH",
"170 410 OFFCURVE",
"60 314 OFFCURVE",
"60 190 CURVE SMOOTH",
"60 133 OFFCURVE",
"79 103 OFFCURVE",
"101 84 CURVE",
"101 80 LINE",
"76 78 OFFCURVE",
"30 76 OFFCURVE",
"0 76 CURVE SMOOTH",
"-34 76 OFFCURVE",
"-43 57 OFFCURVE",
"-43 38 CURVE SMOOTH",
"-43 19 OFFCURVE",
"-34 0 OFFCURVE",
"0 0 CURVE SMOOTH",
"58 0 OFFCURVE",
"194 5 OFFCURVE",
"270 19 CURVE"
);
},
{
closed = 1;
nodes = (
"177 111 OFFCURVE",
"136 136 OFFCURVE",
"136 196 CURVE SMOOTH",
"136 274 OFFCURVE",
"205 330 OFFCURVE",
"277 330 CURVE SMOOTH",
"348 330 OFFCURVE",
"383 276 OFFCURVE",
"383 217 CURVE SMOOTH",
"383 154 OFFCURVE",
"331 111 OFFCURVE",
"246 100 CURVE"
);
}
);
width = 520;
}
);
category = Letter;
subCategory = Other;
},
{
glyphname = WawIni;
lastChange = "2019-10-31 19:51:10 +0000";
layers = (
{
anchors = (
{
name = Anchor2;
position = "{251, -60}";
},
{
name = Anchor4;
position = "{214, -60}";
},
{
name = Anchor6;
position = "{286, 472}";
}
);
layerId = UUID0;
paths = (
{
closed = 1;
nodes = (
"176 0 LINE SMOOTH",
"301 0 OFFCURVE",
"364 20 OFFCURVE",
"402 49 CURVE SMOOTH",
"465 98 OFFCURVE",
"471 170 OFFCURVE",
"471 210 CURVE SMOOTH",
"471 302 OFFCURVE",
"422 410 OFFCURVE",
"287 410 CURVE SMOOTH",
"160 410 OFFCURVE",
"60 305 OFFCURVE",
"60 180 CURVE SMOOTH",
"60 136 OFFCURVE",
"81 94 OFFCURVE",
"104 81 CURVE",
"104 77 LINE",
"80 76 OFFCURVE",
"30 76 OFFCURVE",
"0 76 CURVE SMOOTH",
"-34 76 OFFCURVE",
"-43 57 OFFCURVE",
"-43 38 CURVE SMOOTH",
"-43 19 OFFCURVE",
"-34 0 OFFCURVE",
"0 0 CURVE SMOOTH"
);
},
{
closed = 1;
nodes = (
"192 93 OFFCURVE",
"137 118 OFFCURVE",
"137 193 CURVE SMOOTH",
"137 275 OFFCURVE",
"212 329 OFFCURVE",
"287 329 CURVE SMOOTH",
"380 329 OFFCURVE",
"394 253 OFFCURVE",
"394 205 CURVE SMOOTH",
"394 121 OFFCURVE",
"328 86 OFFCURVE",
"254 86 CURVE"
);
}
);
width = 521;
}
);
category = Letter;
subCategory = Other;
},
{
glyphname = ZayinFin;
lastChange = "2019-10-31 19:51:10 +0000";
layers = (
{
anchors = (
{
name = Anchor2;
position = "{191, -60}";
},
{
name = Anchor4;
position = "{173, -60}";
},
{
name = Anchor6;
position = "{202, 443}";
}
);
layerId = UUID0;
paths = (
{
closed = 1;
nodes = (
"45 61 OFFCURVE",
"49 0 OFFCURVE",
"162 0 CURVE SMOOTH",
"372 0 LINE",
"372 76 LINE",
"345 76 OFFCURVE",
"331 88 OFFCURVE",
"304 133 CURVE SMOOTH",
"264 200 OFFCURVE",
"241 297 OFFCURVE",
"222 382 CURVE",
"172 382 LINE",
"144 322 OFFCURVE",
"122 278 OFFCURVE",
"91 217 CURVE SMOOTH",
"57 150 OFFCURVE",
"45 113 OFFCURVE",
"45 87 CURVE SMOOTH"
);
},
{
closed = 1;
nodes = (
"127 129 OFFCURVE",
"135 150 OFFCURVE",
"148 176 CURVE SMOOTH",
"157 194 OFFCURVE",
"166 212 OFFCURVE",
"178 237 CURVE",
"182 237 LINE",
"197 169 OFFCURVE",
"229 100 OFFCURVE",
"248 74 CURVE",
"248 69 LINE",
"170 69 LINE SMOOTH",
"132 69 OFFCURVE",
"127 94 OFFCURVE",
"127 108 CURVE SMOOTH"
);
}
);
width = 372;
}
);
category = Letter;
subCategory = Other;
},
{
glyphname = ZayinMed;
lastChange = "2019-10-31 19:51:10 +0000";
layers = (
{
anchors = (
{
name = Anchor2;
position = "{172, -60}";
},
{
name = Anchor4;
position = "{157, -60}";
},
{
name = Anchor6;
position = "{185, 442}";
}
);
layerId = UUID0;
paths = (
{
closed = 1;
nodes = (
"182 216 LINE",
"188 164 OFFCURVE",
"215 94 OFFCURVE",
"234 69 CURVE",
"175 69 LINE",
"162 0 LINE",
"360 0 LINE",
"360 76 LINE",
"334 76 OFFCURVE",
"310 89 OFFCURVE",
"286 140 CURVE SMOOTH",
"258 200 OFFCURVE",
"237 272 OFFCURVE",
"210 382 CURVE",
"155 382 LINE",
"135 300 OFFCURVE",
"106 206 OFFCURVE",
"75 139 CURVE SMOOTH",
"54 94 OFFCURVE",
"25 76 OFFCURVE",
"0 76 CURVE SMOOTH",
"-34 76 OFFCURVE",
"-43 57 OFFCURVE",
"-43 38 CURVE SMOOTH",
"-43 19 OFFCURVE",
"-34 0 OFFCURVE",
"0 0 CURVE SMOOTH",
"68 0 OFFCURVE",
"110 40 OFFCURVE",
"144 113 CURVE SMOOTH",
"158 143 OFFCURVE",
"168 174 OFFCURVE",
"178 216 CURVE"
);
}
);
width = 360;
}
);
category = Letter;
subCategory = Other;
},
{
glyphname = ZayinIni;
lastChange = "2019-10-31 19:51:10 +0000";
layers = (
{
anchors = (
{
name = Anchor2;
position = "{157, -60}";
},
{
name = Anchor4;
position = "{142, -60}";
},
{
name = Anchor6;
position = "{186, 443}";
}
);
layerId = UUID0;
paths = (
{
closed = 1;
nodes = (
"75 0 OFFCURVE",
"109 58 OFFCURVE",
"143 123 CURVE SMOOTH",
"160 156 OFFCURVE",
"173 193 OFFCURVE",
"185 230 CURVE",
"189 230 LINE",
"213 171 OFFCURVE",
"237 127 OFFCURVE",
"237 105 CURVE SMOOTH",
"237 90 OFFCURVE",
"229 76 OFFCURVE",
"192 76 CURVE SMOOTH",
"161 76 LINE",
"147 0 LINE",
"194 0 LINE SMOOTH",
"258 0 OFFCURVE",
"315 29 OFFCURVE",
"315 96 CURVE SMOOTH",
"315 124 OFFCURVE",
"310 142 OFFCURVE",
"281 204 CURVE SMOOTH",
"253 264 OFFCURVE",
"230 322 OFFCURVE",
"208 382 CURVE",
"156 382 LINE",
"132 294 OFFCURVE",
"104 204 OFFCURVE",
"66 135 CURVE SMOOTH",
"41 89 OFFCURVE",
"21 76 OFFCURVE",
"0 76 CURVE SMOOTH",
"-34 76 OFFCURVE",
"-43 57 OFFCURVE",
"-43 38 CURVE SMOOTH",
"-43 19 OFFCURVE",
"-34 0 OFFCURVE",
"0 0 CURVE SMOOTH"
);
}
);
width = 365;
}
);
category = Letter;
subCategory = Other;
},
{
glyphname = HethFin;
lastChange = "2019-10-31 19:51:10 +0000";
layers = (
{
anchors = (
{
name = Anchor2;
position = "{513, -91}";
},
{
name = Anchor4;
position = "{486, -80}";
},
{
name = Anchor6;
position = "{519, 442}";
}
);
layerId = UUID0;
paths = (
{
closed = 1;
nodes = (
"365 138 LINE",
"372 107 OFFCURVE",
"378 82 OFFCURVE",
"386 63 CURVE SMOOTH",
"405 20 OFFCURVE",
"430 -30 OFFCURVE",
"511 -30 CURVE SMOOTH",
"586 -30 OFFCURVE",
"630 13 OFFCURVE",
"653 69 CURVE",
"674 26 OFFCURVE",
"718 0 OFFCURVE",
"783 0 CURVE",
"783 76 LINE",
"753 76 OFFCURVE",
"686 105 OFFCURVE",
"683 217 CURVE",
"685 240 OFFCURVE",
"686 263 OFFCURVE",
"687 287 CURVE SMOOTH",
"688 313 OFFCURVE",
"688 358 OFFCURVE",
"688 382 CURVE",
"622 382 LINE",
"606 254 LINE SMOOTH",
"589 118 OFFCURVE",
"574 45 OFFCURVE",
"520 45 CURVE SMOOTH",
"466 45 OFFCURVE",
"445 116 OFFCURVE",
"417 269 CURVE SMOOTH",
"396 382 LINE",
"338 382 LINE",
"315 194 OFFCURVE",
"296 76 OFFCURVE",
"230 76 CURVE SMOOTH",
"172 76 OFFCURVE",
"169 139 OFFCURVE",
"164 262 CURVE SMOOTH",
"162 309 OFFCURVE",
"162 529 OFFCURVE",
"162 674 CURVE",
"89 674 LINE",
"85 564 OFFCURVE",
"80 373 OFFCURVE",
"80 246 CURVE SMOOTH",
"80 74 OFFCURVE",
"114 0 OFFCURVE",
"217 0 CURVE SMOOTH",
"277 0 OFFCURVE",
"341 35 OFFCURVE",
"361 138 CURVE"
);
}
);
width = 783;
}
);
category = Letter;
subCategory = Other;
},
{
glyphname = HethMed;
lastChange = "2019-10-31 19:51:10 +0000";
layers = (
{
anchors = (
{
name = Anchor2;
position = "{273, -90}";
},
{
name = Anchor4;
position = "{247, -80}";
},
{
name = Anchor6;
position = "{278, 443}";
}
);
layerId = UUID0;
paths = (
{
closed = 1;
nodes = (
"346 -30 OFFCURVE",
"390 13 OFFCURVE",
"413 69 CURVE",
"434 26 OFFCURVE",
"478 0 OFFCURVE",
"543 0 CURVE",
"543 76 LINE",
"513 76 OFFCURVE",
"446 105 OFFCURVE",
"443 217 CURVE",
"445 240 OFFCURVE",
"446 263 OFFCURVE",
"447 287 CURVE SMOOTH",
"448 313 OFFCURVE",
"448 358 OFFCURVE",
"448 382 CURVE",
"382 382 LINE",
"366 254 LINE SMOOTH",
"349 118 OFFCURVE",
"334 45 OFFCURVE",
"280 45 CURVE SMOOTH",
"226 45 OFFCURVE",
"205 116 OFFCURVE",
"177 269 CURVE SMOOTH",
"156 382 LINE",
"92 382 LINE",
"94 320 OFFCURVE",
"100 262 OFFCURVE",
"107 206 CURVE",
"107 200 LINE SMOOTH",
"107 116 OFFCURVE",
"63 76 OFFCURVE",
"0 76 CURVE SMOOTH",
"-34 76 OFFCURVE",
"-43 57 OFFCURVE",
"-43 38 CURVE SMOOTH",
"-43 19 OFFCURVE",
"-34 0 OFFCURVE",
"0 0 CURVE SMOOTH",
"40 0 OFFCURVE",
"101 12 OFFCURVE",
"142 64 CURVE",
"174 -5 OFFCURVE",
"207 -30 OFFCURVE",
"271 -30 CURVE SMOOTH"
);
}
);
width = 543;
}
);
category = Letter;
subCategory = Other;
},
{
glyphname = HethIni;
lastChange = "2019-10-31 19:51:10 +0000";
layers = (
{
anchors = (
{
name = Anchor2;
position = "{273, -90}";
},
{
name = Anchor4;
position = "{247, -80}";
},
{
name = Anchor6;
position = "{279, 443}";
}
);
layerId = UUID0;
paths = (
{
closed = 1;
nodes = (
"359 -30 OFFCURVE",
"404 29 OFFCURVE",
"423 98 CURVE SMOOTH",
"438 152 OFFCURVE",
"445 217 OFFCURVE",
"447 287 CURVE SMOOTH",
"448 313 OFFCURVE",
"448 358 OFFCURVE",
"448 382 CURVE",
"382 382 LINE",
"366 254 LINE SMOOTH",
"349 118 OFFCURVE",
"334 45 OFFCURVE",
"280 45 CURVE SMOOTH",
"226 45 OFFCURVE",
"205 116 OFFCURVE",
"177 269 CURVE SMOOTH",
"156 382 LINE",
"92 382 LINE",
"94 320 OFFCURVE",
"99 262 OFFCURVE",
"107 206 CURVE",
"107 200 LINE SMOOTH",
"107 116 OFFCURVE",
"63 76 OFFCURVE",
"0 76 CURVE SMOOTH",
"-34 76 OFFCURVE",
"-43 57 OFFCURVE",
"-43 38 CURVE SMOOTH",
"-43 19 OFFCURVE",
"-34 0 OFFCURVE",
"0 0 CURVE SMOOTH",
"40 0 OFFCURVE",
"101 12 OFFCURVE",
"142 64 CURVE",
"175 -8 OFFCURVE",
"211 -30 OFFCURVE",
"271 -30 CURVE SMOOTH"
);
}
);
width = 523;
}
);
category = Letter;
subCategory = Other;
},
{
glyphname = YodhFin;
lastChange = "2019-10-31 19:51:10 +0000";
layers = (
{
anchors = (
{
name = Anchor2;
position = "{212, -60}";
},
{
name = Anchor4;
position = "{169, -60}";
},
{
name = Anchor6;
position = "{261, 498}";
}
);
layerId = UUID0;
paths = (
{
closed = 1;
nodes = (
"129 0 LINE SMOOTH",
"259 0 OFFCURVE",
"305 37 OFFCURVE",
"324 75 CURVE",
"353 10 OFFCURVE",
"395 0 OFFCURVE",
"441 0 CURVE",
"441 76 LINE",
"410 76 OFFCURVE",
"395 93 OFFCURVE",
"365 157 CURVE SMOOTH",
"330 232 OFFCURVE",
"310 283 OFFCURVE",
"255 357 CURVE",
"271 373 OFFCURVE",
"294 394 OFFCURVE",
"310 407 CURVE",
"264 459 LINE",
"234 435 OFFCURVE",
"189 399 OFFCURVE",
"171 382 CURVE",
"169 334 LINE",
"218 282 OFFCURVE",
"273 199 OFFCURVE",
"273 153 CURVE SMOOTH",
"273 83 OFFCURVE",
"192 76 OFFCURVE",
"141 76 CURVE SMOOTH",
"70 76 LINE",
"70 0 LINE"
);
}
);
width = 441;
}
);
category = Letter;
subCategory = Other;
},
{
glyphname = YodhMed;
lastChange = "2019-10-31 19:51:10 +0000";
layers = (
{
anchors = (
{
name = Anchor2;
position = "{143, -60}";
},
{
name = Anchor4;
position = "{69, -60}";
},
{
name = Anchor6;
position = "{149, 498}";
}
);
layerId = UUID0;
paths = (
{
closed = 1;
nodes = (
"17 0 LINE SMOOTH",
"147 0 OFFCURVE",
"193 37 OFFCURVE",
"212 75 CURVE",
"241 10 OFFCURVE",
"283 0 OFFCURVE",
"329 0 CURVE",
"329 76 LINE",
"298 76 OFFCURVE",
"283 93 OFFCURVE",
"253 157 CURVE SMOOTH",
"218 232 OFFCURVE",
"198 283 OFFCURVE",
"143 357 CURVE",
"159 373 OFFCURVE",
"182 394 OFFCURVE",
"198 407 CURVE",
"152 459 LINE",
"59 382 LINE",
"57 334 LINE",
"106 282 OFFCURVE",
"161 199 OFFCURVE",
"161 153 CURVE SMOOTH",
"161 83 OFFCURVE",
"80 76 OFFCURVE",
"29 76 CURVE SMOOTH",
"0 76 LINE SMOOTH",
"-34 76 OFFCURVE",
"-43 57 OFFCURVE",
"-43 38 CURVE SMOOTH",
"-43 19 OFFCURVE",
"-34 0 OFFCURVE",
"0 0 CURVE SMOOTH"
);
}
);
width = 329;
}
);
category = Letter;
subCategory = Other;
},
{
glyphname = YodhIni;
lastChange = "2019-10-31 19:51:10 +0000";
layers = (
{
anchors = (
{
name = Anchor2;
position = "{125, -60}";
},
{
name = Anchor4;
position = "{69, -60}";
},
{
name = Anchor6;
position = "{149, 498}";
}
);
layerId = UUID0;
paths = (
{
closed = 1;
nodes = (
"26 0 LINE SMOOTH",
"138 0 OFFCURVE",
"181 24 OFFCURVE",
"211 52 CURVE SMOOTH",
"236 76 OFFCURVE",
"248 111 OFFCURVE",
"248 141 CURVE SMOOTH",
"248 163 OFFCURVE",
"247 179 OFFCURVE",
"238 203 CURVE SMOOTH",
"213 266 OFFCURVE",
"187 301 OFFCURVE",
"143 357 CURVE",
"159 373 OFFCURVE",
"182 394 OFFCURVE",
"198 407 CURVE",
"152 459 LINE",
"122 435 OFFCURVE",
"77 399 OFFCURVE",
"59 382 CURVE",
"57 334 LINE",
"106 282 OFFCURVE",
"163 199 OFFCURVE",
"163 153 CURVE SMOOTH",
"163 83 OFFCURVE",
"104 76 OFFCURVE",
"31 76 CURVE SMOOTH",
"0 76 LINE SMOOTH",
"-34 76 OFFCURVE",
"-43 57 OFFCURVE",
"-43 38 CURVE SMOOTH",
"-43 19 OFFCURVE",
"-34 0 OFFCURVE",
"0 0 CURVE SMOOTH"
);
}
);
width = 308;
}
);
category = Letter;
subCategory = Other;
},
{
glyphname = KaphFin;
lastChange = "2019-10-31 19:51:10 +0000";
layers = (
{
anchors = (
{
name = Anchor2;
position = "{303, -217}";
},
{
name = Anchor4;
position = "{276, -216}";
},
{
name = Anchor6;
position = "{456, 442}";
}
);
layerId = UUID0;
paths = (
{
closed = 1;
nodes = (
"695 76 LINE",
"676 76 OFFCURVE",
"620 79 OFFCURVE",
"578 99 CURVE",
"621 210 OFFCURVE",
"639 324 OFFCURVE",
"644 382 CURVE",
"570 382 LINE",
"562 312 OFFCURVE",
"543 217 OFFCURVE",
"511 131 CURVE",
"432 185 OFFCURVE",
"369 295 OFFCURVE",
"334 386 CURVE",
"262 354 LINE",
"289 246 OFFCURVE",
"388 108 OFFCURVE",
"477 57 CURVE",
"428 -32 OFFCURVE",
"376 -73 OFFCURVE",
"309 -73 CURVE SMOOTH",
"225 -73 OFFCURVE",
"163 -41 OFFCURVE",
"158 167 CURVE SMOOTH",
"157 214 OFFCURVE",
"156 529 OFFCURVE",
"156 674 CURVE",
"82 674 LINE",
"79 564 OFFCURVE",
"74 283 OFFCURVE",
"74 156 CURVE SMOOTH",
"74 -119 OFFCURVE",
"188 -156 OFFCURVE",
"301 -156 CURVE SMOOTH",
"413 -156 OFFCURVE",
"494 -75 OFFCURVE",
"547 28 CURVE",
"605 4 OFFCURVE",
"665 0 OFFCURVE",
"695 0 CURVE"
);
}
);
width = 695;
}
);
category = Letter;
subCategory = Other;
},
{
glyphname = KaphMed;
lastChange = "2019-10-31 19:51:10 +0000";
layers = (
{
anchors = (
{
name = Anchor2;
position = "{231, -339}";
},
{
name = Anchor4;
position = "{-36, -371}";
},
{
name = Anchor6;
position = "{218, 442}";
}
);
layerId = UUID0;
paths = (
{
closed = 1;
nodes = (
"160 -310 OFFCURVE",
"259 -155 OFFCURVE",
"328 21 CURVE",
"378 1 OFFCURVE",
"424 0 OFFCURVE",
"460 0 CURVE",
"460 76 LINE",
"433 76 OFFCURVE",
"394 77 OFFCURVE",
"355 93 CURVE",
"383 179 OFFCURVE",
"405 282 OFFCURVE",
"410 382 CURVE",
"335 382 LINE",
"327 287 OFFCURVE",
"307 179 OFFCURVE",
"286 127 CURVE",
"183 195 OFFCURVE",
"130 301 OFFCURVE",
"91 386 CURVE",
"19 354 LINE",
"41 287 OFFCURVE",
"125 119 OFFCURVE",
"257 47 CURVE",
"198 -101 OFFCURVE",
"118 -224 OFFCURVE",
"3 -224 CURVE SMOOTH",
"-106 -224 OFFCURVE",
"-187 -179 OFFCURVE",
"-187 20 CURVE SMOOTH",
"-187 52 LINE",
"-256 37 LINE",
"-259 11 OFFCURVE",
"-259 -1 OFFCURVE",
"-259 -6 CURVE SMOOTH",
"-259 -248 OFFCURVE",
"-138 -310 OFFCURVE",
"-5 -310 CURVE SMOOTH"
);
}
);
width = 460;
}
);
category = Letter;
subCategory = Other;
},
{
glyphname = KaphIni;
lastChange = "2019-10-31 19:51:10 +0000";
layers = (
{
anchors = (
{
name = Anchor2;
position = "{230, -338}";
},
{
name = Anchor4;
position = "{-36, -370}";
},
{
name = Anchor6;
position = "{237, 442}";
}
);
layerId = UUID0;
paths = (
{
closed = 1;
nodes = (
"179 -310 OFFCURVE",
"300 -122 OFFCURVE",
"370 76 CURVE SMOOTH",
"404 171 OFFCURVE",
"426 276 OFFCURVE",
"431 382 CURVE",
"356 382 LINE",
"350 309 OFFCURVE",
"338 251 OFFCURVE",
"320 190 CURVE",
"187 223 OFFCURVE",
"127 302 OFFCURVE",
"112 386 CURVE",
"44 374 LINE",
"43 367 OFFCURVE",
"43 365 OFFCURVE",
"43 358 CURVE SMOOTH",
"43 301 OFFCURVE",
"69 246 OFFCURVE",
"111 206 CURVE SMOOTH",
"149 169 OFFCURVE",
"207 136 OFFCURVE",
"295 114 CURVE",
"234 -60 OFFCURVE",
"142 -224 OFFCURVE",
"-7 -224 CURVE SMOOTH",
"-111 -224 OFFCURVE",
"-187 -179 OFFCURVE",
"-187 20 CURVE SMOOTH",
"-187 52 LINE",
"-256 37 LINE",
"-259 11 OFFCURVE",
"-259 -1 OFFCURVE",
"-259 -6 CURVE SMOOTH",
"-259 -248 OFFCURVE",
"-143 -310 OFFCURVE",
"-15 -310 CURVE SMOOTH"
);
}
);
width = 486;
}
);
category = Letter;
subCategory = Other;
},
{
glyphname = LamedhFin;
lastChange = "2019-10-31 19:51:10 +0000";
layers = (
{
anchors = (
{
name = Anchor2;
position = "{249, -60}";
},
{
name = Anchor4;
position = "{207, -60}";
},
{
name = Anchor6;
position = "{150, 755}";
}
);
layerId = UUID0;
paths = (
{
closed = 1;
nodes = (
"264 0 LINE SMOOTH",
"335 0 OFFCURVE",
"410 11 OFFCURVE",
"437 59 CURVE",
"470 7 OFFCURVE",
"504 0 OFFCURVE",
"544 0 CURVE",
"544 76 LINE",
"526 76 OFFCURVE",
"512 96 OFFCURVE",
"492 125 CURVE SMOOTH",
"446 192 OFFCURVE",
"273 521 OFFCURVE",
"180 715 CURVE",
"108 679 LINE",
"164 547 OFFCURVE",
"345 199 OFFCURVE",
"390 123 CURVE",
"388 98 OFFCURVE",
"361 76 OFFCURVE",
"264 76 CURVE SMOOTH",
"50 76 LINE",
"50 0 LINE"
);
}
);
width = 544;
}
);
category = Letter;
subCategory = Other;
},
{
glyphname = LamedhMed;
lastChange = "2019-10-31 19:51:10 +0000";
layers = (
{
anchors = (
{
name = Anchor2;
position = "{167, -60}";
},
{
name = Anchor4;
position = "{80, -60}";
},
{
name = Anchor6;
position = "{-52, 756}";
}
);
layerId = UUID0;
paths = (
{
closed = 1;
nodes = (
"62 0 LINE SMOOTH",
"133 0 OFFCURVE",
"208 11 OFFCURVE",
"235 59 CURVE",
"268 7 OFFCURVE",
"302 0 OFFCURVE",
"342 0 CURVE",
"342 76 LINE",
"325 76 OFFCURVE",
"310 96 OFFCURVE",
"290 125 CURVE SMOOTH",
"244 192 OFFCURVE",
"71 521 OFFCURVE",
"-22 715 CURVE",
"-94 679 LINE",
"-38 547 OFFCURVE",
"143 199 OFFCURVE",
"188 123 CURVE",
"186 98 OFFCURVE",
"159 76 OFFCURVE",
"62 76 CURVE SMOOTH",
"0 76 LINE SMOOTH",
"-34 76 OFFCURVE",
"-43 57 OFFCURVE",
"-43 38 CURVE SMOOTH",
"-43 19 OFFCURVE",
"-34 0 OFFCURVE",
"0 0 CURVE SMOOTH"
);
}
);
width = 342;
}
);
category = Letter;
subCategory = Other;
},
{
glyphname = LamedhIni;
lastChange = "2019-10-31 19:51:10 +0000";
layers = (
{
anchors = (
{
name = Anchor2;
position = "{125, -60}";
},
{
name = Anchor4;
position = "{80, -60}";
},
{
name = Anchor6;
position = "{-52, 755}";
}
);
layerId = UUID0;
paths = (
{
closed = 1;
nodes = (
"45 0 LINE SMOOTH",
"145 0 OFFCURVE",
"262 9 OFFCURVE",
"262 123 CURVE SMOOTH",
"262 145 OFFCURVE",
"254 172 OFFCURVE",
"238 204 CURVE SMOOTH",
"171 334 OFFCURVE",
"49 566 OFFCURVE",
"-26 715 CURVE",
"-99 679 LINE",
"-41 564 OFFCURVE",
"90 305 OFFCURVE",
"157 174 CURVE SMOOTH",
"163 162 OFFCURVE",
"172 140 OFFCURVE",
"172 121 CURVE SMOOTH",
"172 101 OFFCURVE",
"160 76 OFFCURVE",
"68 76 CURVE SMOOTH",
"0 76 LINE SMOOTH",
"-34 76 OFFCURVE",
"-43 57 OFFCURVE",
"-43 38 CURVE SMOOTH",
"-43 19 OFFCURVE",
"-34 0 OFFCURVE",
"0 0 CURVE SMOOTH"
);
}
);
width = 312;
}
);
category = Letter;
subCategory = Other;
},
{
glyphname = MemFin;
lastChange = "2019-10-31 19:51:10 +0000";
layers = (
{
anchors = (
{
name = Anchor2;
position = "{257, -90}";
},
{
name = Anchor4;
position = "{235, -89}";
},
{
name = Anchor6;
position = "{267, 467}";
}
);
layerId = UUID0;
paths = (
{
closed = 1;
nodes = (
"233 401 LINE",
"246 376 OFFCURVE",
"262 343 OFFCURVE",
"277 311 CURVE",
"85 245 LINE",
"85 172 LINE",
"307 249 LINE",
"361 141 OFFCURVE",
"370 123 OFFCURVE",
"370 90 CURVE SMOOTH",
"370 52 OFFCURVE",
"333 47 OFFCURVE",
"275 47 CURVE SMOOTH",
"237 47 LINE SMOOTH",
"194 47 OFFCURVE",
"150 49 OFFCURVE",
"150 87 CURVE SMOOTH",
"150 92 LINE",
"82 92 LINE",
"81 86 OFFCURVE",
"81 80 OFFCURVE",
"81 75 CURVE SMOOTH",
"81 -24 OFFCURVE",
"190 -26 OFFCURVE",
"246 -26 CURVE SMOOTH",
"308 -26 OFFCURVE",
"369 -23 OFFCURVE",
"407 2 CURVE SMOOTH",
"420 11 OFFCURVE",
"432 23 OFFCURVE",
"440 38 CURVE",
"464 10 OFFCURVE",
"497 0 OFFCURVE",
"544 0 CURVE",
"544 76 LINE",
"481 76 OFFCURVE",
"460 107 OFFCURVE",
"442 146 CURVE",
"425 190 OFFCURVE",
"405 235 OFFCURVE",
"384 276 CURVE",
"499 316 LINE",
"476 379 LINE",
"353 337 LINE",
"304 426 LINE"
);
}
);
width = 544;
}
);
category = Letter;
subCategory = Other;
},
{
glyphname = MemMed;
lastChange = "2019-10-31 19:51:10 +0000";
layers = (
{
anchors = (
{
name = Anchor2;
position = "{148, -234}";
},
{
name = Anchor4;
position = "{138, -233}";
},
{
name = Anchor6;
position = "{160, 401}";
}
);
layerId = UUID0;
paths = (
{
closed = 1;
nodes = (
"161 143 LINE SMOOTH",
"90 85 OFFCURVE",
"33 76 OFFCURVE",
"0 76 CURVE SMOOTH",
"-29 76 OFFCURVE",
"-37 57 OFFCURVE",
"-37 38 CURVE SMOOTH",
"-37 19 OFFCURVE",
"-29 0 OFFCURVE",
"0 0 CURVE SMOOTH",
"39 0 OFFCURVE",
"105 8 OFFCURVE",
"188 71 CURVE SMOOTH",
"213 90 LINE",
"249 12 OFFCURVE",
"265 -23 OFFCURVE",
"265 -51 CURVE SMOOTH",
"265 -89 OFFCURVE",
"231 -95 OFFCURVE",
"173 -98 CURVE SMOOTH",
"131 -100 OFFCURVE",
"116 -100 OFFCURVE",
"108 -100 CURVE SMOOTH",
"74 -100 OFFCURVE",
"45 -94 OFFCURVE",
"43 -64 CURVE",
"-24 -64 LINE",
"-25 -71 OFFCURVE",
"-25 -77 OFFCURVE",
"-25 -79 CURVE SMOOTH",
"-22 -164 OFFCURVE",
"59 -172 OFFCURVE",
"117 -172 CURVE SMOOTH",
"131 -172 OFFCURVE",
"185 -170 OFFCURVE",
"217 -166 CURVE SMOOTH",
"250 -162 OFFCURVE",
"282 -154 OFFCURVE",
"303 -139 CURVE SMOOTH",
"328 -121 OFFCURVE",
"346 -95 OFFCURVE",
"346 -58 CURVE SMOOTH",
"346 -36 OFFCURVE",
"341 -14 OFFCURVE",
"324 26 CURVE",
"325 27 LINE",
"350 7 OFFCURVE",
"387 0 OFFCURVE",
"447 0 CURVE",
"447 76 LINE",
"352 76 OFFCURVE",
"308 92 OFFCURVE",
"284 131 CURVE",
"275 149 LINE",
"425 298 LINE",
"379 348 LINE",
"242 216 LINE",
"166 360 LINE",
"101 327 LINE",
"128 274 OFFCURVE",
"164 200 OFFCURVE",
"181 160 CURVE"
);
}
);
width = 447;
}
);
category = Letter;
subCategory = Other;
},
{
glyphname = MemIni;
lastChange = "2019-10-31 19:51:10 +0000";
layers = (
{
anchors = (
{
name = Anchor2;
position = "{150, -236}";
},
{
name = Anchor4;
position = "{138, -233}";
},
{
name = Anchor6;
position = "{159, 400}";
}
);
layerId = UUID0;
paths = (
{
closed = 1;
nodes = (
"161 143 LINE SMOOTH",
"90 85 OFFCURVE",
"33 76 OFFCURVE",
"0 76 CURVE SMOOTH",
"-29 76 OFFCURVE",
"-37 57 OFFCURVE",
"-37 38 CURVE SMOOTH",
"-37 19 OFFCURVE",
"-29 0 OFFCURVE",
"0 0 CURVE SMOOTH",
"39 0 OFFCURVE",
"105 8 OFFCURVE",
"188 71 CURVE SMOOTH",
"213 90 LINE",
"249 12 OFFCURVE",
"265 -23 OFFCURVE",
"265 -51 CURVE SMOOTH",
"265 -89 OFFCURVE",
"231 -95 OFFCURVE",
"173 -98 CURVE SMOOTH",
"131 -100 OFFCURVE",
"116 -100 OFFCURVE",
"108 -100 CURVE SMOOTH",
"74 -100 OFFCURVE",
"45 -94 OFFCURVE",
"43 -64 CURVE",
"-24 -64 LINE",
"-25 -71 OFFCURVE",
"-25 -77 OFFCURVE",
"-25 -79 CURVE SMOOTH",
"-22 -164 OFFCURVE",
"59 -172 OFFCURVE",
"117 -172 CURVE SMOOTH",
"131 -172 OFFCURVE",
"185 -170 OFFCURVE",
"217 -166 CURVE SMOOTH",
"250 -162 OFFCURVE",
"282 -154 OFFCURVE",
"303 -139 CURVE SMOOTH",
"328 -121 OFFCURVE",
"346 -95 OFFCURVE",
"346 -58 CURVE SMOOTH",
"346 -9 OFFCURVE",
"313 73 OFFCURVE",
"288 123 CURVE SMOOTH",
"275 149 LINE",
"425 298 LINE",
"379 348 LINE",
"242 216 LINE",
"166 360 LINE",
"101 327 LINE",
"128 274 OFFCURVE",
"164 200 OFFCURVE",
"181 160 CURVE"
);
}
);
width = 461;
}
);
category = Letter;
subCategory = Other;
},
{
glyphname = NunFin;
lastChange = "2019-10-31 19:51:10 +0000";
layers = (
{
anchors = (
{
name = Anchor2;
position = "{379, -60}";
},
{
name = Anchor4;
position = "{365, -60}";
},
{
name = Anchor6;
position = "{394, 442}";
}
);
layerId = UUID0;
paths = (
{
closed = 1;
nodes = (
"285 0 OFFCURVE",
"320 40 OFFCURVE",
"352 113 CURVE SMOOTH",
"366 145 OFFCURVE",
"375 174 OFFCURVE",
"386 216 CURVE",
"390 216 LINE SMOOTH",
"396 164 OFFCURVE",
"423 94 OFFCURVE",
"442 69 CURVE",
"383 69 LINE",
"370 0 LINE",
"568 0 LINE",
"568 76 LINE",
"542 76 OFFCURVE",
"518 89 OFFCURVE",
"494 140 CURVE SMOOTH",
"466 200 OFFCURVE",
"445 272 OFFCURVE",
"418 382 CURVE",
"363 382 LINE",
"343 300 OFFCURVE",
"315 206 OFFCURVE",
"285 139 CURVE SMOOTH",
"265 94 OFFCURVE",
"246 76 OFFCURVE",
"221 76 CURVE SMOOTH",
"178 76 OFFCURVE",
"169 107 OFFCURVE",
"164 192 CURVE SMOOTH",
"161 239 OFFCURVE",
"162 529 OFFCURVE",
"162 674 CURVE",
"89 674 LINE",
"85 564 OFFCURVE",
"80 323 OFFCURVE",
"80 196 CURVE SMOOTH",
"80 74 OFFCURVE",
"99 0 OFFCURVE",
"208 0 CURVE SMOOTH"
);
}
);
width = 568;
}
);
category = Letter;
subCategory = Other;
},
{
glyphname = NunMed;
lastChange = "2019-10-31 19:51:10 +0000";
layers = (
{
anchors = (
{
name = Anchor2;
position = "{172, -60}";
},
{
name = Anchor4;
position = "{157, -60}";
},
{
name = Anchor6;
position = "{186, 444}";
}
);
layerId = UUID0;
paths = (
{
closed = 1;
nodes = (
"182 216 LINE",
"188 164 OFFCURVE",
"215 94 OFFCURVE",
"234 69 CURVE",
"175 69 LINE",
"162 0 LINE",
"360 0 LINE",
"360 76 LINE",
"334 76 OFFCURVE",
"310 89 OFFCURVE",
"286 140 CURVE SMOOTH",
"258 200 OFFCURVE",
"237 272 OFFCURVE",
"210 382 CURVE",
"155 382 LINE",
"135 300 OFFCURVE",
"106 206 OFFCURVE",
"75 139 CURVE SMOOTH",
"54 94 OFFCURVE",
"25 76 OFFCURVE",
"0 76 CURVE SMOOTH",
"-34 76 OFFCURVE",
"-43 57 OFFCURVE",
"-43 38 CURVE SMOOTH",
"-43 19 OFFCURVE",
"-34 0 OFFCURVE",
"0 0 CURVE SMOOTH",
"68 0 OFFCURVE",
"110 40 OFFCURVE",
"144 113 CURVE SMOOTH",
"158 143 OFFCURVE",
"168 174 OFFCURVE",
"178 216 CURVE"
);
}
);
width = 360;
}
);
category = Letter;
subCategory = Other;
},
{
glyphname = NunIni;
lastChange = "2019-10-31 19:51:10 +0000";
layers = (
{
anchors = (
{
name = Anchor2;
position = "{163, -60}";
},
{
name = Anchor4;
position = "{142, -60}";
},
{
name = Anchor6;
position = "{186, 442}";
}
);
layerId = UUID0;
paths = (
{
closed = 1;
nodes = (
"189 229 LINE",
"197 208 OFFCURVE",
"206 188 OFFCURVE",
"214 171 CURVE SMOOTH",
"228 141 OFFCURVE",
"237 118 OFFCURVE",
"237 105 CURVE SMOOTH",
"237 90 OFFCURVE",
"229 76 OFFCURVE",
"192 76 CURVE SMOOTH",
"161 76 LINE",
"147 0 LINE",
"194 0 LINE SMOOTH",
"258 0 OFFCURVE",
"315 29 OFFCURVE",
"315 96 CURVE SMOOTH",
"315 124 OFFCURVE",
"310 142 OFFCURVE",
"281 204 CURVE SMOOTH",
"253 264 OFFCURVE",
"230 322 OFFCURVE",
"208 382 CURVE",
"156 382 LINE",
"132 294 OFFCURVE",
"104 204 OFFCURVE",
"66 135 CURVE SMOOTH",
"41 89 OFFCURVE",
"21 76 OFFCURVE",
"0 76 CURVE SMOOTH",
"-34 76 OFFCURVE",
"-43 57 OFFCURVE",
"-43 38 CURVE SMOOTH",
"-43 19 OFFCURVE",
"-34 0 OFFCURVE",
"0 0 CURVE SMOOTH",
"75 0 OFFCURVE",
"109 58 OFFCURVE",
"143 123 CURVE SMOOTH",
"161 157 OFFCURVE",
"173 192 OFFCURVE",
"185 229 CURVE"
);
}
);
width = 365;
}
);
category = Letter;
subCategory = Other;
},
{
glyphname = SamekhFin;
lastChange = "2019-10-31 19:51:10 +0000";
layers = (
{
anchors = (
{
name = Anchor2;
position = "{397, -235}";
},
{
name = Anchor4;
position = "{235, -203}";
},
{
name = Anchor6;
position = "{392, 443}";
}
);
layerId = UUID0;
paths = (
{
closed = 1;
nodes = (
"76 65 LINE",
"85 65 LINE",
"212 255 LINE",
"219 188 OFFCURVE",
"230 125 OFFCURVE",
"250 83 CURVE SMOOTH",
"272 37 OFFCURVE",
"302 -10 OFFCURVE",
"383 -10 CURVE SMOOTH",
"454 -10 OFFCURVE",
"494 38 OFFCURVE",
"512 93 CURVE",
"515 93 LINE",
"516 77 OFFCURVE",
"516 72 OFFCURVE",
"516 62 CURVE SMOOTH",
"516 -58 OFFCURVE",
"470 -101 OFFCURVE",
"338 -101 CURVE SMOOTH",
"303 -101 OFFCURVE",
"266 -97 OFFCURVE",
"215 -88 CURVE",
"215 -163 LINE",
"259 -176 OFFCURVE",
"300 -177 OFFCURVE",
"339 -177 CURVE SMOOTH",
"443 -177 OFFCURVE",
"521 -154 OFFCURVE",
"561 -92 CURVE SMOOTH",
"583 -59 OFFCURVE",
"590 -14 OFFCURVE",
"590 40 CURVE",
"592 40 LINE",
"609 19 OFFCURVE",
"636 0 OFFCURVE",
"681 0 CURVE",
"681 76 LINE",
"647 76 OFFCURVE",
"595 91 OFFCURVE",
"581 170 CURVE",
"574 240 OFFCURVE",
"564 323 OFFCURVE",
"556 382 CURVE",
"495 382 LINE",
"485 271 LINE SMOOTH",
"473 135 OFFCURVE",
"446 65 OFFCURVE",
"392 65 CURVE SMOOTH",
"338 65 OFFCURVE",
"311 136 OFFCURVE",
"285 289 CURVE SMOOTH",
"269 382 LINE",
"210 382 LINE",
"40 129 LINE"
);
}
);
width = 681;
}
);
category = Letter;
subCategory = Other;
},
{
glyphname = SamekhMed;
lastChange = "2019-10-31 19:51:10 +0000";
layers = (
{
anchors = (
{
name = Anchor2;
position = "{295, -237}";
},
{
name = Anchor4;
position = "{138, -203}";
},
{
name = Anchor6;
position = "{288, 442}";
}
);
layerId = UUID0;
paths = (
{
closed = 1;
nodes = (
"352 -10 OFFCURVE",
"392 38 OFFCURVE",
"410 93 CURVE",
"413 93 LINE",
"414 79 OFFCURVE",
"414 72 OFFCURVE",
"414 62 CURVE SMOOTH",
"414 -58 OFFCURVE",
"368 -101 OFFCURVE",
"236 -101 CURVE SMOOTH",
"201 -101 OFFCURVE",
"169 -97 OFFCURVE",
"118 -88 CURVE",
"118 -163 LINE",
"162 -176 OFFCURVE",
"198 -177 OFFCURVE",
"237 -177 CURVE SMOOTH",
"341 -177 OFFCURVE",
"419 -154 OFFCURVE",
"459 -92 CURVE SMOOTH",
"481 -59 OFFCURVE",
"488 -14 OFFCURVE",
"488 40 CURVE",
"490 40 LINE",
"507 19 OFFCURVE",
"534 0 OFFCURVE",
"579 0 CURVE",
"579 76 LINE",
"545 76 OFFCURVE",
"493 91 OFFCURVE",
"479 170 CURVE",
"472 240 OFFCURVE",
"462 323 OFFCURVE",
"454 382 CURVE",
"393 382 LINE",
"383 271 LINE SMOOTH",
"371 135 OFFCURVE",
"344 65 OFFCURVE",
"290 65 CURVE SMOOTH",
"236 65 OFFCURVE",
"209 136 OFFCURVE",
"183 289 CURVE SMOOTH",
"167 382 LINE",
"103 382 LINE",
"104 319 OFFCURVE",
"109 262 OFFCURVE",
"116 207 CURVE",
"116 201 LINE",
"116 116 OFFCURVE",
"72 76 OFFCURVE",
"0 76 CURVE SMOOTH",
"-34 76 OFFCURVE",
"-43 57 OFFCURVE",
"-43 38 CURVE SMOOTH",
"-43 19 OFFCURVE",
"-34 0 OFFCURVE",
"0 0 CURVE SMOOTH",
"50 0 OFFCURVE",
"114 12 OFFCURVE",
"155 69 CURVE",
"176 28 OFFCURVE",
"208 -10 OFFCURVE",
"281 -10 CURVE SMOOTH"
);
}
);
width = 579;
}
);
category = Letter;
subCategory = Other;
},
{
glyphname = SamekhIni;
lastChange = "2019-10-31 19:51:10 +0000";
layers = (
{
anchors = (
{
name = Anchor2;
position = "{293, -233}";
},
{
name = Anchor4;
position = "{138, -203}";
},
{
name = Anchor6;
position = "{287, 443}";
}
);
layerId = UUID0;
paths = (
{
closed = 1;
nodes = (
"352 -10 OFFCURVE",
"392 38 OFFCURVE",
"410 93 CURVE",
"413 93 LINE",
"414 78 OFFCURVE",
"414 72 OFFCURVE",
"414 62 CURVE SMOOTH",
"414 -58 OFFCURVE",
"368 -101 OFFCURVE",
"236 -101 CURVE SMOOTH",
"201 -101 OFFCURVE",
"169 -97 OFFCURVE",
"118 -88 CURVE",
"118 -163 LINE",
"162 -176 OFFCURVE",
"198 -177 OFFCURVE",
"237 -177 CURVE SMOOTH",
"341 -177 OFFCURVE",
"419 -154 OFFCURVE",
"459 -92 CURVE SMOOTH",
"481 -58 OFFCURVE",
"488 -13 OFFCURVE",
"488 42 CURVE SMOOTH",
"488 110 OFFCURVE",
"468 274 OFFCURVE",
"454 382 CURVE",
"393 382 LINE",
"383 271 LINE SMOOTH",
"371 135 OFFCURVE",
"344 65 OFFCURVE",
"290 65 CURVE SMOOTH",
"236 65 OFFCURVE",
"209 136 OFFCURVE",
"183 289 CURVE SMOOTH",
"167 382 LINE",
"103 382 LINE",
"105 319 OFFCURVE",
"108 262 OFFCURVE",
"116 207 CURVE",
"116 201 LINE SMOOTH",
"116 116 OFFCURVE",
"72 76 OFFCURVE",
"0 76 CURVE SMOOTH",
"-34 76 OFFCURVE",
"-43 57 OFFCURVE",
"-43 38 CURVE SMOOTH",
"-43 19 OFFCURVE",
"-34 0 OFFCURVE",
"0 0 CURVE SMOOTH",
"50 0 OFFCURVE",
"114 12 OFFCURVE",
"155 69 CURVE",
"176 28 OFFCURVE",
"208 -10 OFFCURVE",
"281 -10 CURVE SMOOTH"
);
}
);
width = 563;
}
);
category = Letter;
subCategory = Other;
},
{
glyphname = AyinFin;
lastChange = "2019-10-31 19:51:10 +0000";
layers = (
{
anchors = (
{
name = Anchor2;
position = "{429, -206}";
},
{
name = Anchor4;
position = "{399, -206}";
},
{
name = Anchor6;
position = "{462, 624}";
}
);
layerId = UUID0;
paths = (
{
closed = 1;
nodes = (
"225 561 OFFCURVE",
"80 375 OFFCURVE",
"80 188 CURVE SMOOTH",
"80 -11 OFFCURVE",
"193 -144 OFFCURVE",
"429 -144 CURVE SMOOTH",
"658 -144 OFFCURVE",
"753 27 OFFCURVE",
"753 149 CURVE SMOOTH",
"753 321 OFFCURVE",
"612 421 OFFCURVE",
"461 421 CURVE SMOOTH",
"309 421 OFFCURVE",
"219 294 OFFCURVE",
"219 188 CURVE SMOOTH",
"219 81 OFFCURVE",
"275 -7 OFFCURVE",
"432 -7 CURVE SMOOTH",
"562 -7 OFFCURVE",
"614 85 OFFCURVE",
"614 150 CURVE SMOOTH",
"614 233 OFFCURVE",
"553 282 OFFCURVE",
"465 282 CURVE SMOOTH",
"430 282 OFFCURVE",
"350 248 OFFCURVE",
"348 170 CURVE",
"419 170 LINE",
"419 198 OFFCURVE",
"452 215 OFFCURVE",
"472 215 CURVE SMOOTH",
"520 215 OFFCURVE",
"544 194 OFFCURVE",
"544 150 CURVE SMOOTH",
"544 117 OFFCURVE",
"517 62 OFFCURVE",
"441 62 CURVE SMOOTH",
"328 62 OFFCURVE",
"291 119 OFFCURVE",
"291 188 CURVE SMOOTH",
"291 258 OFFCURVE",
"353 347 OFFCURVE",
"461 347 CURVE SMOOTH",
"576 347 OFFCURVE",
"679 275 OFFCURVE",
"679 149 CURVE SMOOTH",
"679 48 OFFCURVE",
"604 -70 OFFCURVE",
"429 -70 CURVE SMOOTH",
"235 -70 OFFCURVE",
"155 37 OFFCURVE",
"155 188 CURVE SMOOTH",
"155 337 OFFCURVE",
"269 487 OFFCURVE",
"463 487 CURVE SMOOTH",
"658 487 OFFCURVE",
"763 385 OFFCURVE",
"833 167 CURVE SMOOTH",
"864 71 OFFCURVE",
"896 0 OFFCURVE",
"996 0 CURVE",
"996 76 LINE",
"950 76 OFFCURVE",
"928 132 OFFCURVE",
"900 207 CURVE SMOOTH",
"809 449 OFFCURVE",
"686 561 OFFCURVE",
"463 561 CURVE SMOOTH"
);
}
);
width = 996;
}
);
category = Letter;
subCategory = Other;
},
{
glyphname = AyinMed;
lastChange = "2019-10-31 19:51:10 +0000";
layers = (
{
anchors = (
{
name = Anchor2;
position = "{427, -205}";
},
{
name = Anchor4;
position = "{396, -206}";
},
{
name = Anchor6;
position = "{461, 621}";
}
);
layerId = UUID0;
paths = (
{
closed = 1;
nodes = (
"1002 240 LINE",
"1058 240 OFFCURVE",
"1097 212 OFFCURVE",
"1097 162 CURVE SMOOTH",
"1097 124 OFFCURVE",
"1076 73 OFFCURVE",
"1015 73 CURVE SMOOTH",
"947 73 OFFCURVE",
"925 132 OFFCURVE",
"898 205 CURVE SMOOTH",
"809 446 OFFCURVE",
"683 561 OFFCURVE",
"460 561 CURVE SMOOTH",
"222 561 OFFCURVE",
"77 375 OFFCURVE",
"77 188 CURVE SMOOTH",
"77 149 OFFCURVE",
"81 113 OFFCURVE",
"89 80 CURVE",
"59 77 OFFCURVE",
"34 76 OFFCURVE",
"0 76 CURVE SMOOTH",
"-36 76 OFFCURVE",
"-45 58 OFFCURVE",
"-45 38 CURVE SMOOTH",
"-45 18 OFFCURVE",
"-36 0 OFFCURVE",
"0 0 CURVE SMOOTH",
"30 0 OFFCURVE",
"70 0 OFFCURVE",
"118 7 CURVE",
"170 -87 OFFCURVE",
"272 -144 OFFCURVE",
"426 -144 CURVE SMOOTH",
"655 -144 OFFCURVE",
"750 27 OFFCURVE",
"750 149 CURVE SMOOTH",
"750 321 OFFCURVE",
"609 421 OFFCURVE",
"458 421 CURVE SMOOTH",
"306 421 OFFCURVE",
"216 294 OFFCURVE",
"216 188 CURVE SMOOTH",
"216 81 OFFCURVE",
"272 -7 OFFCURVE",
"429 -7 CURVE SMOOTH",
"559 -7 OFFCURVE",
"611 85 OFFCURVE",
"611 150 CURVE SMOOTH",
"611 233 OFFCURVE",
"550 282 OFFCURVE",
"462 282 CURVE SMOOTH",
"427 282 OFFCURVE",
"347 248 OFFCURVE",
"345 170 CURVE",
"416 170 LINE",
"416 198 OFFCURVE",
"449 215 OFFCURVE",
"469 215 CURVE SMOOTH",
"517 215 OFFCURVE",
"541 194 OFFCURVE",
"541 150 CURVE SMOOTH",
"541 117 OFFCURVE",
"514 62 OFFCURVE",
"438 62 CURVE SMOOTH",
"325 62 OFFCURVE",
"288 119 OFFCURVE",
"288 188 CURVE SMOOTH",
"288 258 OFFCURVE",
"350 347 OFFCURVE",
"458 347 CURVE SMOOTH",
"573 347 OFFCURVE",
"676 275 OFFCURVE",
"676 149 CURVE SMOOTH",
"676 48 OFFCURVE",
"601 -70 OFFCURVE",
"426 -70 CURVE SMOOTH",
"232 -70 OFFCURVE",
"152 37 OFFCURVE",
"152 188 CURVE SMOOTH",
"152 337 OFFCURVE",
"266 487 OFFCURVE",
"460 487 CURVE SMOOTH",
"655 487 OFFCURVE",
"760 385 OFFCURVE",
"830 167 CURVE SMOOTH",
"861 71 OFFCURVE",
"903 0 OFFCURVE",
"1016 0 CURVE SMOOTH",
"1138 0 OFFCURVE",
"1175 103 OFFCURVE",
"1175 165 CURVE SMOOTH",
"1175 260 OFFCURVE",
"1098 313 OFFCURVE",
"1002 313 CURVE"
);
}
);
width = 1215;
}
);
category = Letter;
subCategory = Other;
},
{
glyphname = AyinIni;
lastChange = "2019-10-31 19:51:10 +0000";
layers = (
{
anchors = (
{
name = Anchor2;
position = "{427, -205}";
},
{
name = Anchor4;
position = "{396, -206}";
},
{
name = Anchor6;
position = "{463, 621}";
}
);
layerId = UUID0;
paths = (
{
closed = 1;
nodes = (
"1058 240 OFFCURVE",
"1097 212 OFFCURVE",
"1097 162 CURVE SMOOTH",
"1097 124 OFFCURVE",
"1076 73 OFFCURVE",
"1015 73 CURVE SMOOTH",
"947 73 OFFCURVE",
"925 132 OFFCURVE",
"898 205 CURVE SMOOTH",
"809 446 OFFCURVE",
"683 561 OFFCURVE",
"460 561 CURVE SMOOTH",
"222 561 OFFCURVE",
"77 375 OFFCURVE",
"77 188 CURVE SMOOTH",
"77 149 OFFCURVE",
"81 113 OFFCURVE",
"89 80 CURVE",
"59 77 OFFCURVE",
"34 76 OFFCURVE",
"0 76 CURVE SMOOTH",
"-36 76 OFFCURVE",
"-45 58 OFFCURVE",
"-45 38 CURVE SMOOTH",
"-45 18 OFFCURVE",
"-36 0 OFFCURVE",
"0 0 CURVE SMOOTH",
"30 0 OFFCURVE",
"70 0 OFFCURVE",
"118 7 CURVE",
"170 -87 OFFCURVE",
"272 -144 OFFCURVE",
"426 -144 CURVE SMOOTH",
"655 -144 OFFCURVE",
"750 27 OFFCURVE",
"750 149 CURVE SMOOTH",
"750 321 OFFCURVE",
"609 421 OFFCURVE",
"458 421 CURVE SMOOTH",
"306 421 OFFCURVE",
"216 294 OFFCURVE",
"216 188 CURVE SMOOTH",
"216 81 OFFCURVE",
"272 -7 OFFCURVE",
"429 -7 CURVE SMOOTH",
"559 -7 OFFCURVE",
"611 85 OFFCURVE",
"611 150 CURVE SMOOTH",
"611 233 OFFCURVE",
"550 282 OFFCURVE",
"462 282 CURVE SMOOTH",
"427 282 OFFCURVE",
"347 248 OFFCURVE",
"345 170 CURVE",
"416 170 LINE",
"416 198 OFFCURVE",
"449 215 OFFCURVE",
"469 215 CURVE SMOOTH",
"517 215 OFFCURVE",
"541 194 OFFCURVE",
"541 150 CURVE SMOOTH",
"541 117 OFFCURVE",
"514 62 OFFCURVE",
"438 62 CURVE SMOOTH",
"325 62 OFFCURVE",
"288 119 OFFCURVE",
"288 188 CURVE SMOOTH",
"288 258 OFFCURVE",
"350 347 OFFCURVE",
"458 347 CURVE SMOOTH",
"573 347 OFFCURVE",
"676 275 OFFCURVE",
"676 149 CURVE SMOOTH",
"676 48 OFFCURVE",
"601 -70 OFFCURVE",
"426 -70 CURVE SMOOTH",
"232 -70 OFFCURVE",
"152 37 OFFCURVE",
"152 188 CURVE SMOOTH",
"152 337 OFFCURVE",
"266 487 OFFCURVE",
"460 487 CURVE SMOOTH",
"655 487 OFFCURVE",
"760 385 OFFCURVE",
"830 167 CURVE SMOOTH",
"861 71 OFFCURVE",
"903 0 OFFCURVE",
"1016 0 CURVE SMOOTH",
"1138 0 OFFCURVE",
"1175 103 OFFCURVE",
"1175 165 CURVE SMOOTH",
"1175 260 OFFCURVE",
"1098 313 OFFCURVE",
"1002 313 CURVE",
"1002 240 LINE"
);
}
);
width = 1215;
}
);
category = Letter;
subCategory = Other;
},
{
glyphname = PeFin;
lastChange = "2019-10-31 19:51:10 +0000";
layers = (
{
anchors = (
{
name = Anchor2;
position = "{351, -236}";
},
{
name = Anchor4;
position = "{325, -237}";
},
{
name = Anchor6;
position = "{523, 472}";
}
);
layerId = UUID0;
paths = (
{
closed = 1;
nodes = (
"687 331 OFFCURVE",
"634 410 OFFCURVE",
"522 410 CURVE SMOOTH",
"415 410 OFFCURVE",
"313 302 OFFCURVE",
"313 192 CURVE SMOOTH",
"313 101 OFFCURVE",
"356 52 OFFCURVE",
"440 25 CURVE SMOOTH",
"469 16 OFFCURVE",
"506 8 OFFCURVE",
"547 4 CURVE",
"508 -51 OFFCURVE",
"449 -91 OFFCURVE",
"367 -91 CURVE SMOOTH",
"251 -91 OFFCURVE",
"170 -38 OFFCURVE",
"164 231 CURVE SMOOTH",
"163 278 OFFCURVE",
"162 529 OFFCURVE",
"162 674 CURVE",
"89 674 LINE",
"85 564 OFFCURVE",
"80 343 OFFCURVE",
"80 216 CURVE SMOOTH",
"80 -88 OFFCURVE",
"187 -177 OFFCURVE",
"351 -177 CURVE SMOOTH",
"489 -177 OFFCURVE",
"581 -98 OFFCURVE",
"634 0 CURVE",
"754 0 LINE",
"754 76 LINE",
"666 76 LINE",
"681 121 OFFCURVE",
"687 162 OFFCURVE",
"687 197 CURVE SMOOTH"
);
},
{
closed = 1;
nodes = (
"394 264 OFFCURVE",
"455 330 OFFCURVE",
"518 330 CURVE SMOOTH",
"595 330 OFFCURVE",
"608 272 OFFCURVE",
"608 206 CURVE SMOOTH",
"608 166 OFFCURVE",
"600 120 OFFCURVE",
"584 76 CURVE",
"472 84 OFFCURVE",
"394 106 OFFCURVE",
"394 202 CURVE SMOOTH"
);
}
);
width = 754;
}
);
category = Letter;
subCategory = Other;
},
{
glyphname = PeMed;
lastChange = "2019-10-31 19:51:10 +0000";
layers = (
{
anchors = (
{
name = Anchor2;
position = "{238, -339}";
},
{
name = Anchor4;
position = "{-42, -370}";
},
{
name = Anchor6;
position = "{263, 473}";
}
);
layerId = UUID0;
paths = (
{
closed = 1;
nodes = (
"-113 -224 OFFCURVE",
"-188 -179 OFFCURVE",
"-188 20 CURVE SMOOTH",
"-188 52 LINE",
"-257 37 LINE",
"-260 11 OFFCURVE",
"-260 -1 OFFCURVE",
"-260 -6 CURVE SMOOTH",
"-260 -248 OFFCURVE",
"-144 -310 OFFCURVE",
"-16 -310 CURVE SMOOTH",
"122 -310 OFFCURVE",
"245 -211 OFFCURVE",
"324 -90 CURVE SMOOTH",
"343 -61 OFFCURVE",
"361 -31 OFFCURVE",
"376 0 CURVE",
"501 0 LINE",
"501 76 LINE",
"407 73 LINE",
"424 121 OFFCURVE",
"434 170 OFFCURVE",
"434 218 CURVE SMOOTH",
"434 339 OFFCURVE",
"373 410 OFFCURVE",
"266 410 CURVE SMOOTH",
"160 410 OFFCURVE",
"51 286 OFFCURVE",
"51 162 CURVE SMOOTH",
"51 45 OFFCURVE",
"153 5 OFFCURVE",
"284 0 CURVE",
"272 -20 OFFCURVE",
"259 -41 OFFCURVE",
"245 -62 CURVE SMOOTH",
"184 -152 OFFCURVE",
"92 -224 OFFCURVE",
"-8 -224 CURVE SMOOTH"
);
},
{
closed = 1;
nodes = (
"134 248 OFFCURVE",
"191 330 OFFCURVE",
"263 330 CURVE SMOOTH",
"339 330 OFFCURVE",
"355 269 OFFCURVE",
"355 214 CURVE SMOOTH",
"355 170 OFFCURVE",
"342 122 OFFCURVE",
"320 72 CURVE",
"232 75 OFFCURVE",
"134 89 OFFCURVE",
"134 179 CURVE SMOOTH"
);
}
);
width = 501;
}
);
category = Letter;
subCategory = Other;
},
{
glyphname = PeIni;
lastChange = "2019-10-31 19:51:10 +0000";
layers = (
{
anchors = (
{
name = Anchor2;
position = "{239, -339}";
},
{
name = Anchor4;
position = "{-42, -370}";
},
{
name = Anchor6;
position = "{264, 474}";
}
);
layerId = UUID0;
paths = (
{
closed = 1;
nodes = (
"-112 -224 OFFCURVE",
"-188 -179 OFFCURVE",
"-188 20 CURVE SMOOTH",
"-188 52 LINE",
"-257 37 LINE",
"-260 11 OFFCURVE",
"-260 -1 OFFCURVE",
"-260 -6 CURVE SMOOTH",
"-260 -248 OFFCURVE",
"-144 -310 OFFCURVE",
"-16 -310 CURVE SMOOTH",
"122 -310 OFFCURVE",
"245 -211 OFFCURVE",
"325 -90 CURVE SMOOTH",
"388 6 OFFCURVE",
"435 114 OFFCURVE",
"435 218 CURVE SMOOTH",
"435 339 OFFCURVE",
"373 410 OFFCURVE",
"267 410 CURVE SMOOTH",
"160 410 OFFCURVE",
"51 286 OFFCURVE",
"51 162 CURVE SMOOTH",
"51 45 OFFCURVE",
"153 5 OFFCURVE",
"284 0 CURVE",
"272 -21 OFFCURVE",
"260 -41 OFFCURVE",
"246 -62 CURVE SMOOTH",
"184 -152 OFFCURVE",
"93 -224 OFFCURVE",
"-8 -224 CURVE SMOOTH"
);
},
{
closed = 1;
nodes = (
"135 248 OFFCURVE",
"192 330 OFFCURVE",
"263 330 CURVE SMOOTH",
"340 330 OFFCURVE",
"355 269 OFFCURVE",
"355 214 CURVE SMOOTH",
"355 170 OFFCURVE",
"342 122 OFFCURVE",
"321 72 CURVE",
"233 75 OFFCURVE",
"135 89 OFFCURVE",
"135 179 CURVE SMOOTH"
);
}
);
width = 490;
}
);
category = Letter;
subCategory = Other;
},
{
glyphname = SadheFin;
lastChange = "2019-10-31 19:51:10 +0000";
layers = (
{
anchors = (
{
name = Anchor2;
position = "{483, -61}";
},
{
name = Anchor4;
position = "{286, -60}";
},
{
name = Anchor6;
position = "{480, 444}";
}
);
layerId = UUID0;
paths = (
{
closed = 1;
nodes = (
"587 114 OFFCURVE",
"588 94 OFFCURVE",
"591 81 CURVE SMOOTH",
"601 29 OFFCURVE",
"640 0 OFFCURVE",
"716 0 CURVE SMOOTH",
"757 0 LINE",
"757 76 LINE",
"722 76 LINE SMOOTH",
"682 76 OFFCURVE",
"672 93 OFFCURVE",
"668 116 CURVE SMOOTH",
"665 134 OFFCURVE",
"664 155 OFFCURVE",
"664 202 CURVE SMOOTH",
"664 232 OFFCURVE",
"665 284 OFFCURVE",
"667 313 CURVE",
"678 315 OFFCURVE",
"688 317 OFFCURVE",
"698 320 CURVE",
"698 390 LINE",
"693 390 LINE",
"654 380 OFFCURVE",
"547 376 OFFCURVE",
"490 376 CURVE SMOOTH",
"429 376 OFFCURVE",
"384 382 OFFCURVE",
"347 382 CURVE SMOOTH",
"324 382 OFFCURVE",
"308 367 OFFCURVE",
"308 344 CURVE SMOOTH",
"308 337 OFFCURVE",
"308 330 OFFCURVE",
"309 316 CURVE SMOOTH",
"312 262 OFFCURVE",
"315 228 OFFCURVE",
"315 176 CURVE SMOOTH",
"315 113 OFFCURVE",
"297 76 OFFCURVE",
"245 76 CURVE SMOOTH",
"208 76 OFFCURVE",
"166 91 OFFCURVE",
"164 182 CURVE SMOOTH",
"163 229 OFFCURVE",
"162 529 OFFCURVE",
"162 674 CURVE",
"89 674 LINE",
"85 564 OFFCURVE",
"80 316 OFFCURVE",
"80 189 CURVE SMOOTH",
"80 63 OFFCURVE",
"125 0 OFFCURVE",
"238 0 CURVE SMOOTH",
"361 0 OFFCURVE",
"395 82 OFFCURVE",
"395 179 CURVE SMOOTH",
"395 208 OFFCURVE",
"392 259 OFFCURVE",
"385 308 CURVE",
"417 305 OFFCURVE",
"453 304 OFFCURVE",
"475 304 CURVE SMOOTH",
"499 304 OFFCURVE",
"570 304 OFFCURVE",
"594 306 CURVE",
"590 243 OFFCURVE",
"587 180 OFFCURVE",
"587 135 CURVE SMOOTH"
);
}
);
width = 757;
}
);
category = Letter;
subCategory = Other;
},
{
glyphname = ReshFin;
lastChange = "2019-10-31 19:51:10 +0000";
layers = (
{
anchors = (
{
name = Anchor2;
position = "{242, -139}";
},
{
name = Anchor4;
position = "{80, -140}";
},
{
name = Anchor6;
position = "{246, 442}";
}
);
layerId = UUID0;
paths = (
{
closed = 1;
nodes = (
"464 76 LINE",
"441 76 OFFCURVE",
"392 78 OFFCURVE",
"341 113 CURVE",
"386 183 OFFCURVE",
"412 269 OFFCURVE",
"412 382 CURVE",
"342 382 LINE",
"337 304 OFFCURVE",
"324 231 OFFCURVE",
"279 161 CURVE",
"212 223 OFFCURVE",
"161 317 OFFCURVE",
"129 386 CURVE",
"57 353 LINE",
"78 286 OFFCURVE",
"167 156 OFFCURVE",
"230 98 CURVE",
"189 56 OFFCURVE",
"135 15 OFFCURVE",
"60 -25 CURVE",
"60 -114 LINE",
"152 -64 OFFCURVE",
"231 -14 OFFCURVE",
"291 49 CURVE",
"361 4 OFFCURVE",
"428 0 OFFCURVE",
"464 0 CURVE"
);
}
);
width = 464;
}
);
category = Letter;
subCategory = Other;
},
{
glyphname = ReshMed;
lastChange = "2019-10-31 19:51:10 +0000";
layers = (
{
anchors = (
{
name = Anchor2;
position = "{216, -60}";
},
{
name = Anchor4;
position = "{194, 9}";
},
{
name = Anchor6;
position = "{225, 442}";
}
);
layerId = UUID0;
paths = (
{
closed = 1;
nodes = (
"-34 76 OFFCURVE",
"-43 57 OFFCURVE",
"-43 38 CURVE SMOOTH",
"-43 19 OFFCURVE",
"-34 0 OFFCURVE",
"0 0 CURVE SMOOTH",
"83 0 OFFCURVE",
"177 21 OFFCURVE",
"246 67 CURVE",
"327 5 OFFCURVE",
"396 0 OFFCURVE",
"445 0 CURVE",
"445 76 LINE",
"413 76 OFFCURVE",
"357 80 OFFCURVE",
"309 123 CURVE",
"309 124 OFFCURVE",
"310 125 OFFCURVE",
"311 126 CURVE SMOOTH",
"353 184 OFFCURVE",
"393 268 OFFCURVE",
"393 382 CURVE",
"320 382 LINE",
"315 305 OFFCURVE",
"294 227 OFFCURVE",
"250 171 CURVE",
"183 239 OFFCURVE",
"128 341 OFFCURVE",
"110 386 CURVE",
"40 352 LINE",
"64 279 OFFCURVE",
"123 193 OFFCURVE",
"190 124 CURVE",
"136 89 OFFCURVE",
"68 76 OFFCURVE",
"0 76 CURVE SMOOTH"
);
}
);
width = 445;
}
);
category = Letter;
subCategory = Other;
},
{
glyphname = ReshIni;
lastChange = "2019-10-31 19:51:10 +0000";
layers = (
{
anchors = (
{
name = Anchor2;
position = "{205, -61}";
},
{
name = Anchor4;
position = "{214, 11}";
},
{
name = Anchor6;
position = "{224, 443}";
}
);
layerId = UUID0;
paths = (
{
closed = 1;
nodes = (
"383 382 LINE",
"313 382 LINE",
"309 330 OFFCURVE",
"304 283 OFFCURVE",
"292 244 CURVE",
"172 272 OFFCURVE",
"124 328 OFFCURVE",
"109 395 CURVE",
"107 395 LINE",
"46 374 LINE",
"45 369 OFFCURVE",
"45 364 OFFCURVE",
"45 359 CURVE SMOOTH",
"45 311 OFFCURVE",
"69 273 OFFCURVE",
"103 244 CURVE SMOOTH",
"132 219 OFFCURVE",
"186 189 OFFCURVE",
"264 169 CURVE",
"255 147 OFFCURVE",
"240 131 OFFCURVE",
"211 112 CURVE SMOOTH",
"166 83 OFFCURVE",
"104 76 OFFCURVE",
"16 76 CURVE SMOOTH",
"0 76 LINE SMOOTH",
"-34 76 OFFCURVE",
"-43 57 OFFCURVE",
"-43 38 CURVE SMOOTH",
"-43 19 OFFCURVE",
"-34 0 OFFCURVE",
"0 0 CURVE SMOOTH",
"25 0 LINE SMOOTH",
"147 0 OFFCURVE",
"222 27 OFFCURVE",
"263 56 CURVE SMOOTH",
"309 88 OFFCURVE",
"340 131 OFFCURVE",
"358 191 CURVE SMOOTH",
"373 240 OFFCURVE",
"383 300 OFFCURVE",
"383 375 CURVE SMOOTH"
);
}
);
width = 433;
}
);
category = Letter;
subCategory = Other;
},
{
glyphname = ShinFin;
lastChange = "2019-10-31 19:51:10 +0000";
layers = (
{
anchors = (
{
name = Anchor2;
position = "{397, -59}";
},
{
name = Anchor4;
position = "{157, -104}";
},
{
name = Anchor6;
position = "{497, 402}";
}
);
layerId = UUID0;
paths = (
{
closed = 1;
nodes = (
"308 270 OFFCURVE",
"325 244 OFFCURVE",
"325 213 CURVE SMOOTH",
"325 171 OFFCURVE",
"307 136 OFFCURVE",
"282 106 CURVE",
"137 11 LINE",
"178 -51 LINE",
"306 34 OFFCURVE",
"416 106 OFFCURVE",
"528 172 CURVE",
"521 157 OFFCURVE",
"519 143 OFFCURVE",
"519 126 CURVE SMOOTH",
"519 19 OFFCURVE",
"612 0 OFFCURVE",
"686 0 CURVE SMOOTH",
"765 0 LINE",
"765 76 LINE",
"690 76 LINE SMOOTH",
"630 76 OFFCURVE",
"592 100 OFFCURVE",
"592 155 CURVE SMOOTH",
"592 178 OFFCURVE",
"601 204 OFFCURVE",
"623 227 CURVE",
"662 248 OFFCURVE",
"702 270 OFFCURVE",
"744 291 CURVE",
"708 360 LINE",
"613 311 OFFCURVE",
"506 248 OFFCURVE",
"396 179 CURVE",
"400 194 OFFCURVE",
"403 211 OFFCURVE",
"403 228 CURVE SMOOTH",
"403 296 OFFCURVE",
"350 349 OFFCURVE",
"289 349 CURVE SMOOTH",
"229 349 OFFCURVE",
"178 309 OFFCURVE",
"100 246 CURVE SMOOTH",
"40 197 LINE",
"52 123 LINE",
"54 123 LINE",
"172 210 LINE SMOOTH",
"223 248 OFFCURVE",
"253 270 OFFCURVE",
"281 270 CURVE SMOOTH"
);
}
);
width = 765;
}
);
category = Letter;
subCategory = Other;
},
{
glyphname = ShinMed;
lastChange = "2019-10-31 19:51:10 +0000";
layers = (
{
anchors = (
{
name = Anchor2;
position = "{397, -60}";
},
{
name = Anchor4;
position = "{172, -107}";
},
{
name = Anchor6;
position = "{481, 403}";
}
);
layerId = UUID0;
paths = (
{
closed = 1;
nodes = (
"34 0 OFFCURVE",
"77 18 OFFCURVE",
"124 104 CURVE SMOOTH",
"171 190 LINE SMOOTH",
"205 252 OFFCURVE",
"227 270 OFFCURVE",
"253 270 CURVE SMOOTH",
"292 270 OFFCURVE",
"309 240 OFFCURVE",
"309 204 CURVE SMOOTH",
"309 154 OFFCURVE",
"279 106 OFFCURVE",
"243 69 CURVE",
"213 48 OFFCURVE",
"183 28 OFFCURVE",
"152 8 CURVE",
"193 -54 LINE",
"316 27 OFFCURVE",
"410 97 OFFCURVE",
"508 162 CURVE",
"504 150 OFFCURVE",
"503 139 OFFCURVE",
"503 126 CURVE SMOOTH",
"503 19 OFFCURVE",
"596 0 OFFCURVE",
"670 0 CURVE SMOOTH",
"749 0 LINE",
"749 76 LINE",
"674 76 LINE SMOOTH",
"614 76 OFFCURVE",
"576 100 OFFCURVE",
"576 155 CURVE SMOOTH",
"576 176 OFFCURVE",
"584 200 OFFCURVE",
"602 221 CURVE",
"642 245 OFFCURVE",
"683 268 OFFCURVE",
"728 291 CURVE",
"692 360 LINE",
"592 308 OFFCURVE",
"488 239 OFFCURVE",
"380 164 CURVE",
"384 181 OFFCURVE",
"387 198 OFFCURVE",
"387 216 CURVE SMOOTH",
"387 301 OFFCURVE",
"323 349 OFFCURVE",
"258 349 CURVE SMOOTH",
"181 349 OFFCURVE",
"142 297 OFFCURVE",
"94 206 CURVE SMOOTH",
"53 128 LINE SMOOTH",
"32 88 OFFCURVE",
"20 76 OFFCURVE",
"0 76 CURVE SMOOTH",
"-39 76 OFFCURVE",
"-51 56 OFFCURVE",
"-51 37 CURVE SMOOTH",
"-51 17 OFFCURVE",
"-40 0 OFFCURVE",
"0 0 CURVE SMOOTH"
);
}
);
width = 749;
}
);
category = Letter;
subCategory = Other;
},
{
glyphname = ShinIni;
lastChange = "2019-10-31 19:51:10 +0000";
layers = (
{
anchors = (
{
name = Anchor2;
position = "{415, -50}";
},
{
name = Anchor4;
position = "{172, -108}";
},
{
name = Anchor6;
position = "{417, 397}";
}
);
layerId = UUID0;
paths = (
{
closed = 1;
nodes = (
"34 0 OFFCURVE",
"77 18 OFFCURVE",
"124 104 CURVE SMOOTH",
"171 190 LINE SMOOTH",
"205 252 OFFCURVE",
"227 270 OFFCURVE",
"253 270 CURVE SMOOTH",
"292 270 OFFCURVE",
"309 240 OFFCURVE",
"309 204 CURVE SMOOTH",
"309 157 OFFCURVE",
"283 114 OFFCURVE",
"251 78 CURVE",
"219 56 OFFCURVE",
"187 33 OFFCURVE",
"152 7 CURVE",
"192 -51 LINE",
"384 83 OFFCURVE",
"483 151 OFFCURVE",
"679 246 CURVE",
"670 264 OFFCURVE",
"654 293 OFFCURVE",
"641 312 CURVE",
"549 270 OFFCURVE",
"468 223 OFFCURVE",
"381 166 CURVE",
"385 182 OFFCURVE",
"387 199 OFFCURVE",
"387 216 CURVE SMOOTH",
"387 301 OFFCURVE",
"323 349 OFFCURVE",
"258 349 CURVE SMOOTH",
"181 349 OFFCURVE",
"142 297 OFFCURVE",
"94 206 CURVE SMOOTH",
"53 128 LINE SMOOTH",
"32 88 OFFCURVE",
"20 76 OFFCURVE",
"0 76 CURVE SMOOTH",
"-39 76 OFFCURVE",
"-51 56 OFFCURVE",
"-51 37 CURVE SMOOTH",
"-51 17 OFFCURVE",
"-40 0 OFFCURVE",
"0 0 CURVE SMOOTH"
);
}
);
width = 720;
}
);
category = Letter;
subCategory = Other;
},
{
glyphname = TawFin;
lastChange = "2019-10-31 19:51:10 +0000";
layers = (
{
anchors = (
{
name = Anchor2;
position = "{472, -271}";
},
{
name = Anchor4;
position = "{444, -269}";
},
{
name = Anchor6;
position = "{509, 364}";
}
);
layerId = UUID0;
paths = (
{
closed = 1;
nodes = (
"767 76 LINE",
"750 76 OFFCURVE",
"741 76 OFFCURVE",
"715 77 CURVE",
"698 132 OFFCURVE",
"645 153 OFFCURVE",
"591 153 CURVE SMOOTH",
"536 153 OFFCURVE",
"462 118 OFFCURVE",
"384 97 CURVE",
"384 304 LINE",
"313 304 LINE",
"309 233 OFFCURVE",
"304 109 OFFCURVE",
"304 81 CURVE",
"282 77 OFFCURVE",
"264 76 OFFCURVE",
"252 76 CURVE SMOOTH",
"179 76 OFFCURVE",
"168 121 OFFCURVE",
"164 211 CURVE SMOOTH",
"162 258 OFFCURVE",
"162 529 OFFCURVE",
"162 674 CURVE",
"89 674 LINE",
"85 564 OFFCURVE",
"80 370 OFFCURVE",
"80 243 CURVE SMOOTH",
"80 141 OFFCURVE",
"90 96 OFFCURVE",
"110 63 CURVE SMOOTH",
"136 21 OFFCURVE",
"177 0 OFFCURVE",
"235 0 CURVE SMOOTH",
"254 0 OFFCURVE",
"276 2 OFFCURVE",
"301 7 CURVE",
"301 -28 LINE SMOOTH",
"301 -195 OFFCURVE",
"407 -209 OFFCURVE",
"473 -209 CURVE SMOOTH",
"592 -209 OFFCURVE",
"698 -111 OFFCURVE",
"718 2 CURVE",
"750 0 OFFCURVE",
"759 0 OFFCURVE",
"767 0 CURVE"
);
},
{
closed = 1;
nodes = (
"615 79 OFFCURVE",
"640 60 OFFCURVE",
"640 31 CURVE SMOOTH",
"640 -46 OFFCURVE",
"561 -134 OFFCURVE",
"473 -134 CURVE SMOOTH",
"430 -134 OFFCURVE",
"381 -122 OFFCURVE",
"381 -21 CURVE SMOOTH",
"381 22 LINE",
"465 44 OFFCURVE",
"542 79 OFFCURVE",
"582 79 CURVE SMOOTH"
);
}
);
width = 767;
}
);
category = Letter;
subCategory = Other;
},
{
glyphname = TawMed;
lastChange = "2019-10-31 19:51:10 +0000";
layers = (
{
anchors = (
{
name = Anchor2;
position = "{253, -270}";
},
{
name = Anchor4;
position = "{224, -269}";
},
{
name = Anchor6;
position = "{290, 361}";
}
);
layerId = UUID0;
paths = (
{
closed = 1;
nodes = (
"19 0 OFFCURVE",
"56 2 OFFCURVE",
"81 7 CURVE",
"81 -28 LINE SMOOTH",
"81 -195 OFFCURVE",
"187 -209 OFFCURVE",
"253 -209 CURVE SMOOTH",
"372 -209 OFFCURVE",
"479 -112 OFFCURVE",
"498 2 CURVE",
"530 0 OFFCURVE",
"539 0 OFFCURVE",
"547 0 CURVE",
"547 76 LINE",
"530 76 OFFCURVE",
"521 76 OFFCURVE",
"495 77 CURVE",
"478 132 OFFCURVE",
"425 153 OFFCURVE",
"371 153 CURVE SMOOTH",
"316 153 OFFCURVE",
"242 118 OFFCURVE",
"164 97 CURVE",
"164 304 LINE",
"93 304 LINE",
"89 233 OFFCURVE",
"84 109 OFFCURVE",
"84 81 CURVE",
"62 77 OFFCURVE",
"12 76 OFFCURVE",
"0 76 CURVE SMOOTH",
"-34 76 OFFCURVE",
"-43 57 OFFCURVE",
"-43 38 CURVE SMOOTH",
"-43 19 OFFCURVE",
"-34 0 OFFCURVE",
"0 0 CURVE SMOOTH"
);
},
{
closed = 1;
nodes = (
"395 79 OFFCURVE",
"420 60 OFFCURVE",
"420 31 CURVE SMOOTH",
"420 -46 OFFCURVE",
"341 -134 OFFCURVE",
"253 -134 CURVE SMOOTH",
"210 -134 OFFCURVE",
"161 -122 OFFCURVE",
"161 -21 CURVE SMOOTH",
"161 22 LINE",
"245 44 OFFCURVE",
"322 79 OFFCURVE",
"362 79 CURVE SMOOTH"
);
}
);
width = 547;
}
);
category = Letter;
subCategory = Other;
},
{
glyphname = TawIni;
lastChange = "2019-10-31 19:51:10 +0000";
layers = (
{
anchors = (
{
name = Anchor2;
position = "{253, -269}";
},
{
name = Anchor4;
position = "{224, -269}";
},
{
name = Anchor6;
position = "{290, 361}";
}
);
layerId = UUID0;
paths = (
{
closed = 1;
nodes = (
"19 0 OFFCURVE",
"56 2 OFFCURVE",
"81 7 CURVE",
"81 -28 LINE SMOOTH",
"81 -195 OFFCURVE",
"187 -209 OFFCURVE",
"253 -209 CURVE SMOOTH",
"385 -209 OFFCURVE",
"501 -91 OFFCURVE",
"501 39 CURVE SMOOTH",
"501 122 OFFCURVE",
"436 153 OFFCURVE",
"371 153 CURVE SMOOTH",
"316 153 OFFCURVE",
"242 118 OFFCURVE",
"164 97 CURVE",
"164 304 LINE",
"93 304 LINE",
"89 233 OFFCURVE",
"84 109 OFFCURVE",
"84 81 CURVE",
"62 77 OFFCURVE",
"12 76 OFFCURVE",
"0 76 CURVE SMOOTH",
"-34 76 OFFCURVE",
"-43 57 OFFCURVE",
"-43 38 CURVE SMOOTH",
"-43 19 OFFCURVE",
"-34 0 OFFCURVE",
"0 0 CURVE SMOOTH"
);
},
{
closed = 1;
nodes = (
"395 79 OFFCURVE",
"420 60 OFFCURVE",
"420 31 CURVE SMOOTH",
"420 -46 OFFCURVE",
"341 -134 OFFCURVE",
"253 -134 CURVE SMOOTH",
"210 -134 OFFCURVE",
"161 -122 OFFCURVE",
"161 -21 CURVE SMOOTH",
"161 22 LINE",
"245 44 OFFCURVE",
"322 79 OFFCURVE",
"362 79 CURVE SMOOTH"
);
}
);
width = 542;
}
);
category = Letter;
subCategory = Other;
},
{
glyphname = FethFin;
lastChange = "2019-10-31 19:51:10 +0000";
layers = (
{
anchors = (
{
name = Anchor2;
position = "{416, -59}";
},
{
name = Anchor4;
position = "{407, -60}";
},
{
name = Anchor6;
position = "{550, 444}";
}
);
layerId = UUID0;
paths = (
{
closed = 1;
nodes = (
"450 222 OFFCURVE",
"499 229 OFFCURVE",
"538 301 CURVE",
"573 228 OFFCURVE",
"622 222 OFFCURVE",
"654 222 CURVE SMOOTH",
"686 222 OFFCURVE",
"718 237 OFFCURVE",
"736 275 CURVE",
"741 254 OFFCURVE",
"746 202 OFFCURVE",
"746 186 CURVE SMOOTH",
"746 113 OFFCURVE",
"735 76 OFFCURVE",
"653 76 CURVE SMOOTH",
"50 76 LINE",
"50 0 LINE",
"650 0 LINE SMOOTH",
"716 0 OFFCURVE",
"758 16 OFFCURVE",
"784 48 CURVE",
"800 23 OFFCURVE",
"834 0 OFFCURVE",
"900 0 CURVE",
"900 76 LINE",
"838 76 OFFCURVE",
"826 110 OFFCURVE",
"823 141 CURVE",
"824 150 OFFCURVE",
"825 159 OFFCURVE",
"825 168 CURVE SMOOTH",
"825 225 OFFCURVE",
"811 308 OFFCURVE",
"794 382 CURVE",
"732 382 LINE",
"719 313 OFFCURVE",
"691 293 OFFCURVE",
"660 293 CURVE SMOOTH",
"625 293 OFFCURVE",
"593 320 OFFCURVE",
"575 382 CURVE",
"513 382 LINE",
"492 329 OFFCURVE",
"463 293 OFFCURVE",
"428 293 CURVE SMOOTH",
"397 293 OFFCURVE",
"370 317 OFFCURVE",
"355 390 CURVE",
"286 376 LINE",
"299 249 OFFCURVE",
"365 222 OFFCURVE",
"418 222 CURVE SMOOTH"
);
}
);
width = 900;
}
);
category = Letter;
subCategory = Other;
},
{
glyphname = FethMed;
lastChange = "2019-10-31 19:51:10 +0000";
layers = (
{
anchors = (
{
name = Anchor2;
position = "{267, -60}";
},
{
name = Anchor4;
position = "{237, -60}";
},
{
name = Anchor6;
position = "{303, 444}";
}
);
layerId = UUID0;
paths = (
{
closed = 1;
nodes = (
"204 222 OFFCURVE",
"253 229 OFFCURVE",
"292 301 CURVE",
"327 228 OFFCURVE",
"376 222 OFFCURVE",
"408 222 CURVE SMOOTH",
"440 222 OFFCURVE",
"472 237 OFFCURVE",
"490 275 CURVE",
"495 254 OFFCURVE",
"500 202 OFFCURVE",
"500 186 CURVE SMOOTH",
"500 113 OFFCURVE",
"489 76 OFFCURVE",
"407 76 CURVE SMOOTH",
"0 76 LINE SMOOTH",
"-34 76 OFFCURVE",
"-43 57 OFFCURVE",
"-43 38 CURVE SMOOTH",
"-43 19 OFFCURVE",
"-34 0 OFFCURVE",
"0 0 CURVE SMOOTH",
"404 0 LINE SMOOTH",
"470 0 OFFCURVE",
"512 16 OFFCURVE",
"538 48 CURVE",
"554 23 OFFCURVE",
"588 0 OFFCURVE",
"654 0 CURVE",
"654 76 LINE",
"592 76 OFFCURVE",
"580 110 OFFCURVE",
"577 141 CURVE",
"578 150 OFFCURVE",
"579 159 OFFCURVE",
"579 168 CURVE SMOOTH",
"579 225 OFFCURVE",
"565 308 OFFCURVE",
"548 382 CURVE",
"486 382 LINE",
"473 313 OFFCURVE",
"445 293 OFFCURVE",
"414 293 CURVE SMOOTH",
"379 293 OFFCURVE",
"347 320 OFFCURVE",
"329 382 CURVE",
"267 382 LINE",
"246 329 OFFCURVE",
"217 293 OFFCURVE",
"182 293 CURVE SMOOTH",
"151 293 OFFCURVE",
"124 317 OFFCURVE",
"109 390 CURVE",
"40 376 LINE",
"53 249 OFFCURVE",
"119 222 OFFCURVE",
"172 222 CURVE SMOOTH"
);
}
);
width = 654;
}
);
category = Letter;
subCategory = Other;
},
{
glyphname = FethIni;
lastChange = "2019-10-31 19:51:10 +0000";
layers = (
{
anchors = (
{
name = Anchor2;
position = "{267, -60}";
},
{
name = Anchor4;
position = "{237, -60}";
},
{
name = Anchor6;
position = "{304, 443}";
}
);
layerId = UUID0;
paths = (
{
closed = 1;
nodes = (
"204 222 OFFCURVE",
"253 229 OFFCURVE",
"292 301 CURVE",
"327 228 OFFCURVE",
"376 222 OFFCURVE",
"408 222 CURVE SMOOTH",
"440 222 OFFCURVE",
"472 237 OFFCURVE",
"490 275 CURVE",
"495 254 OFFCURVE",
"500 202 OFFCURVE",
"500 186 CURVE SMOOTH",
"500 113 OFFCURVE",
"489 76 OFFCURVE",
"407 76 CURVE SMOOTH",
"0 76 LINE SMOOTH",
"-34 76 OFFCURVE",
"-43 57 OFFCURVE",
"-43 38 CURVE SMOOTH",
"-43 19 OFFCURVE",
"-34 0 OFFCURVE",
"0 0 CURVE SMOOTH",
"404 0 LINE SMOOTH",
"531 0 OFFCURVE",
"579 59 OFFCURVE",
"579 168 CURVE SMOOTH",
"579 225 OFFCURVE",
"565 308 OFFCURVE",
"548 382 CURVE",
"486 382 LINE",
"473 313 OFFCURVE",
"445 293 OFFCURVE",
"414 293 CURVE SMOOTH",
"379 293 OFFCURVE",
"347 320 OFFCURVE",
"329 382 CURVE",
"267 382 LINE",
"246 329 OFFCURVE",
"217 293 OFFCURVE",
"182 293 CURVE SMOOTH",
"151 293 OFFCURVE",
"124 317 OFFCURVE",
"109 390 CURVE",
"40 376 LINE",
"53 249 OFFCURVE",
"119 222 OFFCURVE",
"172 222 CURVE SMOOTH"
);
}
);
width = 655;
}
);
category = Letter;
subCategory = Other;
},
{
glyphname = LeshFin;
lastChange = "2019-10-31 19:51:10 +0000";
layers = (
{
anchors = (
{
name = Anchor2;
position = "{223, -218}";
},
{
name = Anchor4;
position = "{364, -208}";
},
{
name = Anchor6;
position = "{243, 443}";
}
);
layerId = UUID0;
paths = (
{
closed = 1;
nodes = (
"470 76 LINE",
"446 76 OFFCURVE",
"394 78 OFFCURVE",
"341 117 CURVE",
"386 189 OFFCURVE",
"410 271 OFFCURVE",
"410 367 CURVE SMOOTH",
"410 382 LINE",
"337 382 LINE",
"332 305 OFFCURVE",
"322 236 OFFCURVE",
"282 165 CURVE",
"214 227 OFFCURVE",
"164 317 OFFCURVE",
"131 386 CURVE",
"57 353 LINE",
"79 285 OFFCURVE",
"170 154 OFFCURVE",
"233 98 CURVE",
"194 53 OFFCURVE",
"141 6 OFFCURVE",
"67 -44 CURVE",
"67 -114 LINE",
"385 -180 LINE",
"393 -97 LINE",
"172 -53 LINE",
"218 -20 OFFCURVE",
"259 14 OFFCURVE",
"292 52 CURVE",
"364 4 OFFCURVE",
"433 0 OFFCURVE",
"470 0 CURVE"
);
}
);
width = 470;
}
);
category = Letter;
subCategory = Other;
},
{
glyphname = LeshMed;
lastChange = "2019-10-31 19:51:10 +0000";
layers = (
{
anchors = (
{
name = Anchor2;
position = "{222, -217}";
},
{
name = Anchor4;
position = "{354, -211}";
},
{
name = Anchor6;
position = "{230, 443}";
}
);
layerId = UUID0;
paths = (
{
closed = 1;
nodes = (
"375 -180 LINE",
"383 -100 LINE",
"173 -52 LINE",
"206 -21 OFFCURVE",
"236 14 OFFCURVE",
"263 49 CURVE",
"335 4 OFFCURVE",
"401 0 OFFCURVE",
"445 0 CURVE",
"445 76 LINE",
"414 76 OFFCURVE",
"357 80 OFFCURVE",
"308 118 CURVE",
"314 126 LINE SMOOTH",
"356 184 OFFCURVE",
"396 268 OFFCURVE",
"396 382 CURVE",
"323 382 LINE",
"317 302 OFFCURVE",
"302 223 OFFCURVE",
"252 166 CURVE",
"182 234 OFFCURVE",
"133 339 OFFCURVE",
"114 386 CURVE",
"44 352 LINE",
"73 275 OFFCURVE",
"123 187 OFFCURVE",
"194 117 CURVE",
"138 85 OFFCURVE",
"65 76 OFFCURVE",
"0 76 CURVE SMOOTH",
"-34 76 OFFCURVE",
"-43 57 OFFCURVE",
"-43 38 CURVE SMOOTH",
"-43 19 OFFCURVE",
"-34 0 OFFCURVE",
"0 0 CURVE SMOOTH",
"45 0 OFFCURVE",
"121 10 OFFCURVE",
"167 38 CURVE",
"168 33 LINE",
"156 17 OFFCURVE",
"107 -30 OFFCURVE",
"82 -50 CURVE",
"82 -114 LINE"
);
}
);
width = 445;
}
);
category = Letter;
subCategory = Other;
},
{
glyphname = LeshIni;
lastChange = "2019-10-31 19:51:10 +0000";
layers = (
{
anchors = (
{
name = Anchor2;
position = "{205, -242}";
},
{
name = Anchor4;
position = "{333, -231}";
},
{
name = Anchor6;
position = "{220, 442}";
}
);
layerId = UUID0;
paths = (
{
closed = 1;
nodes = (
"354 -200 LINE",
"362 -120 LINE",
"157 -73 LINE",
"306 59 OFFCURVE",
"383 187 OFFCURVE",
"383 375 CURVE SMOOTH",
"383 382 LINE",
"313 382 LINE",
"309 330 OFFCURVE",
"304 283 OFFCURVE",
"292 244 CURVE",
"172 272 OFFCURVE",
"124 328 OFFCURVE",
"109 395 CURVE",
"107 395 LINE",
"46 374 LINE",
"45 369 OFFCURVE",
"45 364 OFFCURVE",
"45 359 CURVE SMOOTH",
"45 311 OFFCURVE",
"69 273 OFFCURVE",
"103 244 CURVE SMOOTH",
"132 220 OFFCURVE",
"184 190 OFFCURVE",
"260 170 CURVE",
"248 149 OFFCURVE",
"228 128 OFFCURVE",
"194 111 CURVE SMOOTH",
"127 77 OFFCURVE",
"63 76 OFFCURVE",
"15 76 CURVE SMOOTH",
"0 76 LINE SMOOTH",
"-34 76 OFFCURVE",
"-43 57 OFFCURVE",
"-43 38 CURVE SMOOTH",
"-43 19 OFFCURVE",
"-34 0 OFFCURVE",
"0 0 CURVE SMOOTH",
"50 0 OFFCURVE",
"113 3 OFFCURVE",
"178 39 CURVE",
"180 36 LINE",
"154 9 OFFCURVE",
"87 -52 OFFCURVE",
"61 -70 CURVE",
"61 -135 LINE"
);
}
);
width = 433;
}
);
category = Letter;
subCategory = Other;
},
{
glyphname = oneSogdFin;
lastChange = "2019-10-31 19:51:10 +0000";
layers = (
{
anchors = (
{
name = Anchor2;
position = "{165, -60}";
},
{
name = Anchor4;
position = "{68, -44}";
},
{
name = Anchor6;
position = "{188, 411}";
}
);
layerId = UUID0;
paths = (
{
closed = 1;
nodes = (
"174 119 LINE",
"191 49 OFFCURVE",
"232 0 OFFCURVE",
"325 0 CURVE",
"325 76 LINE",
"268 76 OFFCURVE",
"235 118 OFFCURVE",
"222 218 CURVE",
"221 261 OFFCURVE",
"219 313 OFFCURVE",
"215 351 CURVE",
"151 351 LINE",
"138 266 LINE SMOOTH",
"123 169 OFFCURVE",
"102 76 OFFCURVE",
"20 76 CURVE",
"20 0 LINE",
"101 0 OFFCURVE",
"142 49 OFFCURVE",
"170 119 CURVE"
);
}
);
width = 325;
}
);
category = Letter;
subCategory = Other;
},
{
glyphname = oneSogdMed;
lastChange = "2019-10-31 19:51:10 +0000";
layers = (
{
anchors = (
{
name = Anchor2;
position = "{145, -60}";
},
{
name = Anchor4;
position = "{48, -44}";
},
{
name = Anchor6;
position = "{168, 411}";
}
);
layerId = UUID0;
paths = (
{
closed = 1;
nodes = (
"154 119 LINE",
"170 49 OFFCURVE",
"214 0 OFFCURVE",
"305 0 CURVE",
"305 76 LINE",
"248 76 OFFCURVE",
"215 118 OFFCURVE",
"202 218 CURVE",
"201 261 OFFCURVE",
"199 313 OFFCURVE",
"195 351 CURVE",
"131 351 LINE",
"118 266 LINE SMOOTH",
"103 169 OFFCURVE",
"82 76 OFFCURVE",
"0 76 CURVE SMOOTH",
"-34 76 OFFCURVE",
"-43 57 OFFCURVE",
"-43 38 CURVE SMOOTH",
"-43 19 OFFCURVE",
"-34 0 OFFCURVE",
"0 0 CURVE SMOOTH",
"80 0 OFFCURVE",
"122 49 OFFCURVE",
"150 119 CURVE"
);
}
);
width = 305;
}
);
category = Letter;
subCategory = Other;
},
{
glyphname = oneSogdIni;
lastChange = "2019-10-31 19:51:10 +0000";
layers = (
{
anchors = (
{
name = Anchor2;
position = "{159, -60}";
},
{
name = Anchor4;
position = "{210, -65}";
},
{
name = Anchor6;
position = "{168, 411}";
}
);
layerId = UUID0;
paths = (
{
closed = 1;
nodes = (
"99 0 OFFCURVE",
"150 80 OFFCURVE",
"164 182 CURVE",
"168 182 LINE SMOOTH",
"179 124 OFFCURVE",
"189 51 OFFCURVE",
"194 0 CURVE",
"276 0 LINE",
"271 86 OFFCURVE",
"216 299 OFFCURVE",
"195 351 CURVE",
"135 351 LINE",
"108 183 OFFCURVE",
"84 76 OFFCURVE",
"0 76 CURVE",
"-34 76 OFFCURVE",
"-43 57 OFFCURVE",
"-43 38 CURVE SMOOTH",
"-43 19 OFFCURVE",
"-34 0 OFFCURVE",
"0 0 CURVE SMOOTH"
);
}
);
width = 336;
}
);
category = Letter;
subCategory = Other;
},
{
glyphname = tenSogdFin;
lastChange = "2019-10-31 19:51:10 +0000";
layers = (
{
anchors = (
{
name = Anchor2;
position = "{329, -59}";
},
{
name = Anchor4;
position = "{314, -59}";
},
{
name = Anchor6;
position = "{216, 599}";
}
);
layerId = UUID0;
paths = (
{
closed = 1;
nodes = (
"394 0 LINE SMOOTH",
"474 0 OFFCURVE",
"563 2 OFFCURVE",
"606 53 CURVE",
"633 10 OFFCURVE",
"668 0 OFFCURVE",
"707 0 CURVE SMOOTH",
"713 0 LINE",
"713 76 LINE",
"695 76 OFFCURVE",
"653 91 OFFCURVE",
"630 145 CURVE",
"624 189 OFFCURVE",
"589 224 OFFCURVE",
"540 268 CURVE SMOOTH",
"208 569 LINE",
"149 507 LINE",
"504 191 LINE SMOOTH",
"528 169 OFFCURVE",
"547 147 OFFCURVE",
"547 126 CURVE SMOOTH",
"547 96 OFFCURVE",
"533 76 OFFCURVE",
"458 76 CURVE SMOOTH",
"60 76 LINE",
"60 0 LINE"
);
}
);
width = 713;
}
);
category = Letter;
subCategory = Other;
},
{
glyphname = tenSogdMed;
lastChange = "2019-10-31 19:51:10 +0000";
layers = (
{
anchors = (
{
name = Anchor2;
position = "{179, -60}";
},
{
name = Anchor4;
position = "{164, -60}";
},
{
name = Anchor6;
position = "{-23, 599}";
}
);
layerId = UUID0;
paths = (
{
closed = 1;
nodes = (
"0 76 LINE SMOOTH",
"-34 76 OFFCURVE",
"-43 57 OFFCURVE",
"-43 38 CURVE SMOOTH",
"-43 19 OFFCURVE",
"-34 0 OFFCURVE",
"0 0 CURVE SMOOTH",
"155 0 LINE SMOOTH",
"235 0 OFFCURVE",
"324 2 OFFCURVE",
"367 53 CURVE",
"394 10 OFFCURVE",
"429 0 OFFCURVE",
"468 0 CURVE SMOOTH",
"474 0 LINE",
"474 76 LINE",
"456 76 OFFCURVE",
"414 91 OFFCURVE",
"391 145 CURVE",
"385 189 OFFCURVE",
"350 224 OFFCURVE",
"301 268 CURVE SMOOTH",
"-31 569 LINE",
"-90 507 LINE",
"265 191 LINE SMOOTH",
"289 169 OFFCURVE",
"308 147 OFFCURVE",
"308 126 CURVE SMOOTH",
"308 96 OFFCURVE",
"294 76 OFFCURVE",
"219 76 CURVE SMOOTH"
);
}
);
width = 474;
}
);
category = Letter;
subCategory = Other;
},
{
glyphname = tenSogdIni;
lastChange = "2019-10-31 19:51:10 +0000";
layers = (
{
anchors = (
{
name = Anchor2;
position = "{179, -60}";
},
{
name = Anchor4;
position = "{164, -60}";
},
{
name = Anchor6;
position = "{-23, 600}";
}
);
layerId = UUID0;
paths = (
{
closed = 1;
nodes = (
"0 76 LINE SMOOTH",
"-34 76 OFFCURVE",
"-43 57 OFFCURVE",
"-43 38 CURVE SMOOTH",
"-43 19 OFFCURVE",
"-34 0 OFFCURVE",
"0 0 CURVE SMOOTH",
"155 0 LINE SMOOTH",
"265 0 OFFCURVE",
"392 4 OFFCURVE",
"392 132 CURVE SMOOTH",
"392 183 OFFCURVE",
"355 219 OFFCURVE",
"301 268 CURVE SMOOTH",
"-31 569 LINE",
"-90 507 LINE",
"265 191 LINE SMOOTH",
"289 169 OFFCURVE",
"308 147 OFFCURVE",
"308 126 CURVE SMOOTH",
"308 96 OFFCURVE",
"294 76 OFFCURVE",
"219 76 CURVE SMOOTH"
);
}
);
width = 457;
}
);
category = Letter;
subCategory = Other;
},
{
glyphname = twentySogdFin;
lastChange = "2019-10-31 19:51:10 +0000";
layers = (
{
anchors = (
{
name = Anchor2;
position = "{329, -60}";
},
{
name = Anchor4;
position = "{314, -60}";
},
{
name = Anchor6;
position = "{309, 699}";
}
);
layerId = UUID0;
paths = (
{
closed = 1;
nodes = (
"439 584 OFFCURVE",
"392 648 OFFCURVE",
"306 648 CURVE SMOOTH",
"199 648 OFFCURVE",
"155 572 OFFCURVE",
"155 513 CURVE SMOOTH",
"155 462 OFFCURVE",
"185 424 OFFCURVE",
"234 387 CURVE SMOOTH",
"484 196 LINE SMOOTH",
"536 156 OFFCURVE",
"547 145 OFFCURVE",
"547 125 CURVE SMOOTH",
"547 104 OFFCURVE",
"533 76 OFFCURVE",
"458 76 CURVE SMOOTH",
"60 76 LINE",
"60 0 LINE",
"394 0 LINE SMOOTH",
"474 0 OFFCURVE",
"563 3 OFFCURVE",
"605 54 CURVE",
"633 11 OFFCURVE",
"668 0 OFFCURVE",
"707 0 CURVE SMOOTH",
"713 0 LINE",
"713 76 LINE",
"695 76 OFFCURVE",
"652 91 OFFCURVE",
"629 147 CURVE",
"620 190 OFFCURVE",
"565 236 OFFCURVE",
"521 270 CURVE SMOOTH",
"355 399 LINE",
"404 421 OFFCURVE",
"439 461 OFFCURVE",
"439 528 CURVE SMOOTH"
);
},
{
closed = 1;
nodes = (
"224 556 OFFCURVE",
"256 589 OFFCURVE",
"300 589 CURVE SMOOTH",
"345 589 OFFCURVE",
"372 561 OFFCURVE",
"372 521 CURVE SMOOTH",
"372 475 OFFCURVE",
"343 439 OFFCURVE",
"297 429 CURVE",
"258 448 OFFCURVE",
"224 470 OFFCURVE",
"224 517 CURVE SMOOTH"
);
}
);
width = 713;
}
);
category = Letter;
subCategory = Other;
},
{
glyphname = twentySogdMed;
lastChange = "2019-10-31 19:51:10 +0000";
layers = (
{
anchors = (
{
name = Anchor2;
position = "{204, -60}";
},
{
name = Anchor4;
position = "{189, -60}";
},
{
name = Anchor6;
position = "{97, 699}";
}
);
layerId = UUID0;
paths = (
{
closed = 1;
nodes = (
"182 0 LINE SMOOTH",
"262 0 OFFCURVE",
"351 3 OFFCURVE",
"393 54 CURVE",
"421 11 OFFCURVE",
"456 0 OFFCURVE",
"495 0 CURVE SMOOTH",
"501 0 LINE",
"501 76 LINE",
"483 76 OFFCURVE",
"440 91 OFFCURVE",
"417 147 CURVE",
"408 190 OFFCURVE",
"353 236 OFFCURVE",
"309 270 CURVE SMOOTH",
"143 399 LINE",
"192 421 OFFCURVE",
"227 461 OFFCURVE",
"227 528 CURVE SMOOTH",
"227 584 OFFCURVE",
"180 648 OFFCURVE",
"94 648 CURVE SMOOTH",
"-13 648 OFFCURVE",
"-57 572 OFFCURVE",
"-57 513 CURVE SMOOTH",
"-57 462 OFFCURVE",
"-27 424 OFFCURVE",
"22 387 CURVE SMOOTH",
"272 196 LINE SMOOTH",
"324 156 OFFCURVE",
"335 145 OFFCURVE",
"335 125 CURVE SMOOTH",
"335 104 OFFCURVE",
"321 76 OFFCURVE",
"246 76 CURVE SMOOTH",
"0 76 LINE SMOOTH",
"-34 76 OFFCURVE",
"-43 57 OFFCURVE",
"-43 38 CURVE SMOOTH",
"-43 19 OFFCURVE",
"-34 0 OFFCURVE",
"0 0 CURVE SMOOTH"
);
},
{
closed = 1;
nodes = (
"12 556 OFFCURVE",
"44 589 OFFCURVE",
"88 589 CURVE SMOOTH",
"133 589 OFFCURVE",
"160 561 OFFCURVE",
"160 521 CURVE SMOOTH",
"160 475 OFFCURVE",
"131 439 OFFCURVE",
"85 429 CURVE",
"46 448 OFFCURVE",
"12 470 OFFCURVE",
"12 517 CURVE SMOOTH"
);
}
);
width = 501;
}
);
category = Letter;
subCategory = Other;
},
{
glyphname = twentySogdIni;
lastChange = "2019-10-31 19:51:10 +0000";
layers = (
{
anchors = (
{
name = Anchor2;
position = "{204, -60}";
},
{
name = Anchor4;
position = "{189, -60}";
},
{
name = Anchor6;
position = "{97, 699}";
}
);
layerId = UUID0;
paths = (
{
closed = 1;
nodes = (
"0 76 LINE SMOOTH",
"-34 76 OFFCURVE",
"-43 57 OFFCURVE",
"-43 38 CURVE SMOOTH",
"-43 19 OFFCURVE",
"-34 0 OFFCURVE",
"0 0 CURVE SMOOTH",
"182 0 LINE SMOOTH",
"292 0 OFFCURVE",
"419 6 OFFCURVE",
"419 135 CURVE SMOOTH",
"419 198 OFFCURVE",
"362 244 OFFCURVE",
"328 268 CURVE SMOOTH",
"143 399 LINE",
"192 421 OFFCURVE",
"227 461 OFFCURVE",
"227 528 CURVE SMOOTH",
"227 584 OFFCURVE",
"180 648 OFFCURVE",
"94 648 CURVE SMOOTH",
"-13 648 OFFCURVE",
"-57 572 OFFCURVE",
"-57 513 CURVE SMOOTH",
"-57 462 OFFCURVE",
"-28 423 OFFCURVE",
"22 387 CURVE SMOOTH",
"291 194 LINE SMOOTH",
"319 174 OFFCURVE",
"335 150 OFFCURVE",
"335 130 CURVE SMOOTH",
"335 102 OFFCURVE",
"321 76 OFFCURVE",
"246 76 CURVE"
);
},
{
closed = 1;
nodes = (
"12 556 OFFCURVE",
"44 589 OFFCURVE",
"88 589 CURVE SMOOTH",
"133 589 OFFCURVE",
"160 561 OFFCURVE",
"160 521 CURVE SMOOTH",
"160 475 OFFCURVE",
"131 439 OFFCURVE",
"85 429 CURVE",
"46 448 OFFCURVE",
"12 470 OFFCURVE",
"12 517 CURVE SMOOTH"
);
}
);
width = 484;
}
);
category = Letter;
subCategory = Other;
},
{
glyphname = hundredSogdFin;
lastChange = "2019-10-31 19:51:10 +0000";
layers = (
{
anchors = (
{
name = Anchor2;
position = "{868, -90}";
},
{
name = Anchor4;
position = "{842, -80}";
},
{
name = Anchor6;
position = "{874, 442}";
}
);
layerId = UUID0;
paths = (
{
closed = 1;
nodes = (
"1189 76 LINE SMOOTH",
"1114 76 OFFCURVE",
"1041 105 OFFCURVE",
"1038 217 CURVE",
"1043 275 OFFCURVE",
"1043 328 OFFCURVE",
"1043 382 CURVE",
"977 382 LINE",
"961 254 LINE SMOOTH",
"944 118 OFFCURVE",
"929 45 OFFCURVE",
"875 45 CURVE SMOOTH",
"821 45 OFFCURVE",
"800 116 OFFCURVE",
"772 269 CURVE SMOOTH",
"751 382 LINE",
"687 382 LINE",
"688 318 OFFCURVE",
"694 258 OFFCURVE",
"703 199 CURVE",
"700 118 OFFCURVE",
"639 76 OFFCURVE",
"557 76 CURVE SMOOTH",
"519 76 LINE",
"539 117 OFFCURVE",
"545 146 OFFCURVE",
"545 181 CURVE SMOOTH",
"545 305 OFFCURVE",
"463 389 OFFCURVE",
"333 389 CURVE SMOOTH",
"180 389 OFFCURVE",
"65 263 OFFCURVE",
"65 86 CURVE SMOOTH",
"65 -124 OFFCURVE",
"217 -302 OFFCURVE",
"522 -302 CURVE SMOOTH",
"557 -302 OFFCURVE",
"594 -300 OFFCURVE",
"633 -294 CURVE",
"633 -220 LINE",
"602 -224 OFFCURVE",
"568 -225 OFFCURVE",
"538 -225 CURVE SMOOTH",
"314 -225 OFFCURVE",
"152 -111 OFFCURVE",
"152 92 CURVE SMOOTH",
"152 223 OFFCURVE",
"228 306 OFFCURVE",
"329 306 CURVE SMOOTH",
"426 306 OFFCURVE",
"472 242 OFFCURVE",
"472 169 CURVE SMOOTH",
"472 134 OFFCURVE",
"464 94 OFFCURVE",
"436 61 CURVE",
"429 14 LINE",
"461 2 OFFCURVE",
"518 -2 OFFCURVE",
"543 -2 CURVE SMOOTH",
"618 -2 OFFCURVE",
"687 21 OFFCURVE",
"733 74 CURVE",
"763 0 OFFCURVE",
"800 -30 OFFCURVE",
"866 -30 CURVE SMOOTH",
"944 -30 OFFCURVE",
"988 16 OFFCURVE",
"1010 75 CURVE",
"1033 28 OFFCURVE",
"1090 0 OFFCURVE",
"1198 0 CURVE SMOOTH",
"1575 0 LINE",
"1575 76 LINE",
"1509 76 OFFCURVE",
"1482 104 OFFCURVE",
"1384 209 CURVE",
"1439 257 OFFCURVE",
"1502 306 OFFCURVE",
"1550 334 CURVE",
"1509 394 LINE",
"1458 366 OFFCURVE",
"1392 316 OFFCURVE",
"1336 262 CURVE",
"1299 307 OFFCURVE",
"1268 353 OFFCURVE",
"1245 391 CURVE",
"1174 353 LINE",
"1207 280 OFFCURVE",
"1325 132 OFFCURVE",
"1410 78 CURVE",
"1410 72 LINE",
"1379 74 OFFCURVE",
"1291 76 OFFCURVE",
"1274 76 CURVE SMOOTH"
);
}
);
width = 1575;
}
);
category = Letter;
subCategory = Other;
},
{
glyphname = hookaboveSogd.alt;
lastChange = "2019-10-31 19:51:10 +0000";
layers = (
{
anchors = (
{
name = _Anchor6;
position = "{0, 542}";
}
);
layerId = UUID0;
paths = (
{
closed = 1;
nodes = (
"-50 557 LINE",
"83 605 LINE",
"87 532 LINE",
"130 532 LINE",
"130 660 LINE",
"96 660 LINE",
"-65 599 LINE"
);
}
);
width = 0;
}
);
category = Mark;
subCategory = Nonspacing;
},
{
glyphname = strokebelowSogd.2;
lastChange = "2019-10-31 19:51:10 +0000";
layers = (
{
anchors = (
{
name = _Anchor4;
position = "{0, 0}";
}
);
layerId = UUID0;
paths = (
{
closed = 1;
nodes = (
"7 45 LINE",
"-54 -65 LINE",
"-54 -70 LINE",
"-19 -70 LINE",
"59 45 LINE"
);
}
);
width = 0;
}
);
category = Mark;
subCategory = Nonspacing;
},
{
glyphname = strokebelowSogd.3;
lastChange = "2019-10-31 19:51:10 +0000";
layers = (
{
anchors = (
{
name = _Anchor4;
position = "{0, 0}";
}
);
layerId = UUID0;
paths = (
{
closed = 1;
nodes = (
"-20 115 LINE",
"-40 -58 LINE",
"-6 -58 LINE",
"28 80 LINE"
);
}
);
width = 0;
}
);
category = Mark;
subCategory = Nonspacing;
},
{
glyphname = strokebelowSogd.4;
lastChange = "2019-10-31 19:51:10 +0000";
layers = (
{
anchors = (
{
name = _Anchor4;
position = "{0, 0}";
}
);
layerId = UUID0;
paths = (
{
closed = 1;
nodes = (
"12 95 LINE",
"-39 -57 LINE",
"-39 -62 LINE",
"-4 -62 LINE",
"88 133 LINE"
);
}
);
width = 0;
}
);
category = Mark;
subCategory = Nonspacing;
},
{
glyphname = strokebelowSogd.5;
lastChange = "2019-10-31 19:51:10 +0000";
layers = (
{
anchors = (
{
name = _Anchor4;
position = "{0, 0}";
}
);
layerId = UUID0;
paths = (
{
closed = 1;
nodes = (
"35 84 LINE",
"-79 -71 LINE",
"-79 -76 LINE",
"-40 -76 LINE",
"100 89 LINE"
);
}
);
width = 0;
}
);
category = Mark;
subCategory = Nonspacing;
},
{
glyphname = strokebelowSogd.6;
lastChange = "2019-10-31 19:51:10 +0000";
layers = (
{
anchors = (
{
name = _Anchor4;
position = "{0, 0}";
}
);
layerId = UUID0;
paths = (
{
closed = 1;
nodes = (
"-17 111 LINE",
"-19 -55 LINE",
"15 -58 LINE",
"29 111 LINE"
);
}
);
width = 0;
}
);
category = Mark;
subCategory = Nonspacing;
},
{
glyphname = strokebelowSogd.7;
lastChange = "2019-10-31 19:51:10 +0000";
layers = (
{
anchors = (
{
name = _Anchor4;
position = "{0, 0}";
}
);
layerId = UUID0;
paths = (
{
closed = 1;
nodes = (
"4 136 LINE",
"-86 -57 LINE",
"-86 -62 LINE",
"-51 -62 LINE",
"40 95 LINE"
);
}
);
width = 0;
}
);
category = Mark;
subCategory = Nonspacing;
},
{
glyphname = dotbelowSogd.rho;
lastChange = "2019-10-31 19:51:10 +0000";
layers = (
{
anchors = (
{
name = _Anchor2;
position = "{0, 0}";
}
);
layerId = UUID0;
paths = (
{
closed = 1;
nodes = (
"1 -120 LINE",
"59 -62 LINE",
"1 -4 LINE",
"-57 -62 LINE"
);
}
);
width = 0;
}
);
category = Mark;
subCategory = Nonspacing;
},
{
glyphname = twodotsbelowSogd.rho;
lastChange = "2019-10-31 19:51:10 +0000";
layers = (
{
anchors = (
{
name = _Anchor2;
position = "{0, 0}";
}
);
layerId = UUID0;
paths = (
{
closed = 1;
nodes = (
"-72 -120 LINE",
"-14 -62 LINE",
"-72 -4 LINE",
"-130 -62 LINE"
);
},
{
closed = 1;
nodes = (
"70 -120 LINE",
"128 -62 LINE",
"70 -4 LINE",
"12 -62 LINE"
);
}
);
width = 0;
}
);
category = Mark;
subCategory = Nonspacing;
},
{
glyphname = dotaboveSogd.rho;
lastChange = "2019-10-31 19:51:10 +0000";
layers = (
{
anchors = (
{
name = _Anchor6;
position = "{0, 542}";
}
);
layerId = UUID0;
paths = (
{
closed = 1;
nodes = (
"0 544 LINE",
"58 602 LINE",
"0 660 LINE",
"-58 602 LINE"
);
}
);
width = 0;
}
);
category = Mark;
subCategory = Nonspacing;
},
{
glyphname = twodotsaboveSogd.rho;
lastChange = "2019-10-31 19:51:10 +0000";
layers = (
{
anchors = (
{
name = _Anchor6;
position = "{0, 542}";
}
);
layerId = UUID0;
paths = (
{
closed = 1;
nodes = (
"-72 544 LINE",
"-14 602 LINE",
"-72 660 LINE",
"-130 602 LINE"
);
},
{
closed = 1;
nodes = (
"70 544 LINE",
"128 602 LINE",
"70 660 LINE",
"12 602 LINE"
);
}
);
width = 0;
}
);
category = Mark;
subCategory = Nonspacing;
},
{
glyphname = LamedhSep.hook;
lastChange = "2019-10-31 19:51:10 +0000";
layers = (
{
anchors = (
{
name = Anchor2;
position = "{230, -60}";
},
{
name = Anchor4;
position = "{207, -60}";
},
{
name = Anchor6;
position = "{122, 774}";
}
);
layerId = UUID0;
paths = (
{
closed = 1;
nodes = (
"198 680 LINE SMOOTH",
"173 728 OFFCURVE",
"149 738 OFFCURVE",
"118 738 CURVE SMOOTH",
"87 738 OFFCURVE",
"62 719 OFFCURVE",
"19 676 CURVE SMOOTH",
"-40 617 LINE",
"0 568 LINE",
"109 669 LINE",
"113 669 OFFCURVE",
"118 661 OFFCURVE",
"136 625 CURVE SMOOTH",
"192 512 OFFCURVE",
"298 305 OFFCURVE",
"364 174 CURVE SMOOTH",
"370 162 OFFCURVE",
"379 140 OFFCURVE",
"379 121 CURVE SMOOTH",
"379 101 OFFCURVE",
"367 76 OFFCURVE",
"275 76 CURVE SMOOTH",
"50 76 LINE",
"50 0 LINE",
"252 0 LINE SMOOTH",
"352 0 OFFCURVE",
"469 9 OFFCURVE",
"469 123 CURVE SMOOTH",
"469 145 OFFCURVE",
"461 172 OFFCURVE",
"445 204 CURVE SMOOTH"
);
}
);
width = 518;
}
);
category = Letter;
subCategory = Other;
},
{
glyphname = LamedhFin.hook;
lastChange = "2019-10-31 19:51:10 +0000";
layers = (
{
anchors = (
{
name = Anchor2;
position = "{247, -60}";
},
{
name = Anchor4;
position = "{207, -60}";
},
{
name = Anchor6;
position = "{119, 775}";
}
);
layerId = UUID0;
paths = (
{
closed = 1;
nodes = (
"84 738 OFFCURVE",
"59 719 OFFCURVE",
"16 676 CURVE SMOOTH",
"-43 617 LINE",
"-3 568 LINE",
"106 669 LINE",
"110 669 OFFCURVE",
"115 661 OFFCURVE",
"132 625 CURVE SMOOTH",
"205 471 OFFCURVE",
"350 190 OFFCURVE",
"390 123 CURVE",
"388 98 OFFCURVE",
"361 76 OFFCURVE",
"264 76 CURVE SMOOTH",
"50 76 LINE",
"50 0 LINE",
"264 0 LINE SMOOTH",
"335 0 OFFCURVE",
"410 11 OFFCURVE",
"437 59 CURVE",
"470 7 OFFCURVE",
"504 0 OFFCURVE",
"544 0 CURVE",
"544 76 LINE",
"527 76 OFFCURVE",
"512 96 OFFCURVE",
"492 125 CURVE SMOOTH",
"449 188 OFFCURVE",
"293 485 OFFCURVE",
"195 680 CURVE SMOOTH",
"171 728 OFFCURVE",
"146 738 OFFCURVE",
"115 738 CURVE SMOOTH"
);
}
);
width = 544;
}
);
category = Letter;
subCategory = Other;
},
{
glyphname = LamedhMed.hook;
lastChange = "2019-10-31 19:51:10 +0000";
layers = (
{
anchors = (
{
name = Anchor2;
position = "{167, -60}";
},
{
name = Anchor4;
position = "{80, -60}";
},
{
name = Anchor6;
position = "{-83, 775}";
}
);
layerId = UUID0;
paths = (
{
closed = 1;
nodes = (
"3 471 OFFCURVE",
"148 190 OFFCURVE",
"188 123 CURVE",
"186 98 OFFCURVE",
"159 76 OFFCURVE",
"62 76 CURVE SMOOTH",
"0 76 LINE SMOOTH",
"-34 76 OFFCURVE",
"-43 57 OFFCURVE",
"-43 38 CURVE SMOOTH",
"-43 19 OFFCURVE",
"-34 0 OFFCURVE",
"0 0 CURVE SMOOTH",
"62 0 LINE SMOOTH",
"133 0 OFFCURVE",
"208 11 OFFCURVE",
"235 59 CURVE",
"268 7 OFFCURVE",
"302 0 OFFCURVE",
"342 0 CURVE",
"342 76 LINE",
"325 76 OFFCURVE",
"310 96 OFFCURVE",
"290 125 CURVE SMOOTH",
"247 188 OFFCURVE",
"91 485 OFFCURVE",
"-7 680 CURVE SMOOTH",
"-31 728 OFFCURVE",
"-56 738 OFFCURVE",
"-87 738 CURVE SMOOTH",
"-118 738 OFFCURVE",
"-143 719 OFFCURVE",
"-186 676 CURVE SMOOTH",
"-245 617 LINE",
"-205 568 LINE",
"-96 669 LINE",
"-92 669 OFFCURVE",
"-87 661 OFFCURVE",
"-70 625 CURVE SMOOTH"
);
}
);
width = 342;
}
);
category = Letter;
subCategory = Other;
},
{
glyphname = LamedhIni.hook;
lastChange = "2019-10-31 19:51:10 +0000";
layers = (
{
anchors = (
{
name = Anchor2;
position = "{125, -60}";
},
{
name = Anchor4;
position = "{80, -60}";
},
{
name = Anchor6;
position = "{-85, 774}";
}
);
layerId = UUID0;
paths = (
{
closed = 1;
nodes = (
"-9 680 LINE SMOOTH",
"-34 728 OFFCURVE",
"-58 738 OFFCURVE",
"-89 738 CURVE SMOOTH",
"-120 738 OFFCURVE",
"-145 719 OFFCURVE",
"-188 676 CURVE SMOOTH",
"-247 617 LINE",
"-207 568 LINE",
"-98 669 LINE",
"-94 669 OFFCURVE",
"-89 661 OFFCURVE",
"-71 625 CURVE SMOOTH",
"-15 512 OFFCURVE",
"91 305 OFFCURVE",
"157 174 CURVE SMOOTH",
"163 162 OFFCURVE",
"172 140 OFFCURVE",
"172 121 CURVE SMOOTH",
"172 101 OFFCURVE",
"160 76 OFFCURVE",
"68 76 CURVE SMOOTH",
"0 76 LINE SMOOTH",
"-34 76 OFFCURVE",
"-43 57 OFFCURVE",
"-43 38 CURVE SMOOTH",
"-43 19 OFFCURVE",
"-34 0 OFFCURVE",
"0 0 CURVE SMOOTH",
"45 0 LINE SMOOTH",
"145 0 OFFCURVE",
"262 9 OFFCURVE",
"262 123 CURVE SMOOTH",
"262 145 OFFCURVE",
"255 172 OFFCURVE",
"238 204 CURVE SMOOTH"
);
}
);
width = 312;
}
);
category = Letter;
subCategory = Other;
},
{
glyphname = ZayinFin.alt02;
lastChange = "2019-10-31 19:51:10 +0000";
layers = (
{
anchors = (
{
name = Anchor2;
position = "{477, -60}";
},
{
name = Anchor4;
position = "{462, -60}";
},
{
name = Anchor6;
position = "{505, 442}";
}
);
layerId = UUID0;
paths = (
{
closed = 1;
nodes = (
"496 216 LINE",
"502 164 OFFCURVE",
"529 94 OFFCURVE",
"548 69 CURVE",
"480 69 LINE",
"467 0 LINE",
"674 0 LINE",
"674 76 LINE",
"648 76 OFFCURVE",
"624 89 OFFCURVE",
"600 140 CURVE SMOOTH",
"572 200 OFFCURVE",
"551 272 OFFCURVE",
"524 382 CURVE",
"469 382 LINE",
"449 300 OFFCURVE",
"418 200 OFFCURVE",
"395 158 CURVE SMOOTH",
"373 118 OFFCURVE",
"346 76 OFFCURVE",
"241 76 CURVE SMOOTH",
"50 76 LINE",
"50 0 LINE",
"224 0 LINE SMOOTH",
"333 0 OFFCURVE",
"399 25 OFFCURVE",
"436 78 CURVE SMOOTH",
"469 125 OFFCURVE",
"480 166 OFFCURVE",
"492 216 CURVE"
);
}
);
width = 674;
}
);
category = Letter;
subCategory = Other;
},
{
glyphname = HethFin.alt03;
lastChange = "2019-10-31 19:51:10 +0000";
layers = (
{
anchors = (
{
name = Anchor2;
position = "{583, -90}";
},
{
name = Anchor4;
position = "{557, -80}";
},
{
name = Anchor6;
position = "{589, 442}";
}
);
layerId = UUID0;
paths = (
{
closed = 1;
nodes = (
"656 -30 OFFCURVE",
"700 13 OFFCURVE",
"723 69 CURVE",
"744 26 OFFCURVE",
"788 0 OFFCURVE",
"853 0 CURVE",
"853 76 LINE",
"823 76 OFFCURVE",
"756 105 OFFCURVE",
"753 217 CURVE",
"755 240 OFFCURVE",
"756 263 OFFCURVE",
"757 287 CURVE SMOOTH",
"758 313 OFFCURVE",
"758 358 OFFCURVE",
"758 382 CURVE",
"692 382 LINE",
"676 254 LINE SMOOTH",
"659 118 OFFCURVE",
"644 45 OFFCURVE",
"590 45 CURVE SMOOTH",
"536 45 OFFCURVE",
"515 116 OFFCURVE",
"487 269 CURVE SMOOTH",
"466 382 LINE",
"402 382 LINE",
"404 322 OFFCURVE",
"410 266 OFFCURVE",
"417 211 CURVE",
"415 119 OFFCURVE",
"332 76 OFFCURVE",
"231 76 CURVE SMOOTH",
"50 76 LINE",
"50 0 LINE",
"205 0 LINE SMOOTH",
"240 0 OFFCURVE",
"295 3 OFFCURVE",
"336 15 CURVE SMOOTH",
"379 28 OFFCURVE",
"421 50 OFFCURVE",
"444 86 CURVE",
"471 17 OFFCURVE",
"500 -30 OFFCURVE",
"581 -30 CURVE SMOOTH"
);
}
);
width = 853;
}
);
category = Letter;
subCategory = Other;
},
{
glyphname = KaphFin.alt04;
lastChange = "2019-10-31 19:51:10 +0000";
layers = (
{
anchors = (
{
name = Anchor2;
position = "{478, -60}";
},
{
name = Anchor4;
position = "{457, 9}";
},
{
name = Anchor6;
position = "{488, 442}";
}
);
layerId = UUID0;
paths = (
{
closed = 1;
nodes = (
"708 76 LINE",
"676 76 OFFCURVE",
"620 80 OFFCURVE",
"572 123 CURVE",
"615 182 OFFCURVE",
"656 266 OFFCURVE",
"656 382 CURVE",
"583 382 LINE",
"578 305 OFFCURVE",
"557 227 OFFCURVE",
"513 171 CURVE",
"446 239 OFFCURVE",
"391 341 OFFCURVE",
"373 386 CURVE",
"303 352 LINE",
"328 279 OFFCURVE",
"387 192 OFFCURVE",
"454 123 CURVE",
"399 88 OFFCURVE",
"311 76 OFFCURVE",
"203 76 CURVE SMOOTH",
"50 76 LINE",
"50 0 LINE",
"183 0 LINE SMOOTH",
"319 0 OFFCURVE",
"435 21 OFFCURVE",
"508 67 CURVE",
"589 5 OFFCURVE",
"658 0 OFFCURVE",
"708 0 CURVE"
);
}
);
width = 708;
}
);
category = Letter;
subCategory = Other;
},
{
glyphname = NunFin.alt05;
lastChange = "2019-10-31 19:51:10 +0000";
layers = (
{
anchors = (
{
name = Anchor2;
position = "{477, -60}";
},
{
name = Anchor4;
position = "{462, -60}";
},
{
name = Anchor6;
position = "{505, 442}";
}
);
layerId = UUID0;
paths = (
{
closed = 1;
nodes = (
"496 216 LINE",
"502 164 OFFCURVE",
"529 94 OFFCURVE",
"548 69 CURVE",
"480 69 LINE",
"467 0 LINE",
"674 0 LINE",
"674 76 LINE",
"648 76 OFFCURVE",
"624 89 OFFCURVE",
"600 140 CURVE SMOOTH",
"572 200 OFFCURVE",
"551 272 OFFCURVE",
"524 382 CURVE",
"469 382 LINE",
"449 300 OFFCURVE",
"418 200 OFFCURVE",
"395 158 CURVE SMOOTH",
"373 118 OFFCURVE",
"346 76 OFFCURVE",
"241 76 CURVE SMOOTH",
"50 76 LINE",
"50 0 LINE",
"224 0 LINE SMOOTH",
"333 0 OFFCURVE",
"399 25 OFFCURVE",
"436 78 CURVE SMOOTH",
"469 125 OFFCURVE",
"480 166 OFFCURVE",
"492 216 CURVE"
);
}
);
width = 674;
}
);
category = Letter;
subCategory = Other;
},
{
glyphname = NunFin.alt06;
lastChange = "2019-10-31 19:51:10 +0000";
layers = (
{
anchors = (
{
name = Anchor2;
position = "{330, -60}";
},
{
name = Anchor4;
position = "{328, -60}";
},
{
name = Anchor6;
position = "{243, 442}";
}
);
layerId = UUID0;
paths = (
{
closed = 1;
nodes = (
"199 229 LINE",
"224 166 OFFCURVE",
"263 99 OFFCURVE",
"308 73 CURVE",
"308 69 LINE",
"239 69 LINE",
"234 0 LINE",
"477 0 LINE",
"477 76 LINE",
"390 76 OFFCURVE",
"335 122 OFFCURVE",
"263 264 CURVE SMOOTH",
"246 298 OFFCURVE",
"228 337 OFFCURVE",
"210 382 CURVE",
"137 382 LINE",
"116 118 OFFCURVE",
"95 -65 OFFCURVE",
"64 -300 CURVE",
"140 -300 LINE",
"159 -168 OFFCURVE",
"187 112 OFFCURVE",
"195 229 CURVE SMOOTH"
);
}
);
width = 477;
}
);
category = Letter;
subCategory = Other;
},
{
glyphname = SadheFin.alt07;
lastChange = "2019-10-31 19:51:10 +0000";
layers = (
{
anchors = (
{
name = Anchor2;
position = "{571, -60}";
},
{
name = Anchor4;
position = "{368, -60}";
},
{
name = Anchor6;
position = "{573, 442}";
}
);
layerId = UUID0;
paths = (
{
closed = 1;
nodes = (
"283 0 LINE SMOOTH",
"436 0 OFFCURVE",
"485 82 OFFCURVE",
"485 179 CURVE SMOOTH",
"485 208 OFFCURVE",
"482 259 OFFCURVE",
"475 308 CURVE",
"507 305 OFFCURVE",
"543 304 OFFCURVE",
"565 304 CURVE SMOOTH",
"589 304 OFFCURVE",
"660 304 OFFCURVE",
"684 306 CURVE",
"680 243 OFFCURVE",
"677 180 OFFCURVE",
"677 135 CURVE SMOOTH",
"677 114 OFFCURVE",
"678 94 OFFCURVE",
"681 81 CURVE SMOOTH",
"691 29 OFFCURVE",
"730 0 OFFCURVE",
"806 0 CURVE SMOOTH",
"837 0 LINE",
"837 76 LINE",
"812 76 LINE SMOOTH",
"772 76 OFFCURVE",
"762 93 OFFCURVE",
"758 116 CURVE SMOOTH",
"755 134 OFFCURVE",
"754 155 OFFCURVE",
"754 202 CURVE SMOOTH",
"754 232 OFFCURVE",
"755 284 OFFCURVE",
"757 313 CURVE",
"768 315 OFFCURVE",
"778 317 OFFCURVE",
"788 320 CURVE",
"788 390 LINE",
"783 390 LINE",
"744 380 OFFCURVE",
"637 376 OFFCURVE",
"580 376 CURVE SMOOTH",
"519 376 OFFCURVE",
"474 382 OFFCURVE",
"437 382 CURVE SMOOTH",
"414 382 OFFCURVE",
"398 367 OFFCURVE",
"398 344 CURVE SMOOTH",
"398 337 OFFCURVE",
"398 330 OFFCURVE",
"399 316 CURVE SMOOTH",
"402 262 OFFCURVE",
"405 238 OFFCURVE",
"405 186 CURVE SMOOTH",
"405 123 OFFCURVE",
"383 76 OFFCURVE",
"300 76 CURVE SMOOTH",
"50 76 LINE",
"50 0 LINE"
);
}
);
width = 837;
}
);
category = Letter;
subCategory = Other;
},
{
glyphname = SadheFin.alt08;
lastChange = "2019-10-31 19:51:10 +0000";
layers = (
{
anchors = (
{
name = Anchor2;
position = "{366, -60}";
},
{
name = Anchor4;
position = "{413, -8}";
},
{
name = Anchor6;
position = "{287, 442}";
}
);
layerId = UUID0;
paths = (
{
closed = 1;
nodes = (
"192 275 OFFCURVE",
"192 285 OFFCURVE",
"191 308 CURVE",
"223 305 OFFCURVE",
"257 304 OFFCURVE",
"279 304 CURVE SMOOTH",
"303 304 OFFCURVE",
"374 304 OFFCURVE",
"398 306 CURVE",
"394 243 OFFCURVE",
"391 180 OFFCURVE",
"391 135 CURVE SMOOTH",
"391 114 OFFCURVE",
"392 94 OFFCURVE",
"395 81 CURVE SMOOTH",
"405 29 OFFCURVE",
"444 0 OFFCURVE",
"520 0 CURVE SMOOTH",
"551 0 LINE",
"551 76 LINE",
"526 76 LINE SMOOTH",
"486 76 OFFCURVE",
"476 93 OFFCURVE",
"472 116 CURVE SMOOTH",
"469 134 OFFCURVE",
"468 155 OFFCURVE",
"468 202 CURVE SMOOTH",
"468 232 OFFCURVE",
"469 284 OFFCURVE",
"471 313 CURVE",
"482 315 OFFCURVE",
"492 317 OFFCURVE",
"502 320 CURVE",
"502 390 LINE",
"497 390 LINE",
"458 380 OFFCURVE",
"351 376 OFFCURVE",
"294 376 CURVE SMOOTH",
"233 376 OFFCURVE",
"188 382 OFFCURVE",
"151 382 CURVE SMOOTH",
"128 382 OFFCURVE",
"112 367 OFFCURVE",
"112 344 CURVE SMOOTH",
"112 324 OFFCURVE",
"113 312 OFFCURVE",
"113 300 CURVE SMOOTH",
"113 94 OFFCURVE",
"89 -134 OFFCURVE",
"64 -300 CURVE",
"141 -300 LINE",
"172 -102 OFFCURVE",
"192 84 OFFCURVE",
"192 271 CURVE SMOOTH"
);
}
);
width = 551;
}
);
category = Letter;
subCategory = Other;
},
{
glyphname = SadheFin.alt09;
lastChange = "2019-10-31 19:51:10 +0000";
layers = (
{
anchors = (
{
name = Anchor2;
position = "{523, -60}";
},
{
name = Anchor4;
position = "{378, -60}";
},
{
name = Anchor6;
position = "{572, 442}";
}
);
layerId = UUID0;
paths = (
{
closed = 1;
nodes = (
"794 0 LINE",
"794 76 LINE",
"464 76 LINE",
"480 103 OFFCURVE",
"487 138 OFFCURVE",
"487 178 CURVE SMOOTH",
"487 207 OFFCURVE",
"482 258 OFFCURVE",
"475 308 CURVE",
"507 305 OFFCURVE",
"543 304 OFFCURVE",
"565 304 CURVE SMOOTH",
"628 304 OFFCURVE",
"696 308 OFFCURVE",
"741 320 CURVE",
"732 390 LINE",
"727 390 LINE",
"688 380 OFFCURVE",
"637 376 OFFCURVE",
"580 376 CURVE SMOOTH",
"519 376 OFFCURVE",
"474 382 OFFCURVE",
"437 382 CURVE SMOOTH",
"414 382 OFFCURVE",
"398 367 OFFCURVE",
"398 344 CURVE SMOOTH",
"398 337 OFFCURVE",
"398 330 OFFCURVE",
"399 316 CURVE SMOOTH",
"402 269 OFFCURVE",
"407 233 OFFCURVE",
"407 187 CURVE SMOOTH",
"407 130 OFFCURVE",
"402 76 OFFCURVE",
"351 76 CURVE SMOOTH",
"50 76 LINE",
"50 0 LINE"
);
}
);
width = 794;
}
);
category = Letter;
subCategory = Other;
},
{
glyphname = SadheFin.alt10;
lastChange = "2019-10-31 19:51:10 +0000";
layers = (
{
anchors = (
{
name = Anchor2;
position = "{353, -60}";
},
{
name = Anchor4;
position = "{311, -60}";
},
{
name = Anchor6;
position = "{302, 487}";
}
);
layerId = UUID0;
paths = (
{
closed = 1;
nodes = (
"352 304 OFFCURVE",
"440 308 OFFCURVE",
"485 320 CURVE",
"476 390 LINE",
"471 390 LINE",
"432 380 OFFCURVE",
"361 376 OFFCURVE",
"304 376 CURVE SMOOTH",
"261 376 OFFCURVE",
"223 378 OFFCURVE",
"190 380 CURVE",
"188 442 LINE",
"112 442 LINE",
"112 422 OFFCURVE",
"113 312 OFFCURVE",
"113 300 CURVE SMOOTH",
"113 94 OFFCURVE",
"89 -134 OFFCURVE",
"64 -300 CURVE",
"141 -300 LINE",
"157 -198 OFFCURVE",
"170 -92 OFFCURVE",
"179 0 CURVE",
"538 0 LINE",
"538 76 LINE",
"185 76 LINE",
"189 130 OFFCURVE",
"192 176 OFFCURVE",
"192 208 CURVE SMOOTH",
"192 212 OFFCURVE",
"192 236 OFFCURVE",
"191 308 CURVE",
"225 305 OFFCURVE",
"266 304 OFFCURVE",
"289 304 CURVE SMOOTH"
);
}
);
width = 538;
}
);
category = Letter;
subCategory = Other;
},
{
glyphname = SadheFin.alt11;
lastChange = "2019-10-31 19:51:10 +0000";
layers = (
{
anchors = (
{
name = Anchor2;
position = "{450, -60}";
},
{
name = Anchor4;
position = "{286, -60}";
},
{
name = Anchor6;
position = "{483, 442}";
}
);
layerId = UUID0;
paths = (
{
closed = 1;
nodes = (
"702 0 LINE",
"702 76 LINE",
"376 76 LINE",
"390 105 OFFCURVE",
"395 140 OFFCURVE",
"395 178 CURVE SMOOTH",
"395 220 OFFCURVE",
"390 263 OFFCURVE",
"384 308 CURVE",
"415 305 OFFCURVE",
"451 304 OFFCURVE",
"473 304 CURVE SMOOTH",
"536 304 OFFCURVE",
"604 308 OFFCURVE",
"649 320 CURVE",
"640 390 LINE",
"635 390 LINE",
"596 380 OFFCURVE",
"545 376 OFFCURVE",
"488 376 CURVE SMOOTH",
"427 376 OFFCURVE",
"382 382 OFFCURVE",
"345 382 CURVE SMOOTH",
"322 382 OFFCURVE",
"306 367 OFFCURVE",
"306 344 CURVE SMOOTH",
"306 337 OFFCURVE",
"306 330 OFFCURVE",
"307 316 CURVE SMOOTH",
"310 269 OFFCURVE",
"315 222 OFFCURVE",
"315 176 CURVE SMOOTH",
"315 114 OFFCURVE",
"298 76 OFFCURVE",
"245 76 CURVE SMOOTH",
"208 76 OFFCURVE",
"166 91 OFFCURVE",
"164 182 CURVE SMOOTH",
"163 229 OFFCURVE",
"162 529 OFFCURVE",
"162 674 CURVE",
"89 674 LINE",
"85 564 OFFCURVE",
"80 316 OFFCURVE",
"80 189 CURVE SMOOTH",
"80 63 OFFCURVE",
"125 0 OFFCURVE",
"238 0 CURVE SMOOTH"
);
}
);
width = 702;
}
);
category = Letter;
subCategory = Other;
},
{
glyphname = TawFin.alt12;
lastChange = "2019-10-31 19:51:10 +0000";
layers = (
{
anchors = (
{
name = Anchor2;
position = "{541, -269}";
},
{
name = Anchor4;
position = "{512, -268}";
},
{
name = Anchor6;
position = "{579, 360}";
}
);
layerId = UUID0;
paths = (
{
closed = 1;
nodes = (
"683 79 OFFCURVE",
"708 60 OFFCURVE",
"708 31 CURVE SMOOTH",
"708 -46 OFFCURVE",
"629 -134 OFFCURVE",
"541 -134 CURVE SMOOTH",
"498 -134 OFFCURVE",
"449 -122 OFFCURVE",
"449 -21 CURVE SMOOTH",
"449 33 LINE",
"533 55 OFFCURVE",
"610 79 OFFCURVE",
"650 79 CURVE SMOOTH"
);
},
{
closed = 1;
nodes = (
"50 76 LINE",
"50 0 LINE",
"72 0 LINE SMOOTH",
"158 0 OFFCURVE",
"261 6 OFFCURVE",
"369 21 CURVE",
"369 -28 LINE SMOOTH",
"369 -195 OFFCURVE",
"475 -209 OFFCURVE",
"541 -209 CURVE SMOOTH",
"660 -209 OFFCURVE",
"766 -111 OFFCURVE",
"786 2 CURVE",
"818 0 OFFCURVE",
"827 0 OFFCURVE",
"835 0 CURVE",
"835 76 LINE",
"818 76 OFFCURVE",
"809 76 OFFCURVE",
"783 77 CURVE",
"766 132 OFFCURVE",
"713 153 OFFCURVE",
"659 153 CURVE SMOOTH",
"604 153 OFFCURVE",
"530 129 OFFCURVE",
"452 108 CURVE",
"452 304 LINE",
"381 304 LINE",
"377 233 OFFCURVE",
"372 124 OFFCURVE",
"372 96 CURVE",
"267 80 OFFCURVE",
"93 76 OFFCURVE",
"81 76 CURVE SMOOTH"
);
}
);
width = 835;
}
);
category = Letter;
subCategory = Other;
},
{
glyphname = TawFin.alt13;
lastChange = "2019-10-31 19:51:10 +0000";
layers = (
{
anchors = (
{
name = Anchor2;
position = "{353, -60}";
},
{
name = Anchor4;
position = "{327, -60}";
},
{
name = Anchor6;
position = "{352, 449}";
}
);
layerId = UUID0;
paths = (
{
closed = 1;
nodes = (
"534 349 OFFCURVE",
"438 382 OFFCURVE",
"372 382 CURVE SMOOTH",
"307 382 OFFCURVE",
"238 350 OFFCURVE",
"193 299 CURVE",
"192 330 OFFCURVE",
"192 370 OFFCURVE",
"190 426 CURVE",
"114 426 LINE",
"114 406 OFFCURVE",
"115 312 OFFCURVE",
"115 300 CURVE SMOOTH",
"115 94 OFFCURVE",
"91 -134 OFFCURVE",
"66 -300 CURVE",
"143 -300 LINE",
"160 -189 OFFCURVE",
"174 -73 OFFCURVE",
"183 24 CURVE",
"214 5 OFFCURVE",
"258 0 OFFCURVE",
"326 0 CURVE SMOOTH",
"593 0 LINE",
"593 76 LINE",
"567 76 LINE",
"468 72 LINE",
"465 76 LINE",
"504 110 OFFCURVE",
"534 159 OFFCURVE",
"534 229 CURVE SMOOTH"
);
},
{
closed = 1;
nodes = (
"454 130 OFFCURVE",
"359 72 OFFCURVE",
"288 72 CURVE SMOOTH",
"222 72 OFFCURVE",
"190 95 OFFCURVE",
"190 142 CURVE SMOOTH",
"190 239 OFFCURVE",
"281 307 OFFCURVE",
"369 307 CURVE SMOOTH",
"412 307 OFFCURVE",
"454 285 OFFCURVE",
"454 222 CURVE SMOOTH"
);
}
);
width = 593;
}
);
category = Letter;
subCategory = Other;
},
{
glyphname = TawFin.alt14;
lastChange = "2019-10-31 19:51:10 +0000";
layers = (
{
anchors = (
{
name = Anchor2;
position = "{516, -60}";
},
{
name = Anchor4;
position = "{526, -60}";
},
{
name = Anchor6;
position = "{555, 449}";
}
);
layerId = UUID0;
paths = (
{
closed = 1;
nodes = (
"737 349 OFFCURVE",
"641 382 OFFCURVE",
"575 382 CURVE SMOOTH",
"510 382 OFFCURVE",
"441 350 OFFCURVE",
"396 299 CURVE",
"395 330 OFFCURVE",
"395 370 OFFCURVE",
"393 426 CURVE",
"317 426 LINE",
"317 406 OFFCURVE",
"318 312 OFFCURVE",
"318 300 CURVE SMOOTH",
"318 260 OFFCURVE",
"317 215 OFFCURVE",
"315 174 CURVE SMOOTH",
"312 111 OFFCURVE",
"297 76 OFFCURVE",
"245 76 CURVE SMOOTH",
"208 76 OFFCURVE",
"166 91 OFFCURVE",
"164 182 CURVE SMOOTH",
"163 229 OFFCURVE",
"162 529 OFFCURVE",
"162 674 CURVE",
"89 674 LINE",
"85 564 OFFCURVE",
"80 316 OFFCURVE",
"80 189 CURVE SMOOTH",
"80 63 OFFCURVE",
"125 0 OFFCURVE",
"238 0 CURVE SMOOTH",
"297 0 OFFCURVE",
"334 19 OFFCURVE",
"357 49 CURVE",
"389 11 OFFCURVE",
"438 0 OFFCURVE",
"529 0 CURVE SMOOTH",
"796 0 LINE",
"796 76 LINE",
"770 76 LINE",
"671 72 LINE",
"668 76 LINE",
"707 110 OFFCURVE",
"737 159 OFFCURVE",
"737 229 CURVE SMOOTH"
);
},
{
closed = 1;
nodes = (
"657 130 OFFCURVE",
"562 72 OFFCURVE",
"491 72 CURVE SMOOTH",
"425 72 OFFCURVE",
"393 95 OFFCURVE",
"393 142 CURVE SMOOTH",
"393 239 OFFCURVE",
"484 307 OFFCURVE",
"572 307 CURVE SMOOTH",
"615 307 OFFCURVE",
"657 285 OFFCURVE",
"657 222 CURVE SMOOTH"
);
}
);
width = 796;
}
);
category = Letter;
subCategory = Other;
},
{
glyphname = TawFin.alt15;
lastChange = "2019-10-31 19:51:10 +0000";
layers = (
{
anchors = (
{
name = Anchor2;
position = "{560, -60}";
},
{
name = Anchor4;
position = "{613, -60}";
},
{
name = Anchor6;
position = "{663, 458}";
}
);
layerId = UUID0;
paths = (
{
closed = 1;
nodes = (
"824 349 OFFCURVE",
"728 382 OFFCURVE",
"662 382 CURVE SMOOTH",
"613 382 OFFCURVE",
"564 365 OFFCURVE",
"522 332 CURVE",
"519 334 LINE",
"523 356 OFFCURVE",
"528 388 OFFCURVE",
"532 426 CURVE",
"457 426 LINE",
"439 300 OFFCURVE",
"418 200 OFFCURVE",
"395 158 CURVE SMOOTH",
"373 118 OFFCURVE",
"346 76 OFFCURVE",
"241 76 CURVE SMOOTH",
"50 76 LINE",
"50 0 LINE",
"224 0 LINE SMOOTH",
"327 0 OFFCURVE",
"392 22 OFFCURVE",
"430 70 CURVE",
"461 16 OFFCURVE",
"510 0 OFFCURVE",
"616 0 CURVE SMOOTH",
"883 0 LINE",
"883 76 LINE",
"857 76 LINE",
"758 72 LINE",
"755 76 LINE",
"794 110 OFFCURVE",
"824 159 OFFCURVE",
"824 229 CURVE SMOOTH"
);
},
{
closed = 1;
nodes = (
"744 130 OFFCURVE",
"649 72 OFFCURVE",
"578 72 CURVE SMOOTH",
"512 72 OFFCURVE",
"480 95 OFFCURVE",
"480 142 CURVE SMOOTH",
"480 239 OFFCURVE",
"571 307 OFFCURVE",
"659 307 CURVE SMOOTH",
"702 307 OFFCURVE",
"744 285 OFFCURVE",
"744 222 CURVE SMOOTH"
);
}
);
width = 883;
}
);
category = Letter;
subCategory = Other;
},
{
glyphname = LamedhMed.wide;
lastChange = "2019-10-31 19:51:10 +0000";
layers = (
{
anchors = (
{
name = Anchor2;
position = "{212, -60}";
},
{
name = Anchor4;
position = "{90, -60}";
},
{
name = Anchor6;
position = "{-7, 756}";
}
);
layerId = UUID0;
paths = (
{
closed = 1;
nodes = (
"107 0 LINE SMOOTH",
"178 0 OFFCURVE",
"253 11 OFFCURVE",
"280 59 CURVE",
"313 7 OFFCURVE",
"347 0 OFFCURVE",
"387 0 CURVE",
"387 76 LINE",
"370 76 OFFCURVE",
"355 96 OFFCURVE",
"335 125 CURVE SMOOTH",
"289 192 OFFCURVE",
"116 521 OFFCURVE",
"23 715 CURVE",
"-49 679 LINE",
"7 547 OFFCURVE",
"188 199 OFFCURVE",
"233 123 CURVE",
"231 98 OFFCURVE",
"204 76 OFFCURVE",
"107 76 CURVE SMOOTH",
"0 76 LINE SMOOTH",
"-34 76 OFFCURVE",
"-43 57 OFFCURVE",
"-43 38 CURVE SMOOTH",
"-43 19 OFFCURVE",
"-34 0 OFFCURVE",
"0 0 CURVE SMOOTH"
);
}
);
width = 387;
}
);
category = Letter;
subCategory = Other;
},
{
glyphname = LamedhIni.wide;
lastChange = "2019-10-31 19:51:10 +0000";
layers = (
{
anchors = (
{
name = Anchor2;
position = "{215, -60}";
},
{
name = Anchor4;
position = "{113, -60}";
},
{
name = Anchor6;
position = "{38, 755}";
}
);
layerId = UUID0;
paths = (
{
closed = 1;
nodes = (
"135 0 LINE SMOOTH",
"235 0 OFFCURVE",
"352 9 OFFCURVE",
"352 123 CURVE SMOOTH",
"352 145 OFFCURVE",
"344 172 OFFCURVE",
"328 204 CURVE SMOOTH",
"261 334 OFFCURVE",
"139 566 OFFCURVE",
"64 715 CURVE",
"-9 679 LINE",
"49 564 OFFCURVE",
"180 305 OFFCURVE",
"247 174 CURVE SMOOTH",
"253 162 OFFCURVE",
"262 140 OFFCURVE",
"262 121 CURVE SMOOTH",
"262 101 OFFCURVE",
"250 76 OFFCURVE",
"158 76 CURVE SMOOTH",
"0 76 LINE SMOOTH",
"-34 76 OFFCURVE",
"-43 57 OFFCURVE",
"-43 38 CURVE SMOOTH",
"-43 19 OFFCURVE",
"-34 0 OFFCURVE",
"0 0 CURVE SMOOTH"
);
}
);
width = 402;
}
);
category = Letter;
subCategory = Other;
},
{
glyphname = LamedhMed.hookwide;
lastChange = "2019-10-31 19:51:10 +0000";
layers = (
{
anchors = (
{
name = Anchor2;
position = "{212, -60}";
},
{
name = Anchor4;
position = "{90, -60}";
},
{
name = Anchor6;
position = "{-38, 776}";
}
);
layerId = UUID0;
paths = (
{
closed = 1;
nodes = (
"46 481 OFFCURVE",
"193 190 OFFCURVE",
"233 123 CURVE",
"231 98 OFFCURVE",
"204 76 OFFCURVE",
"107 76 CURVE SMOOTH",
"0 76 LINE SMOOTH",
"-34 76 OFFCURVE",
"-43 57 OFFCURVE",
"-43 38 CURVE SMOOTH",
"-43 19 OFFCURVE",
"-34 0 OFFCURVE",
"0 0 CURVE SMOOTH",
"107 0 LINE SMOOTH",
"178 0 OFFCURVE",
"253 11 OFFCURVE",
"280 59 CURVE",
"313 7 OFFCURVE",
"347 0 OFFCURVE",
"387 0 CURVE",
"387 76 LINE",
"370 76 OFFCURVE",
"355 96 OFFCURVE",
"335 125 CURVE SMOOTH",
"292 188 OFFCURVE",
"136 485 OFFCURVE",
"38 680 CURVE SMOOTH",
"14 728 OFFCURVE",
"-11 738 OFFCURVE",
"-42 738 CURVE SMOOTH",
"-73 738 OFFCURVE",
"-96 729 OFFCURVE",
"-135 682 CURVE SMOOTH",
"-145 670 LINE",
"-100 633 LINE",
"-56 678 LINE",
"-51 678 OFFCURVE",
"-47 670 OFFCURVE",
"-29 634 CURVE SMOOTH"
);
}
);
width = 387;
}
);
category = Letter;
subCategory = Other;
},
{
glyphname = LamedhIni.hookwide;
lastChange = "2019-10-31 19:51:10 +0000";
layers = (
{
anchors = (
{
name = Anchor2;
position = "{170, -60}";
},
{
name = Anchor4;
position = "{90, -60}";
},
{
name = Anchor6;
position = "{-40, 775}";
}
);
layerId = UUID0;
paths = (
{
closed = 1;
nodes = (
"36 680 LINE SMOOTH",
"11 728 OFFCURVE",
"-13 738 OFFCURVE",
"-44 738 CURVE SMOOTH",
"-75 738 OFFCURVE",
"-98 729 OFFCURVE",
"-137 682 CURVE SMOOTH",
"-147 670 LINE",
"-102 633 LINE",
"-58 678 LINE",
"-54 678 OFFCURVE",
"-49 670 OFFCURVE",
"-31 634 CURVE SMOOTH",
"25 521 OFFCURVE",
"136 303 OFFCURVE",
"202 174 CURVE SMOOTH",
"208 162 OFFCURVE",
"217 140 OFFCURVE",
"217 121 CURVE SMOOTH",
"217 101 OFFCURVE",
"205 76 OFFCURVE",
"113 76 CURVE SMOOTH",
"0 76 LINE SMOOTH",
"-34 76 OFFCURVE",
"-43 57 OFFCURVE",
"-43 38 CURVE SMOOTH",
"-43 19 OFFCURVE",
"-34 0 OFFCURVE",
"0 0 CURVE SMOOTH",
"90 0 LINE SMOOTH",
"190 0 OFFCURVE",
"307 9 OFFCURVE",
"307 123 CURVE SMOOTH",
"307 145 OFFCURVE",
"299 172 OFFCURVE",
"283 204 CURVE SMOOTH"
);
}
);
width = 357;
}
);
category = Letter;
subCategory = Other;
},
{
glyphname = LamedhMed.pewide;
lastChange = "2019-10-31 19:51:10 +0000";
layers = (
{
anchors = (
{
name = Anchor2;
position = "{213, -341}";
},
{
name = Anchor4;
position = "{113, -60}";
},
{
name = Anchor6;
position = "{38, 755}";
}
);
layerId = UUID0;
paths = (
{
closed = 1;
nodes = (
"135 0 LINE SMOOTH",
"235 0 OFFCURVE",
"352 9 OFFCURVE",
"352 123 CURVE SMOOTH",
"352 145 OFFCURVE",
"344 172 OFFCURVE",
"328 204 CURVE SMOOTH",
"261 334 OFFCURVE",
"139 566 OFFCURVE",
"64 715 CURVE",
"-9 679 LINE",
"49 564 OFFCURVE",
"180 305 OFFCURVE",
"247 174 CURVE SMOOTH",
"253 162 OFFCURVE",
"262 140 OFFCURVE",
"262 121 CURVE SMOOTH",
"262 101 OFFCURVE",
"250 76 OFFCURVE",
"158 76 CURVE SMOOTH",
"0 76 LINE SMOOTH",
"-34 76 OFFCURVE",
"-43 57 OFFCURVE",
"-43 38 CURVE SMOOTH",
"-43 19 OFFCURVE",
"-34 0 OFFCURVE",
"0 0 CURVE SMOOTH"
);
}
);
width = 402;
}
);
category = Letter;
subCategory = Other;
},
{
glyphname = KaphIni.ligaM;
lastChange = "2019-10-31 19:51:10 +0000";
layers = (
{
anchors = (
{
name = Anchor2;
position = "{236, -313}";
},
{
name = Anchor4;
position = "{-116, -361}";
},
{
name = Anchor6;
position = "{236, 442}";
}
);
layerId = UUID0;
paths = (
{
closed = 1;
nodes = (
"178 -301 OFFCURVE",
"299 -122 OFFCURVE",
"369 76 CURVE SMOOTH",
"400 165 OFFCURVE",
"425 276 OFFCURVE",
"430 382 CURVE",
"355 382 LINE",
"349 316 OFFCURVE",
"338 244 OFFCURVE",
"325 189 CURVE",
"188 221 OFFCURVE",
"128 301 OFFCURVE",
"112 386 CURVE",
"44 374 LINE",
"43 367 OFFCURVE",
"43 365 OFFCURVE",
"43 358 CURVE SMOOTH",
"43 301 OFFCURVE",
"69 246 OFFCURVE",
"111 206 CURVE SMOOTH",
"150 168 OFFCURVE",
"210 134 OFFCURVE",
"301 112 CURVE",
"239 -64 OFFCURVE",
"131 -216 OFFCURVE",
"-91 -216 CURVE SMOOTH",
"-195 -216 OFFCURVE",
"-344 -160 OFFCURVE",
"-363 43 CURVE",
"-446 40 LINE",
"-431 -193 OFFCURVE",
"-273 -301 OFFCURVE",
"-98 -301 CURVE SMOOTH"
);
}
);
width = 484;
}
);
category = Letter;
subCategory = Other;
},
{
glyphname = KaphMed.ligaM;
lastChange = "2019-10-31 19:51:10 +0000";
layers = (
{
anchors = (
{
name = Anchor2;
position = "{253, -309}";
},
{
name = Anchor4;
position = "{-116, -361}";
},
{
name = Anchor6;
position = "{237, 442}";
}
);
layerId = UUID0;
paths = (
{
closed = 1;
nodes = (
"152 -301 OFFCURVE",
"275 -154 OFFCURVE",
"348 21 CURVE",
"398 1 OFFCURVE",
"444 0 OFFCURVE",
"480 0 CURVE",
"480 76 LINE",
"453 76 OFFCURVE",
"414 77 OFFCURVE",
"375 93 CURVE",
"403 179 OFFCURVE",
"425 282 OFFCURVE",
"430 382 CURVE",
"355 382 LINE",
"347 287 OFFCURVE",
"327 179 OFFCURVE",
"306 127 CURVE",
"203 195 OFFCURVE",
"150 301 OFFCURVE",
"111 386 CURVE",
"39 354 LINE",
"60 287 OFFCURVE",
"144 120 OFFCURVE",
"276 48 CURVE",
"211 -99 OFFCURVE",
"103 -216 OFFCURVE",
"-91 -216 CURVE SMOOTH",
"-195 -216 OFFCURVE",
"-344 -160 OFFCURVE",
"-363 43 CURVE",
"-446 40 LINE",
"-431 -193 OFFCURVE",
"-273 -301 OFFCURVE",
"-98 -301 CURVE SMOOTH"
);
}
);
width = 480;
}
);
category = Letter;
subCategory = Other;
},
{
glyphname = PeIni.ligaM;
lastChange = "2019-10-31 19:51:10 +0000";
layers = (
{
anchors = (
{
name = Anchor2;
position = "{240, -327}";
},
{
name = Anchor4;
position = "{-88, -361}";
},
{
name = Anchor6;
position = "{264, 472}";
}
);
layerId = UUID0;
paths = (
{
closed = 1;
nodes = (
"-446 40 LINE",
"-431 -193 OFFCURVE",
"-282 -301 OFFCURVE",
"-72 -301 CURVE SMOOTH",
"66 -301 OFFCURVE",
"174 -254 OFFCURVE",
"261 -176 CURVE SMOOTH",
"373 -75 OFFCURVE",
"434 78 OFFCURVE",
"434 218 CURVE SMOOTH",
"434 339 OFFCURVE",
"373 410 OFFCURVE",
"266 410 CURVE SMOOTH",
"160 410 OFFCURVE",
"51 286 OFFCURVE",
"51 162 CURVE SMOOTH",
"51 41 OFFCURVE",
"160 2 OFFCURVE",
"299 0 CURVE",
"234 -119 OFFCURVE",
"113 -216 OFFCURVE",
"-65 -216 CURVE SMOOTH",
"-199 -216 OFFCURVE",
"-344 -160 OFFCURVE",
"-363 43 CURVE"
);
},
{
closed = 1;
nodes = (
"134 248 OFFCURVE",
"191 330 OFFCURVE",
"263 330 CURVE SMOOTH",
"339 330 OFFCURVE",
"355 269 OFFCURVE",
"355 214 CURVE SMOOTH",
"355 169 OFFCURVE",
"347 122 OFFCURVE",
"332 76 CURVE",
"241 77 OFFCURVE",
"134 89 OFFCURVE",
"134 179 CURVE SMOOTH"
);
}
);
width = 489;
}
);
category = Letter;
subCategory = Other;
},
{
glyphname = PeMed.ligaM;
lastChange = "2019-10-31 19:51:10 +0000";
layers = (
{
anchors = (
{
name = Anchor2;
position = "{238, -325}";
},
{
name = Anchor4;
position = "{-88, -361}";
},
{
name = Anchor6;
position = "{264, 472}";
}
);
layerId = UUID0;
paths = (
{
closed = 1;
nodes = (
"-446 40 LINE",
"-431 -193 OFFCURVE",
"-282 -301 OFFCURVE",
"-72 -301 CURVE SMOOTH",
"66 -301 OFFCURVE",
"174 -254 OFFCURVE",
"261 -176 CURVE SMOOTH",
"315 -127 OFFCURVE",
"358 -66 OFFCURVE",
"387 0 CURVE",
"501 0 LINE",
"501 76 LINE",
"414 76 LINE",
"427 123 OFFCURVE",
"434 171 OFFCURVE",
"434 218 CURVE SMOOTH",
"434 339 OFFCURVE",
"373 410 OFFCURVE",
"266 410 CURVE SMOOTH",
"160 410 OFFCURVE",
"51 286 OFFCURVE",
"51 162 CURVE SMOOTH",
"51 41 OFFCURVE",
"160 2 OFFCURVE",
"299 0 CURVE",
"234 -119 OFFCURVE",
"113 -216 OFFCURVE",
"-65 -216 CURVE SMOOTH",
"-199 -216 OFFCURVE",
"-344 -160 OFFCURVE",
"-363 43 CURVE"
);
},
{
closed = 1;
nodes = (
"134 248 OFFCURVE",
"191 330 OFFCURVE",
"263 330 CURVE SMOOTH",
"339 330 OFFCURVE",
"355 269 OFFCURVE",
"355 214 CURVE SMOOTH",
"355 169 OFFCURVE",
"347 122 OFFCURVE",
"332 76 CURVE",
"241 77 OFFCURVE",
"134 89 OFFCURVE",
"134 179 CURVE SMOOTH"
);
}
);
width = 501;
}
);
category = Letter;
subCategory = Other;
},
{
glyphname = KaphIni.ligaF;
lastChange = "2019-10-31 19:51:10 +0000";
layers = (
{
anchors = (
{
name = Anchor2;
position = "{234, -306}";
},
{
name = Anchor4;
position = "{-78, -333}";
},
{
name = Anchor6;
position = "{238, 442}";
}
);
layerId = UUID0;
paths = (
{
closed = 1;
nodes = (
"-397 -67 LINE",
"-334 -198 OFFCURVE",
"-218 -273 OFFCURVE",
"-62 -273 CURVE SMOOTH",
"174 -273 OFFCURVE",
"300 -122 OFFCURVE",
"370 76 CURVE SMOOTH",
"401 165 OFFCURVE",
"426 276 OFFCURVE",
"431 382 CURVE",
"356 382 LINE",
"350 316 OFFCURVE",
"339 244 OFFCURVE",
"326 189 CURVE",
"189 221 OFFCURVE",
"129 301 OFFCURVE",
"113 386 CURVE",
"45 374 LINE",
"44 367 OFFCURVE",
"44 365 OFFCURVE",
"44 358 CURVE SMOOTH",
"44 301 OFFCURVE",
"70 246 OFFCURVE",
"112 206 CURVE SMOOTH",
"151 168 OFFCURVE",
"211 134 OFFCURVE",
"302 112 CURVE",
"241 -62 OFFCURVE",
"138 -188 OFFCURVE",
"-55 -188 CURVE SMOOTH",
"-197 -188 OFFCURVE",
"-279 -117 OFFCURVE",
"-325 -17 CURVE"
);
}
);
width = 485;
}
);
category = Letter;
subCategory = Other;
},
{
glyphname = KaphMed.ligaF;
lastChange = "2019-10-31 19:51:10 +0000";
layers = (
{
anchors = (
{
name = Anchor2;
position = "{252, -289}";
},
{
name = Anchor4;
position = "{-78, -333}";
},
{
name = Anchor6;
position = "{238, 442}";
}
);
layerId = UUID0;
paths = (
{
closed = 1;
nodes = (
"-397 -67 LINE",
"-334 -198 OFFCURVE",
"-218 -273 OFFCURVE",
"-62 -273 CURVE SMOOTH",
"151 -273 OFFCURVE",
"275 -149 OFFCURVE",
"349 21 CURVE",
"399 1 OFFCURVE",
"445 0 OFFCURVE",
"481 0 CURVE",
"481 76 LINE",
"454 76 OFFCURVE",
"415 77 OFFCURVE",
"376 93 CURVE",
"404 179 OFFCURVE",
"426 282 OFFCURVE",
"431 382 CURVE",
"356 382 LINE",
"348 287 OFFCURVE",
"328 179 OFFCURVE",
"307 127 CURVE",
"204 195 OFFCURVE",
"151 301 OFFCURVE",
"112 386 CURVE",
"40 354 LINE",
"61 287 OFFCURVE",
"145 120 OFFCURVE",
"276 48 CURVE",
"213 -92 OFFCURVE",
"113 -188 OFFCURVE",
"-55 -188 CURVE SMOOTH",
"-197 -188 OFFCURVE",
"-279 -117 OFFCURVE",
"-325 -17 CURVE"
);
}
);
width = 481;
}
);
category = Letter;
subCategory = Other;
},
{
glyphname = PeIni.ligaF;
lastChange = "2019-10-31 19:51:10 +0000";
layers = (
{
anchors = (
{
name = Anchor2;
position = "{239, -306}";
},
{
name = Anchor4;
position = "{-67, -333}";
},
{
name = Anchor6;
position = "{264, 470}";
}
);
layerId = UUID0;
paths = (
{
closed = 1;
nodes = (
"-397 -67 LINE",
"-334 -198 OFFCURVE",
"-208 -273 OFFCURVE",
"-53 -273 CURVE SMOOTH",
"260 -273 OFFCURVE",
"434 -58 OFFCURVE",
"434 218 CURVE SMOOTH",
"434 339 OFFCURVE",
"373 410 OFFCURVE",
"266 410 CURVE SMOOTH",
"160 410 OFFCURVE",
"51 286 OFFCURVE",
"51 162 CURVE SMOOTH",
"51 39 OFFCURVE",
"163 1 OFFCURVE",
"305 0 CURVE",
"236 -118 OFFCURVE",
"105 -188 OFFCURVE",
"-45 -188 CURVE SMOOTH",
"-187 -188 OFFCURVE",
"-279 -117 OFFCURVE",
"-325 -17 CURVE"
);
},
{
closed = 1;
nodes = (
"134 248 OFFCURVE",
"191 330 OFFCURVE",
"263 330 CURVE SMOOTH",
"339 330 OFFCURVE",
"355 269 OFFCURVE",
"355 214 CURVE SMOOTH",
"355 164 OFFCURVE",
"348 117 OFFCURVE",
"335 76 CURVE",
"243 77 OFFCURVE",
"134 88 OFFCURVE",
"134 179 CURVE SMOOTH"
);
}
);
width = 489;
}
);
category = Letter;
subCategory = Other;
},
{
glyphname = PeMed.ligaF;
lastChange = "2019-10-31 19:51:10 +0000";
layers = (
{
anchors = (
{
name = Anchor2;
position = "{240, -309}";
},
{
name = Anchor4;
position = "{-67, -333}";
},
{
name = Anchor6;
position = "{265, 472}";
}
);
layerId = UUID0;
paths = (
{
closed = 1;
nodes = (
"-397 -67 LINE",
"-334 -198 OFFCURVE",
"-208 -273 OFFCURVE",
"-53 -273 CURVE SMOOTH",
"171 -273 OFFCURVE",
"318 -165 OFFCURVE",
"395 0 CURVE",
"501 0 LINE",
"501 76 LINE",
"417 76 LINE",
"428 120 OFFCURVE",
"434 167 OFFCURVE",
"434 218 CURVE SMOOTH",
"434 339 OFFCURVE",
"373 410 OFFCURVE",
"266 410 CURVE SMOOTH",
"160 410 OFFCURVE",
"51 286 OFFCURVE",
"51 162 CURVE SMOOTH",
"51 39 OFFCURVE",
"163 1 OFFCURVE",
"305 0 CURVE",
"236 -118 OFFCURVE",
"105 -188 OFFCURVE",
"-45 -188 CURVE SMOOTH",
"-187 -188 OFFCURVE",
"-279 -117 OFFCURVE",
"-325 -17 CURVE"
);
},
{
closed = 1;
nodes = (
"134 248 OFFCURVE",
"191 330 OFFCURVE",
"263 330 CURVE SMOOTH",
"339 330 OFFCURVE",
"355 269 OFFCURVE",
"355 214 CURVE SMOOTH",
"355 164 OFFCURVE",
"348 117 OFFCURVE",
"335 76 CURVE",
"243 77 OFFCURVE",
"134 88 OFFCURVE",
"134 179 CURVE SMOOTH"
);
}
);
width = 501;
}
);
category = Letter;
subCategory = Other;
},
{
glyphname = WawFin.liga;
lastChange = "2019-10-31 19:51:10 +0000";
layers = (
{
anchors = (
{
name = Anchor2;
position = "{359, -337}";
},
{
name = Anchor4;
position = "{0, -280}";
},
{
name = Anchor6;
position = "{403, 471}";
}
);
layerId = UUID0;
paths = (
{
closed = 1;
nodes = (
"-8 -245 LINE",
"112 -187 OFFCURVE",
"296 -81 OFFCURVE",
"390 -17 CURVE SMOOTH",
"510 64 OFFCURVE",
"573 129 OFFCURVE",
"573 238 CURVE SMOOTH",
"573 343 OFFCURVE",
"486 405 OFFCURVE",
"403 405 CURVE SMOOTH",
"258 405 OFFCURVE",
"195 266 OFFCURVE",
"195 148 CURVE SMOOTH",
"195 82 OFFCURVE",
"203 22 OFFCURVE",
"223 -30 CURVE",
"150 -73 OFFCURVE",
"68 -119 OFFCURVE",
"-20 -165 CURVE"
);
},
{
closed = 1;
nodes = (
"276 239 OFFCURVE",
"316 325 OFFCURVE",
"399 325 CURVE SMOOTH",
"450 325 OFFCURVE",
"492 290 OFFCURVE",
"492 236 CURVE SMOOTH",
"492 164 OFFCURVE",
"449 113 OFFCURVE",
"351 49 CURVE SMOOTH",
"297 14 LINE",
"280 58 OFFCURVE",
"276 106 OFFCURVE",
"276 155 CURVE SMOOTH"
);
}
);
width = 637;
}
);
category = Letter;
subCategory = Other;
},
{
glyphname = WawMed.liga;
lastChange = "2019-10-31 19:51:10 +0000";
layers = (
{
anchors = (
{
name = Anchor2;
position = "{223, -338}";
},
{
name = Anchor4;
position = "{274, -28}";
},
{
name = Anchor6;
position = "{266, 473}";
}
);
layerId = UUID0;
paths = (
{
closed = 1;
nodes = (
"-43 19 OFFCURVE",
"-34 0 OFFCURVE",
"0 0 CURVE SMOOTH",
"115 0 LINE SMOOTH",
"322 0 OFFCURVE",
"451 57 OFFCURVE",
"451 218 CURVE SMOOTH",
"451 310 OFFCURVE",
"406 410 OFFCURVE",
"278 410 CURVE SMOOTH",
"112 410 OFFCURVE",
"54 210 OFFCURVE",
"54 80 CURVE SMOOTH",
"54 76 LINE",
"0 76 LINE SMOOTH",
"-34 76 OFFCURVE",
"-43 57 OFFCURVE",
"-43 38 CURVE SMOOTH"
);
},
{
closed = 1;
nodes = (
"136 88 LINE SMOOTH",
"136 194 OFFCURVE",
"174 329 OFFCURVE",
"277 329 CURVE SMOOTH",
"357 329 OFFCURVE",
"374 261 OFFCURVE",
"374 213 CURVE SMOOTH",
"374 114 OFFCURVE",
"296 79 OFFCURVE",
"136 76 CURVE"
);
}
);
width = 501;
}
);
category = Letter;
subCategory = Other;
},
{
glyphname = AlephMed.pe;
lastChange = "2019-10-31 19:51:10 +0000";
layers = (
{
anchors = (
{
name = Anchor2;
position = "{139, -249}";
},
{
name = Anchor4;
position = "{157, -60}";
},
{
name = Anchor6;
position = "{210, 441}";
}
);
layerId = UUID0;
paths = (
{
closed = 1;
nodes = (
"399 0 LINE",
"399 65 LINE",
"362 82 OFFCURVE",
"291 149 OFFCURVE",
"236 209 CURVE",
"290 258 OFFCURVE",
"353 308 OFFCURVE",
"401 336 CURVE",
"360 394 LINE",
"309 366 OFFCURVE",
"244 313 OFFCURVE",
"188 259 CURVE",
"154 297 OFFCURVE",
"120 348 OFFCURVE",
"96 391 CURVE",
"29 351 LINE",
"70 275 OFFCURVE",
"177 128 OFFCURVE",
"267 76 CURVE",
"267 72 LINE",
"236 74 OFFCURVE",
"146 76 OFFCURVE",
"129 76 CURVE SMOOTH",
"0 76 LINE SMOOTH",
"-34 76 OFFCURVE",
"-43 57 OFFCURVE",
"-43 38 CURVE SMOOTH",
"-43 19 OFFCURVE",
"-34 0 OFFCURVE",
"0 0 CURVE SMOOTH"
);
}
);
width = 469;
}
);
category = Letter;
subCategory = Other;
},
{
glyphname = BethMed.pe;
lastChange = "2019-10-31 19:51:10 +0000";
layers = (
{
anchors = (
{
name = Anchor2;
position = "{157, -280}";
},
{
name = Anchor4;
position = "{147, -60}";
},
{
name = Anchor6;
position = "{225, 442}";
}
);
layerId = UUID0;
paths = (
{
closed = 1;
nodes = (
"262 222 OFFCURVE",
"308 235 OFFCURVE",
"336 268 CURVE",
"340 248 OFFCURVE",
"344 201 OFFCURVE",
"344 186 CURVE SMOOTH",
"344 113 OFFCURVE",
"333 76 OFFCURVE",
"251 76 CURVE SMOOTH",
"0 76 LINE SMOOTH",
"-34 76 OFFCURVE",
"-43 57 OFFCURVE",
"-43 38 CURVE SMOOTH",
"-43 19 OFFCURVE",
"-34 0 OFFCURVE",
"0 0 CURVE SMOOTH",
"248 0 LINE SMOOTH",
"375 0 OFFCURVE",
"423 59 OFFCURVE",
"423 168 CURVE SMOOTH",
"423 225 OFFCURVE",
"409 308 OFFCURVE",
"392 382 CURVE",
"330 382 LINE",
"323 315 OFFCURVE",
"277 293 OFFCURVE",
"216 293 CURVE SMOOTH",
"155 293 OFFCURVE",
"122 324 OFFCURVE",
"111 390 CURVE",
"41 375 LINE",
"46 252 OFFCURVE",
"134 222 OFFCURVE",
"205 222 CURVE SMOOTH"
);
}
);
width = 499;
}
);
category = Letter;
subCategory = Other;
},
{
glyphname = GimelMed.pe;
lastChange = "2019-10-31 19:51:10 +0000";
layers = (
{
anchors = (
{
name = Anchor2;
position = "{150, -251}";
},
{
name = Anchor4;
position = "{205, -60}";
},
{
name = Anchor6;
position = "{278, 442}";
}
);
layerId = UUID0;
paths = (
{
closed = 1;
nodes = (
"359 -30 OFFCURVE",
"404 29 OFFCURVE",
"423 98 CURVE SMOOTH",
"438 152 OFFCURVE",
"445 217 OFFCURVE",
"447 287 CURVE SMOOTH",
"448 313 OFFCURVE",
"448 358 OFFCURVE",
"448 382 CURVE",
"382 382 LINE",
"366 254 LINE SMOOTH",
"349 118 OFFCURVE",
"334 45 OFFCURVE",
"280 45 CURVE SMOOTH",
"226 45 OFFCURVE",
"205 116 OFFCURVE",
"177 269 CURVE SMOOTH",
"156 382 LINE",
"92 382 LINE",
"94 320 OFFCURVE",
"99 262 OFFCURVE",
"107 206 CURVE",
"107 200 LINE",
"107 116 OFFCURVE",
"63 76 OFFCURVE",
"0 76 CURVE SMOOTH",
"-34 76 OFFCURVE",
"-43 57 OFFCURVE",
"-43 38 CURVE SMOOTH",
"-43 19 OFFCURVE",
"-34 0 OFFCURVE",
"0 0 CURVE SMOOTH",
"40 0 OFFCURVE",
"101 12 OFFCURVE",
"142 64 CURVE",
"143 63 LINE",
"165 17 OFFCURVE",
"190 -30 OFFCURVE",
"271 -30 CURVE SMOOTH"
);
}
);
width = 523;
}
);
category = Letter;
subCategory = Other;
},
{
glyphname = ZayinMed.pe;
lastChange = "2019-10-31 19:51:10 +0000";
layers = (
{
anchors = (
{
name = Anchor2;
position = "{160, -320}";
},
{
name = Anchor4;
position = "{157, -60}";
},
{
name = Anchor6;
position = "{186, 443}";
}
);
layerId = UUID0;
paths = (
{
closed = 1;
nodes = (
"189 230 LINE",
"198 207 OFFCURVE",
"207 187 OFFCURVE",
"216 168 CURVE SMOOTH",
"229 141 OFFCURVE",
"237 118 OFFCURVE",
"237 105 CURVE SMOOTH",
"237 90 OFFCURVE",
"229 76 OFFCURVE",
"192 76 CURVE SMOOTH",
"161 76 LINE",
"147 0 LINE",
"194 0 LINE SMOOTH",
"258 0 OFFCURVE",
"315 29 OFFCURVE",
"315 96 CURVE SMOOTH",
"315 124 OFFCURVE",
"310 142 OFFCURVE",
"281 204 CURVE SMOOTH",
"253 264 OFFCURVE",
"230 322 OFFCURVE",
"208 382 CURVE",
"156 382 LINE",
"132 294 OFFCURVE",
"104 204 OFFCURVE",
"66 135 CURVE SMOOTH",
"41 89 OFFCURVE",
"21 76 OFFCURVE",
"0 76 CURVE SMOOTH",
"-34 76 OFFCURVE",
"-43 57 OFFCURVE",
"-43 38 CURVE SMOOTH",
"-43 19 OFFCURVE",
"-34 0 OFFCURVE",
"0 0 CURVE SMOOTH",
"75 0 OFFCURVE",
"109 58 OFFCURVE",
"143 123 CURVE SMOOTH",
"161 157 OFFCURVE",
"173 193 OFFCURVE",
"185 230 CURVE"
);
}
);
width = 385;
}
);
category = Letter;
subCategory = Other;
},
{
glyphname = HethMed.pe;
lastChange = "2019-10-31 19:51:10 +0000";
layers = (
{
anchors = (
{
name = Anchor2;
position = "{260, -329}";
},
{
name = Anchor4;
position = "{205, -60}";
},
{
name = Anchor6;
position = "{279, 443}";
}
);
layerId = UUID0;
paths = (
{
closed = 1;
nodes = (
"359 -30 OFFCURVE",
"404 29 OFFCURVE",
"423 98 CURVE SMOOTH",
"438 152 OFFCURVE",
"445 218 OFFCURVE",
"447 287 CURVE SMOOTH",
"448 313 OFFCURVE",
"448 358 OFFCURVE",
"448 382 CURVE",
"382 382 LINE",
"366 254 LINE SMOOTH",
"349 118 OFFCURVE",
"334 45 OFFCURVE",
"280 45 CURVE SMOOTH",
"226 45 OFFCURVE",
"205 116 OFFCURVE",
"177 269 CURVE SMOOTH",
"156 382 LINE",
"92 382 LINE",
"94 320 OFFCURVE",
"99 262 OFFCURVE",
"107 206 CURVE",
"107 200 LINE",
"107 116 OFFCURVE",
"63 76 OFFCURVE",
"0 76 CURVE SMOOTH",
"-34 76 OFFCURVE",
"-43 57 OFFCURVE",
"-43 38 CURVE SMOOTH",
"-43 19 OFFCURVE",
"-34 0 OFFCURVE",
"0 0 CURVE SMOOTH",
"40 0 OFFCURVE",
"101 12 OFFCURVE",
"142 64 CURVE",
"174 -6 OFFCURVE",
"211 -30 OFFCURVE",
"271 -30 CURVE SMOOTH"
);
}
);
width = 523;
}
);
category = Letter;
subCategory = Other;
},
{
glyphname = YodhMed.pe;
lastChange = "2019-10-31 19:51:10 +0000";
layers = (
{
anchors = (
{
name = Anchor2;
position = "{123, -341}";
},
{
name = Anchor4;
position = "{20, -30}";
},
{
name = Anchor6;
position = "{139, 502}";
}
);
layerId = UUID0;
paths = (
{
closed = 1;
nodes = (
"26 0 LINE SMOOTH",
"138 0 OFFCURVE",
"181 24 OFFCURVE",
"211 52 CURVE SMOOTH",
"236 76 OFFCURVE",
"248 111 OFFCURVE",
"248 141 CURVE SMOOTH",
"248 163 OFFCURVE",
"247 179 OFFCURVE",
"238 203 CURVE SMOOTH",
"213 266 OFFCURVE",
"187 301 OFFCURVE",
"143 357 CURVE",
"159 373 OFFCURVE",
"182 394 OFFCURVE",
"198 407 CURVE",
"152 459 LINE",
"122 435 OFFCURVE",
"77 399 OFFCURVE",
"59 382 CURVE",
"57 334 LINE",
"106 282 OFFCURVE",
"163 199 OFFCURVE",
"163 153 CURVE SMOOTH",
"163 83 OFFCURVE",
"104 76 OFFCURVE",
"31 76 CURVE SMOOTH",
"0 76 LINE SMOOTH",
"-34 76 OFFCURVE",
"-43 57 OFFCURVE",
"-43 38 CURVE SMOOTH",
"-43 19 OFFCURVE",
"-34 0 OFFCURVE",
"0 0 CURVE SMOOTH"
);
}
);
width = 328;
}
);
category = Letter;
subCategory = Other;
},
{
glyphname = KaphMed.pe;
lastChange = "2019-10-31 19:51:10 +0000";
layers = (
{
anchors = (
{
name = Anchor2;
position = "{231, -339}";
},
{
name = Anchor4;
position = "{-36, -370}";
},
{
name = Anchor6;
position = "{237, 442}";
}
);
layerId = UUID0;
paths = (
{
closed = 1;
nodes = (
"179 -310 OFFCURVE",
"300 -122 OFFCURVE",
"370 76 CURVE SMOOTH",
"404 171 OFFCURVE",
"426 276 OFFCURVE",
"431 382 CURVE",
"356 382 LINE",
"350 309 OFFCURVE",
"338 251 OFFCURVE",
"320 190 CURVE",
"187 223 OFFCURVE",
"127 302 OFFCURVE",
"112 386 CURVE",
"44 374 LINE",
"43 367 OFFCURVE",
"43 365 OFFCURVE",
"43 358 CURVE SMOOTH",
"43 301 OFFCURVE",
"69 246 OFFCURVE",
"111 206 CURVE SMOOTH",
"149 169 OFFCURVE",
"207 136 OFFCURVE",
"295 114 CURVE",
"234 -60 OFFCURVE",
"142 -224 OFFCURVE",
"-7 -224 CURVE SMOOTH",
"-111 -224 OFFCURVE",
"-187 -179 OFFCURVE",
"-187 20 CURVE SMOOTH",
"-187 52 LINE",
"-256 37 LINE",
"-259 11 OFFCURVE",
"-259 -1 OFFCURVE",
"-259 -6 CURVE SMOOTH",
"-259 -248 OFFCURVE",
"-143 -310 OFFCURVE",
"-15 -310 CURVE SMOOTH"
);
}
);
width = 486;
}
);
category = Letter;
subCategory = Other;
},
{
glyphname = LamedhMed.pe;
lastChange = "2019-10-31 19:51:10 +0000";
layers = (
{
anchors = (
{
name = Anchor2;
position = "{124, -341}";
},
{
name = Anchor4;
position = "{2, -30}";
},
{
name = Anchor6;
position = "{-52, 755}";
}
);
layerId = UUID0;
paths = (
{
closed = 1;
nodes = (
"45 0 LINE SMOOTH",
"145 0 OFFCURVE",
"262 9 OFFCURVE",
"262 123 CURVE SMOOTH",
"262 145 OFFCURVE",
"254 172 OFFCURVE",
"238 204 CURVE SMOOTH",
"171 334 OFFCURVE",
"49 566 OFFCURVE",
"-26 715 CURVE",
"-99 679 LINE",
"-41 564 OFFCURVE",
"90 305 OFFCURVE",
"157 174 CURVE SMOOTH",
"163 162 OFFCURVE",
"172 140 OFFCURVE",
"172 121 CURVE SMOOTH",
"172 101 OFFCURVE",
"160 76 OFFCURVE",
"68 76 CURVE SMOOTH",
"0 76 LINE SMOOTH",
"-34 76 OFFCURVE",
"-43 57 OFFCURVE",
"-43 38 CURVE SMOOTH",
"-43 19 OFFCURVE",
"-34 0 OFFCURVE",
"0 0 CURVE SMOOTH"
);
}
);
width = 312;
}
);
category = Letter;
subCategory = Other;
},
{
glyphname = LamedhMed.pehook;
lastChange = "2019-10-31 19:51:10 +0000";
layers = (
{
anchors = (
{
name = Anchor2;
position = "{123, -341}";
},
{
name = Anchor4;
position = "{2, -30}";
},
{
name = Anchor6;
position = "{-85, 775}";
}
);
layerId = UUID0;
paths = (
{
closed = 1;
nodes = (
"-9 680 LINE SMOOTH",
"-34 728 OFFCURVE",
"-58 738 OFFCURVE",
"-89 738 CURVE SMOOTH",
"-120 738 OFFCURVE",
"-145 719 OFFCURVE",
"-188 676 CURVE SMOOTH",
"-247 617 LINE",
"-207 568 LINE",
"-98 669 LINE",
"-94 669 OFFCURVE",
"-89 661 OFFCURVE",
"-71 625 CURVE SMOOTH",
"-15 512 OFFCURVE",
"91 305 OFFCURVE",
"157 174 CURVE SMOOTH",
"163 162 OFFCURVE",
"172 140 OFFCURVE",
"172 121 CURVE SMOOTH",
"172 101 OFFCURVE",
"160 76 OFFCURVE",
"68 76 CURVE SMOOTH",
"0 76 LINE SMOOTH",
"-34 76 OFFCURVE",
"-43 57 OFFCURVE",
"-43 38 CURVE SMOOTH",
"-43 19 OFFCURVE",
"-34 0 OFFCURVE",
"0 0 CURVE SMOOTH",
"45 0 LINE SMOOTH",
"145 0 OFFCURVE",
"262 9 OFFCURVE",
"262 123 CURVE SMOOTH",
"262 145 OFFCURVE",
"255 172 OFFCURVE",
"238 204 CURVE SMOOTH"
);
}
);
width = 312;
}
);
category = Letter;
subCategory = Other;
},
{
glyphname = LamedhMed.pehookwide;
lastChange = "2019-10-31 19:51:10 +0000";
layers = (
{
anchors = (
{
name = Anchor2;
position = "{168, -341}";
},
{
name = Anchor4;
position = "{90, -60}";
},
{
name = Anchor6;
position = "{-40, 775}";
}
);
layerId = UUID0;
paths = (
{
closed = 1;
nodes = (
"36 680 LINE SMOOTH",
"11 728 OFFCURVE",
"-13 738 OFFCURVE",
"-44 738 CURVE SMOOTH",
"-75 738 OFFCURVE",
"-98 729 OFFCURVE",
"-137 682 CURVE SMOOTH",
"-147 670 LINE",
"-102 633 LINE",
"-58 678 LINE",
"-54 678 OFFCURVE",
"-49 670 OFFCURVE",
"-31 634 CURVE SMOOTH",
"25 521 OFFCURVE",
"136 305 OFFCURVE",
"202 174 CURVE SMOOTH",
"208 162 OFFCURVE",
"217 140 OFFCURVE",
"217 121 CURVE SMOOTH",
"217 101 OFFCURVE",
"205 76 OFFCURVE",
"113 76 CURVE SMOOTH",
"0 76 LINE SMOOTH",
"-34 76 OFFCURVE",
"-43 57 OFFCURVE",
"-43 38 CURVE SMOOTH",
"-43 19 OFFCURVE",
"-34 0 OFFCURVE",
"0 0 CURVE SMOOTH",
"90 0 LINE SMOOTH",
"190 0 OFFCURVE",
"307 9 OFFCURVE",
"307 123 CURVE SMOOTH",
"307 145 OFFCURVE",
"300 172 OFFCURVE",
"283 204 CURVE SMOOTH"
);
}
);
width = 357;
}
);
category = Letter;
subCategory = Other;
},
{
glyphname = MemMed.pe;
lastChange = "2019-10-31 19:51:10 +0000";
layers = (
{
anchors = (
{
name = Anchor2;
position = "{158, -312}";
},
{
name = Anchor4;
position = "{138, -233}";
},
{
name = Anchor6;
position = "{159, 400}";
}
);
layerId = UUID0;
paths = (
{
closed = 1;
nodes = (
"161 143 LINE SMOOTH",
"90 85 OFFCURVE",
"33 76 OFFCURVE",
"0 76 CURVE SMOOTH",
"-29 76 OFFCURVE",
"-37 57 OFFCURVE",
"-37 38 CURVE SMOOTH",
"-37 19 OFFCURVE",
"-29 0 OFFCURVE",
"0 0 CURVE SMOOTH",
"39 0 OFFCURVE",
"105 8 OFFCURVE",
"188 71 CURVE SMOOTH",
"213 90 LINE",
"249 12 OFFCURVE",
"265 -23 OFFCURVE",
"265 -51 CURVE SMOOTH",
"265 -89 OFFCURVE",
"231 -95 OFFCURVE",
"173 -98 CURVE SMOOTH",
"131 -100 OFFCURVE",
"116 -100 OFFCURVE",
"108 -100 CURVE SMOOTH",
"74 -100 OFFCURVE",
"45 -94 OFFCURVE",
"43 -64 CURVE",
"-24 -64 LINE",
"-25 -71 OFFCURVE",
"-25 -77 OFFCURVE",
"-25 -79 CURVE SMOOTH",
"-22 -164 OFFCURVE",
"59 -172 OFFCURVE",
"117 -172 CURVE SMOOTH",
"131 -172 OFFCURVE",
"185 -170 OFFCURVE",
"217 -166 CURVE SMOOTH",
"250 -162 OFFCURVE",
"282 -154 OFFCURVE",
"303 -139 CURVE SMOOTH",
"328 -121 OFFCURVE",
"346 -95 OFFCURVE",
"346 -58 CURVE SMOOTH",
"346 -9 OFFCURVE",
"319 57 OFFCURVE",
"286 126 CURVE SMOOTH",
"275 149 LINE",
"425 298 LINE",
"379 348 LINE",
"242 216 LINE",
"166 360 LINE",
"101 327 LINE",
"128 274 OFFCURVE",
"164 200 OFFCURVE",
"181 160 CURVE"
);
}
);
width = 461;
}
);
category = Letter;
subCategory = Other;
},
{
glyphname = NunMed.pe;
lastChange = "2019-10-31 19:51:10 +0000";
layers = (
{
anchors = (
{
name = Anchor2;
position = "{167, -328}";
},
{
name = Anchor4;
position = "{142, -60}";
},
{
name = Anchor6;
position = "{191, 443}";
}
);
layerId = UUID0;
paths = (
{
closed = 1;
nodes = (
"189 230 LINE",
"218 163 LINE SMOOTH",
"229 138 OFFCURVE",
"237 117 OFFCURVE",
"237 105 CURVE SMOOTH",
"237 90 OFFCURVE",
"229 76 OFFCURVE",
"192 76 CURVE SMOOTH",
"161 76 LINE",
"147 0 LINE",
"194 0 LINE SMOOTH",
"258 0 OFFCURVE",
"315 29 OFFCURVE",
"315 96 CURVE SMOOTH",
"315 124 OFFCURVE",
"310 142 OFFCURVE",
"281 204 CURVE SMOOTH",
"253 264 OFFCURVE",
"230 322 OFFCURVE",
"208 382 CURVE",
"156 382 LINE",
"132 294 OFFCURVE",
"104 204 OFFCURVE",
"66 135 CURVE SMOOTH",
"41 89 OFFCURVE",
"21 76 OFFCURVE",
"0 76 CURVE SMOOTH",
"-34 76 OFFCURVE",
"-43 57 OFFCURVE",
"-43 38 CURVE SMOOTH",
"-43 19 OFFCURVE",
"-34 0 OFFCURVE",
"0 0 CURVE SMOOTH",
"75 0 OFFCURVE",
"109 58 OFFCURVE",
"143 123 CURVE SMOOTH",
"161 158 OFFCURVE",
"173 191 OFFCURVE",
"186 230 CURVE"
);
}
);
width = 385;
}
);
category = Letter;
subCategory = Other;
},
{
glyphname = SamekhMed.pe;
lastChange = "2019-10-31 19:51:10 +0000";
layers = (
{
anchors = (
{
name = Anchor2;
position = "{293, -328}";
},
{
name = Anchor4;
position = "{138, -203}";
},
{
name = Anchor6;
position = "{287, 443}";
}
);
layerId = UUID0;
paths = (
{
closed = 1;
nodes = (
"352 -10 OFFCURVE",
"392 38 OFFCURVE",
"410 93 CURVE",
"413 93 LINE",
"414 81 OFFCURVE",
"414 72 OFFCURVE",
"414 62 CURVE SMOOTH",
"414 -58 OFFCURVE",
"368 -101 OFFCURVE",
"236 -101 CURVE SMOOTH",
"201 -101 OFFCURVE",
"169 -97 OFFCURVE",
"118 -88 CURVE",
"118 -163 LINE",
"162 -176 OFFCURVE",
"198 -177 OFFCURVE",
"237 -177 CURVE SMOOTH",
"341 -177 OFFCURVE",
"419 -154 OFFCURVE",
"459 -92 CURVE SMOOTH",
"481 -58 OFFCURVE",
"488 -13 OFFCURVE",
"488 42 CURVE SMOOTH",
"488 120 OFFCURVE",
"468 274 OFFCURVE",
"454 382 CURVE",
"393 382 LINE",
"383 271 LINE SMOOTH",
"371 135 OFFCURVE",
"344 65 OFFCURVE",
"290 65 CURVE SMOOTH",
"236 65 OFFCURVE",
"209 136 OFFCURVE",
"183 289 CURVE SMOOTH",
"167 382 LINE",
"103 382 LINE",
"104 319 OFFCURVE",
"108 262 OFFCURVE",
"116 207 CURVE",
"116 201 LINE",
"116 116 OFFCURVE",
"72 76 OFFCURVE",
"0 76 CURVE SMOOTH",
"-34 76 OFFCURVE",
"-43 57 OFFCURVE",
"-43 38 CURVE SMOOTH",
"-43 19 OFFCURVE",
"-34 0 OFFCURVE",
"0 0 CURVE SMOOTH",
"50 0 OFFCURVE",
"114 12 OFFCURVE",
"155 69 CURVE",
"176 28 OFFCURVE",
"208 -10 OFFCURVE",
"281 -10 CURVE SMOOTH"
);
}
);
width = 573;
}
);
category = Letter;
subCategory = Other;
},
{
glyphname = PeMed.pe;
lastChange = "2019-10-31 19:51:10 +0000";
layers = (
{
anchors = (
{
name = Anchor2;
position = "{238, -339}";
},
{
name = Anchor4;
position = "{-42, -370}";
},
{
name = Anchor6;
position = "{264, 474}";
}
);
layerId = UUID0;
paths = (
{
closed = 1;
nodes = (
"-112 -224 OFFCURVE",
"-188 -179 OFFCURVE",
"-188 20 CURVE SMOOTH",
"-188 52 LINE",
"-257 37 LINE",
"-260 11 OFFCURVE",
"-260 -1 OFFCURVE",
"-260 -6 CURVE SMOOTH",
"-260 -248 OFFCURVE",
"-144 -310 OFFCURVE",
"-16 -310 CURVE SMOOTH",
"122 -310 OFFCURVE",
"245 -211 OFFCURVE",
"325 -90 CURVE SMOOTH",
"388 6 OFFCURVE",
"435 114 OFFCURVE",
"435 218 CURVE SMOOTH",
"435 339 OFFCURVE",
"373 410 OFFCURVE",
"267 410 CURVE SMOOTH",
"160 410 OFFCURVE",
"51 286 OFFCURVE",
"51 162 CURVE SMOOTH",
"51 45 OFFCURVE",
"153 5 OFFCURVE",
"284 0 CURVE",
"272 -21 OFFCURVE",
"260 -41 OFFCURVE",
"246 -62 CURVE SMOOTH",
"184 -152 OFFCURVE",
"93 -224 OFFCURVE",
"-8 -224 CURVE SMOOTH"
);
},
{
closed = 1;
nodes = (
"135 248 OFFCURVE",
"192 330 OFFCURVE",
"263 330 CURVE SMOOTH",
"340 330 OFFCURVE",
"355 269 OFFCURVE",
"355 214 CURVE SMOOTH",
"355 170 OFFCURVE",
"342 122 OFFCURVE",
"321 72 CURVE",
"233 75 OFFCURVE",
"135 89 OFFCURVE",
"135 179 CURVE SMOOTH"
);
}
);
width = 490;
}
);
category = Letter;
subCategory = Other;
},
{
glyphname = SadheMed.pe;
lastChange = "2019-10-31 19:51:10 +0000";
layers = (
{
anchors = (
{
name = Anchor2;
position = "{198, -337}";
},
{
name = Anchor4;
position = "{-18, -30}";
},
{
name = Anchor6;
position = "{264, 443}";
}
);
layerId = UUID0;
paths = (
{
closed = 1;
nodes = (
"320 304 OFFCURVE",
"388 308 OFFCURVE",
"433 320 CURVE",
"424 390 LINE",
"419 390 LINE",
"380 380 OFFCURVE",
"329 376 OFFCURVE",
"272 376 CURVE SMOOTH",
"211 376 OFFCURVE",
"166 382 OFFCURVE",
"129 382 CURVE SMOOTH",
"106 382 OFFCURVE",
"90 367 OFFCURVE",
"90 344 CURVE SMOOTH",
"90 337 OFFCURVE",
"90 330 OFFCURVE",
"91 316 CURVE SMOOTH",
"97 225 OFFCURVE",
"102 190 OFFCURVE",
"102 159 CURVE SMOOTH",
"102 106 OFFCURVE",
"80 76 OFFCURVE",
"16 76 CURVE SMOOTH",
"0 76 LINE SMOOTH",
"-34 76 OFFCURVE",
"-43 57 OFFCURVE",
"-43 38 CURVE SMOOTH",
"-43 19 OFFCURVE",
"-34 0 OFFCURVE",
"0 0 CURVE SMOOTH",
"140 0 OFFCURVE",
"184 64 OFFCURVE",
"184 153 CURVE SMOOTH",
"184 184 OFFCURVE",
"180 222 OFFCURVE",
"169 308 CURVE",
"200 305 OFFCURVE",
"235 304 OFFCURVE",
"257 304 CURVE SMOOTH"
);
}
);
width = 443;
}
);
category = Letter;
subCategory = Other;
},
{
glyphname = SadheMed.pe2;
lastChange = "2019-10-31 19:51:10 +0000";
layers = (
{
anchors = (
{
name = Anchor2;
position = "{245, -339}";
},
{
name = Anchor4;
position = "{2, -30}";
},
{
name = Anchor6;
position = "{265, 442}";
}
);
layerId = UUID0;
paths = (
{
closed = 1;
nodes = (
"320 304 OFFCURVE",
"388 308 OFFCURVE",
"433 320 CURVE",
"424 390 LINE",
"419 390 LINE",
"380 380 OFFCURVE",
"329 376 OFFCURVE",
"272 376 CURVE SMOOTH",
"211 376 OFFCURVE",
"166 382 OFFCURVE",
"129 382 CURVE SMOOTH",
"106 382 OFFCURVE",
"90 367 OFFCURVE",
"90 344 CURVE SMOOTH",
"90 337 OFFCURVE",
"90 330 OFFCURVE",
"91 316 CURVE SMOOTH",
"97 225 OFFCURVE",
"102 190 OFFCURVE",
"102 159 CURVE SMOOTH",
"102 106 OFFCURVE",
"80 76 OFFCURVE",
"16 76 CURVE SMOOTH",
"0 76 LINE SMOOTH",
"-34 76 OFFCURVE",
"-43 57 OFFCURVE",
"-43 38 CURVE SMOOTH",
"-43 19 OFFCURVE",
"-34 0 OFFCURVE",
"0 0 CURVE SMOOTH",
"140 0 OFFCURVE",
"184 64 OFFCURVE",
"184 153 CURVE SMOOTH",
"184 184 OFFCURVE",
"180 222 OFFCURVE",
"169 308 CURVE",
"200 305 OFFCURVE",
"235 304 OFFCURVE",
"257 304 CURVE SMOOTH"
);
}
);
width = 493;
}
);
category = Letter;
subCategory = Other;
},
{
glyphname = ReshMed.pe;
lastChange = "2019-10-31 19:51:10 +0000";
layers = (
{
anchors = (
{
name = Anchor2;
position = "{199, -335}";
},
{
name = Anchor4;
position = "{100, -27}";
},
{
name = Anchor6;
position = "{224, 443}";
}
);
layerId = UUID0;
paths = (
{
closed = 1;
nodes = (
"383 382 LINE",
"313 382 LINE",
"309 330 OFFCURVE",
"304 283 OFFCURVE",
"292 244 CURVE",
"172 272 OFFCURVE",
"124 328 OFFCURVE",
"109 395 CURVE",
"107 395 LINE",
"46 374 LINE",
"45 369 OFFCURVE",
"45 364 OFFCURVE",
"45 359 CURVE SMOOTH",
"45 311 OFFCURVE",
"69 273 OFFCURVE",
"103 244 CURVE SMOOTH",
"132 219 OFFCURVE",
"186 189 OFFCURVE",
"264 169 CURVE",
"255 147 OFFCURVE",
"240 131 OFFCURVE",
"211 112 CURVE SMOOTH",
"166 83 OFFCURVE",
"104 76 OFFCURVE",
"16 76 CURVE SMOOTH",
"0 76 LINE SMOOTH",
"-34 76 OFFCURVE",
"-43 57 OFFCURVE",
"-43 38 CURVE SMOOTH",
"-43 19 OFFCURVE",
"-34 0 OFFCURVE",
"0 0 CURVE SMOOTH",
"25 0 LINE SMOOTH",
"147 0 OFFCURVE",
"222 27 OFFCURVE",
"263 56 CURVE SMOOTH",
"309 88 OFFCURVE",
"340 131 OFFCURVE",
"358 191 CURVE SMOOTH",
"373 240 OFFCURVE",
"383 300 OFFCURVE",
"383 375 CURVE SMOOTH"
);
}
);
width = 433;
}
);
category = Letter;
subCategory = Other;
},
{
glyphname = ShinMed.pe;
lastChange = "2019-10-31 19:51:10 +0000";
layers = (
{
anchors = (
{
name = Anchor2;
position = "{233, -133}";
},
{
name = Anchor4;
position = "{170, -110}";
},
{
name = Anchor6;
position = "{415, 397}";
}
);
layerId = UUID0;
paths = (
{
closed = 1;
nodes = (
"34 0 OFFCURVE",
"77 18 OFFCURVE",
"124 104 CURVE SMOOTH",
"171 190 LINE SMOOTH",
"205 252 OFFCURVE",
"227 270 OFFCURVE",
"253 270 CURVE SMOOTH",
"292 270 OFFCURVE",
"309 240 OFFCURVE",
"309 204 CURVE SMOOTH",
"309 154 OFFCURVE",
"279 106 OFFCURVE",
"243 69 CURVE",
"212 48 OFFCURVE",
"181 27 OFFCURVE",
"150 5 CURVE",
"190 -53 LINE",
"382 81 OFFCURVE",
"553 172 OFFCURVE",
"707 246 CURVE",
"698 264 OFFCURVE",
"682 293 OFFCURVE",
"669 312 CURVE",
"598 280 OFFCURVE",
"493 226 OFFCURVE",
"377 156 CURVE",
"383 175 OFFCURVE",
"387 195 OFFCURVE",
"387 216 CURVE SMOOTH",
"387 301 OFFCURVE",
"323 349 OFFCURVE",
"258 349 CURVE SMOOTH",
"181 349 OFFCURVE",
"142 297 OFFCURVE",
"94 206 CURVE SMOOTH",
"53 128 LINE SMOOTH",
"32 88 OFFCURVE",
"20 76 OFFCURVE",
"0 76 CURVE SMOOTH",
"-39 76 OFFCURVE",
"-51 56 OFFCURVE",
"-51 37 CURVE SMOOTH",
"-51 17 OFFCURVE",
"-40 0 OFFCURVE",
"0 0 CURVE SMOOTH"
);
}
);
width = 788;
}
);
category = Letter;
subCategory = Other;
},
{
glyphname = TawMed.pe;
lastChange = "2019-10-31 19:51:10 +0000";
layers = (
{
anchors = (
{
name = Anchor2;
position = "{254, -315}";
},
{
name = Anchor4;
position = "{224, -269}";
},
{
name = Anchor6;
position = "{290, 361}";
}
);
layerId = UUID0;
paths = (
{
closed = 1;
nodes = (
"19 0 OFFCURVE",
"56 2 OFFCURVE",
"81 7 CURVE",
"81 -28 LINE SMOOTH",
"81 -195 OFFCURVE",
"187 -209 OFFCURVE",
"253 -209 CURVE SMOOTH",
"385 -209 OFFCURVE",
"501 -91 OFFCURVE",
"501 39 CURVE SMOOTH",
"501 122 OFFCURVE",
"436 153 OFFCURVE",
"371 153 CURVE SMOOTH",
"316 153 OFFCURVE",
"242 118 OFFCURVE",
"164 97 CURVE",
"164 304 LINE",
"93 304 LINE",
"89 233 OFFCURVE",
"84 109 OFFCURVE",
"84 81 CURVE",
"62 77 OFFCURVE",
"12 76 OFFCURVE",
"0 76 CURVE SMOOTH",
"-34 76 OFFCURVE",
"-43 57 OFFCURVE",
"-43 38 CURVE SMOOTH",
"-43 19 OFFCURVE",
"-34 0 OFFCURVE",
"0 0 CURVE SMOOTH"
);
},
{
closed = 1;
nodes = (
"395 79 OFFCURVE",
"420 60 OFFCURVE",
"420 31 CURVE SMOOTH",
"420 -46 OFFCURVE",
"341 -134 OFFCURVE",
"253 -134 CURVE SMOOTH",
"210 -134 OFFCURVE",
"161 -122 OFFCURVE",
"161 -21 CURVE SMOOTH",
"161 22 LINE",
"245 44 OFFCURVE",
"322 79 OFFCURVE",
"362 79 CURVE SMOOTH"
);
}
);
width = 557;
}
);
category = Letter;
subCategory = Other;
},
{
glyphname = FethMed.pe;
lastChange = "2019-10-31 19:51:10 +0000";
layers = (
{
anchors = (
{
name = Anchor2;
position = "{193, -60}";
},
{
name = Anchor4;
position = "{237, -60}";
},
{
name = Anchor6;
position = "{304, 443}";
}
);
layerId = UUID0;
paths = (
{
closed = 1;
nodes = (
"204 222 OFFCURVE",
"253 229 OFFCURVE",
"292 301 CURVE",
"327 228 OFFCURVE",
"376 222 OFFCURVE",
"408 222 CURVE SMOOTH",
"440 222 OFFCURVE",
"472 237 OFFCURVE",
"490 275 CURVE",
"495 254 OFFCURVE",
"500 202 OFFCURVE",
"500 186 CURVE SMOOTH",
"500 113 OFFCURVE",
"489 76 OFFCURVE",
"407 76 CURVE SMOOTH",
"0 76 LINE SMOOTH",
"-34 76 OFFCURVE",
"-43 57 OFFCURVE",
"-43 38 CURVE SMOOTH",
"-43 19 OFFCURVE",
"-34 0 OFFCURVE",
"0 0 CURVE SMOOTH",
"404 0 LINE SMOOTH",
"531 0 OFFCURVE",
"579 59 OFFCURVE",
"579 168 CURVE SMOOTH",
"579 225 OFFCURVE",
"565 308 OFFCURVE",
"548 382 CURVE",
"486 382 LINE",
"473 313 OFFCURVE",
"445 293 OFFCURVE",
"414 293 CURVE SMOOTH",
"379 293 OFFCURVE",
"347 320 OFFCURVE",
"329 382 CURVE",
"267 382 LINE",
"246 329 OFFCURVE",
"217 293 OFFCURVE",
"182 293 CURVE SMOOTH",
"151 293 OFFCURVE",
"124 317 OFFCURVE",
"109 390 CURVE",
"40 376 LINE",
"53 249 OFFCURVE",
"119 222 OFFCURVE",
"172 222 CURVE SMOOTH"
);
}
);
width = 655;
}
);
category = Letter;
subCategory = Other;
},
{
glyphname = LeshMed.pe;
lastChange = "2019-10-31 19:51:10 +0000";
layers = (
{
anchors = (
{
name = Anchor2;
position = "{213, -340}";
},
{
name = Anchor4;
position = "{78, -192}";
},
{
name = Anchor6;
position = "{220, 442}";
}
);
layerId = UUID0;
paths = (
{
closed = 1;
nodes = (
"365 -153 LINE",
"367 -77 LINE",
"166 -68 LINE",
"317 64 OFFCURVE",
"383 201 OFFCURVE",
"383 382 CURVE",
"313 382 LINE",
"309 330 OFFCURVE",
"304 283 OFFCURVE",
"292 244 CURVE",
"172 272 OFFCURVE",
"124 328 OFFCURVE",
"109 395 CURVE",
"107 395 LINE",
"46 374 LINE",
"45 369 OFFCURVE",
"45 364 OFFCURVE",
"45 359 CURVE SMOOTH",
"45 311 OFFCURVE",
"69 273 OFFCURVE",
"103 244 CURVE SMOOTH",
"132 219 OFFCURVE",
"184 190 OFFCURVE",
"260 170 CURVE",
"210 89 OFFCURVE",
"99 76 OFFCURVE",
"15 76 CURVE SMOOTH",
"0 76 LINE SMOOTH",
"-34 76 OFFCURVE",
"-43 57 OFFCURVE",
"-43 38 CURVE SMOOTH",
"-43 19 OFFCURVE",
"-34 0 OFFCURVE",
"0 0 CURVE SMOOTH",
"52 0 OFFCURVE",
"116 4 OFFCURVE",
"183 42 CURVE",
"186 41 LINE",
"167 18 OFFCURVE",
"104 -45 OFFCURVE",
"61 -81 CURVE",
"61 -141 LINE"
);
}
);
width = 433;
}
);
category = Letter;
subCategory = Other;
},
